<?xml version="1.0" encoding="UTF-8" standalone="no"?>
<!DOCTYPE svg PUBLIC "-//W3C//DTD SVG 1.1//EN"
 "http://www.w3.org/Graphics/SVG/1.1/DTD/svg11.dtd">
<!-- Generated by graphviz version 2.43.0 (0)
 -->
<!-- Title: Workflow Engine Class Diagram Pages: 1 -->
<svg width="1261pt" height="1835pt"
 viewBox="0.00 0.00 1261.00 1835.00" xmlns="http://www.w3.org/2000/svg" xmlns:xlink="http://www.w3.org/1999/xlink">
<g id="graph0" class="graph" transform="scale(1 1) rotate(0) translate(36 1799)">
<title>Workflow Engine Class Diagram</title>
<polygon fill="white" stroke="transparent" points="-36,36 -36,-1799 1225,-1799 1225,36 -36,36"/>
<text text-anchor="middle" x="594.5" y="-9.2" font-family="Arial" font-size="16.00" fill="#333333">Workflow Engine Class Diagram</text>
<g id="clust1" class="cluster">
<title>cluster_Model</title>
<path fill="#e6f2ff" stroke="#aeb6be" d="M626,-937C626,-937 1169,-937 1169,-937 1175,-937 1181,-943 1181,-949 1181,-949 1181,-1380 1181,-1380 1181,-1386 1175,-1392 1169,-1392 1169,-1392 626,-1392 626,-1392 620,-1392 614,-1386 614,-1380 614,-1380 614,-949 614,-949 614,-943 620,-937 626,-937"/>
<text text-anchor="middle" x="640.5" y="-1378.4" font-family="Sans-Serif" font-size="12.00" fill="#333333">Model</text>
</g>
<g id="clust2" class="cluster">
<title>cluster_Operators</title>
<path fill="#e6ffe6" stroke="#aeb6be" d="M626,-1400C626,-1400 1169,-1400 1169,-1400 1175,-1400 1181,-1406 1181,-1412 1181,-1412 1181,-1743 1181,-1743 1181,-1749 1175,-1755 1169,-1755 1169,-1755 626,-1755 626,-1755 620,-1755 614,-1749 614,-1743 614,-1743 614,-1412 614,-1412 614,-1406 620,-1400 626,-1400"/>
<text text-anchor="middle" x="652.5" y="-1741.4" font-family="Sans-Serif" font-size="12.00" fill="#333333">Operators</text>
</g>
<g id="clust3" class="cluster">
<title>cluster_Handlers</title>
<path fill="#f2e6ff" stroke="#aeb6be" d="M410,-34C410,-34 935,-34 935,-34 941,-34 947,-40 947,-46 947,-46 947,-917 947,-917 947,-923 941,-929 935,-929 935,-929 410,-929 410,-929 404,-929 398,-923 398,-917 398,-917 398,-46 398,-46 398,-40 404,-34 410,-34"/>
<text text-anchor="middle" x="433" y="-915.4" font-family="Sans-Serif" font-size="12.00" fill="#333333">Handlers</text>
</g>
<g id="clust4" class="cluster">
<title>cluster_Execution</title>
<path fill="#ffffe6" stroke="#aeb6be" d="M20,-1044C20,-1044 503,-1044 503,-1044 509,-1044 515,-1050 515,-1056 515,-1056 515,-1207 515,-1207 515,-1213 509,-1219 503,-1219 503,-1219 20,-1219 20,-1219 14,-1219 8,-1213 8,-1207 8,-1207 8,-1056 8,-1056 8,-1050 14,-1044 20,-1044"/>
<text text-anchor="middle" x="45.5" y="-1205.4" font-family="Sans-Serif" font-size="12.00" fill="#333333">Execution</text>
</g>
<g id="clust5" class="cluster">
<title>cluster_API</title>
<path fill="#ffe6e6" stroke="#aeb6be" d="M206,-681C206,-681 299,-681 299,-681 305,-681 311,-687 311,-693 311,-693 311,-1024 311,-1024 311,-1030 305,-1036 299,-1036 299,-1036 206,-1036 206,-1036 200,-1036 194,-1030 194,-1024 194,-1024 194,-693 194,-693 194,-687 200,-681 206,-681"/>
<text text-anchor="middle" x="212" y="-1022.4" font-family="Sans-Serif" font-size="12.00" fill="#333333">API</text>
</g>
<!-- c60bdf91c9bf46b6af956c50d62f991e -->
<g id="node1" class="node">
<title>c60bdf91c9bf46b6af956c50d62f991e</title>
<polygon fill="#333333" stroke="transparent" points="723,-1239.5 622,-1239.5 622,-1102.5 723,-1102.5 723,-1239.5"/>
<image xlink:href="/usr/local/lib/python3.10/dist-packages/resources/programming/language/java.png" width="101px" height="101px" preserveAspectRatio="xMinYMin meet" x="622" y="-1221.5"/>
<text text-anchor="middle" x="672.5" y="-1106.3" font-family="Arial" font-size="14.00" fill="#333333">WorkflowInstance</text>
</g>
<!-- 3950ea27cb8740429e7928caf5a99600 -->
<g id="node2" class="node">
<title>3950ea27cb8740429e7928caf5a99600</title>
<polygon fill="#333333" stroke="transparent" points="939,-1082.5 838,-1082.5 838,-945.5 939,-945.5 939,-1082.5"/>
<image xlink:href="/usr/local/lib/python3.10/dist-packages/resources/programming/language/java.png" width="101px" height="101px" preserveAspectRatio="xMinYMin meet" x="838" y="-1064.5"/>
<text text-anchor="middle" x="888.5" y="-949.3" font-family="Arial" font-size="14.00" fill="#333333">TaskInstance</text>
</g>
<!-- c60bdf91c9bf46b6af956c50d62f991e&#45;&gt;3950ea27cb8740429e7928caf5a99600 -->
<g id="edge1" class="edge">
<title>c60bdf91c9bf46b6af956c50d62f991e&#45;&gt;3950ea27cb8740429e7928caf5a99600</title>
<path fill="none" stroke="#666666" d="M723.1,-1110.17C782.2,-1110.17 872,-1110.17 872,-1110.17 872,-1110.17 872,-1092.61 872,-1092.61"/>
<polygon fill="#666666" stroke="#666666" points="875.5,-1092.61 872,-1082.61 868.5,-1092.61 875.5,-1092.61"/>
<text text-anchor="middle" x="780.5" y="-1066.6" font-family="Sans-Serif" font-size="13.00" fill="#2d3436">1:N</text>
</g>
<!-- 2c381e6a96fa43a68cc52436d156bda9 -->
<g id="node3" class="node">
<title>2c381e6a96fa43a68cc52436d156bda9</title>
<polygon fill="#333333" stroke="transparent" points="1173,-1222.5 1072,-1222.5 1072,-1085.5 1173,-1085.5 1173,-1222.5"/>
<image xlink:href="/usr/local/lib/python3.10/dist-packages/resources/programming/language/java.png" width="101px" height="101px" preserveAspectRatio="xMinYMin meet" x="1072" y="-1204.5"/>
<text text-anchor="middle" x="1122.5" y="-1089.3" font-family="Arial" font-size="14.00" fill="#333333">WorkflowHistory</text>
</g>
<!-- c60bdf91c9bf46b6af956c50d62f991e&#45;&gt;2c381e6a96fa43a68cc52436d156bda9 -->
<g id="edge2" class="edge">
<title>c60bdf91c9bf46b6af956c50d62f991e&#45;&gt;2c381e6a96fa43a68cc52436d156bda9</title>
<path fill="none" stroke="#666666" d="M723.25,-1117.83C723.25,-1117.83 1061.94,-1117.83 1061.94,-1117.83"/>
<polygon fill="#666666" stroke="#666666" points="1061.94,-1121.33 1071.94,-1117.83 1061.94,-1114.33 1061.94,-1121.33"/>
<text text-anchor="middle" x="888.5" y="-1352.6" font-family="Sans-Serif" font-size="13.00" fill="#2d3436">1:N</text>
</g>
<!-- 22564d8763164e19a3b825ace73bc272 -->
<g id="node4" class="node">
<title>22564d8763164e19a3b825ace73bc272</title>
<polygon fill="#333333" stroke="transparent" points="939,-1262.5 838,-1262.5 838,-1125.5 939,-1125.5 939,-1262.5"/>
<image xlink:href="/usr/local/lib/python3.10/dist-packages/resources/programming/language/java.png" width="101px" height="101px" preserveAspectRatio="xMinYMin meet" x="838" y="-1244.5"/>
<text text-anchor="middle" x="888.5" y="-1129.3" font-family="Arial" font-size="14.00" fill="#333333">WorkflowExecutionQueue</text>
</g>
<!-- c60bdf91c9bf46b6af956c50d62f991e&#45;&gt;22564d8763164e19a3b825ace73bc272 -->
<g id="edge3" class="edge">
<title>c60bdf91c9bf46b6af956c50d62f991e&#45;&gt;22564d8763164e19a3b825ace73bc272</title>
<path fill="none" stroke="#666666" d="M723.14,-1182.5C723.14,-1182.5 827.8,-1182.5 827.8,-1182.5"/>
<polygon fill="#666666" stroke="#666666" points="827.8,-1186 837.8,-1182.5 827.8,-1179 827.8,-1186"/>
<text text-anchor="middle" x="780.5" y="-1177.6" font-family="Sans-Serif" font-size="13.00" fill="#2d3436">1:N</text>
</g>
<!-- 3950ea27cb8740429e7928caf5a99600&#45;&gt;2c381e6a96fa43a68cc52436d156bda9 -->
<g id="edge4" class="edge">
<title>3950ea27cb8740429e7928caf5a99600&#45;&gt;2c381e6a96fa43a68cc52436d156bda9</title>
<path fill="none" stroke="#666666" d="M906,-1082.54C906,-1089.46 906,-1094 906,-1094 906,-1094 1061.74,-1094 1061.74,-1094"/>
<polygon fill="#666666" stroke="#666666" points="1061.74,-1097.5 1071.74,-1094 1061.74,-1090.5 1061.74,-1097.5"/>
<text text-anchor="middle" x="1005.5" y="-1087.6" font-family="Sans-Serif" font-size="13.00" fill="#2d3436">1:N</text>
</g>
<!-- 2463e6c6802c4344a7eb9cb0cc0ecf3a -->
<g id="node5" class="node">
<title>2463e6c6802c4344a7eb9cb0cc0ecf3a</title>
<polygon fill="#333333" stroke="transparent" points="939,-1545.5 838,-1545.5 838,-1408.5 939,-1408.5 939,-1545.5"/>
<image xlink:href="/usr/local/lib/python3.10/dist-packages/resources/programming/language/java.png" width="101px" height="101px" preserveAspectRatio="xMinYMin meet" x="838" y="-1527.5"/>
<text text-anchor="middle" x="888.5" y="-1412.3" font-family="Arial" font-size="14.00" fill="#333333">Operator</text>
</g>
<!-- 84f7cce22dac48b2902d9ad6cbb513b9 -->
<g id="node6" class="node">
<title>84f7cce22dac48b2902d9ad6cbb513b9</title>
<polygon fill="#333333" stroke="transparent" points="1173,-1545.5 1072,-1545.5 1072,-1408.5 1173,-1408.5 1173,-1545.5"/>
<image xlink:href="/usr/local/lib/python3.10/dist-packages/resources/programming/language/java.png" width="101px" height="101px" preserveAspectRatio="xMinYMin meet" x="1072" y="-1527.5"/>
<text text-anchor="middle" x="1122.5" y="-1412.3" font-family="Arial" font-size="14.00" fill="#333333">SequenceOperator</text>
</g>
<!-- 2463e6c6802c4344a7eb9cb0cc0ecf3a&#45;&gt;84f7cce22dac48b2902d9ad6cbb513b9 -->
<g id="edge5" class="edge">
<title>2463e6c6802c4344a7eb9cb0cc0ecf3a&#45;&gt;84f7cce22dac48b2902d9ad6cbb513b9</title>
<path fill="none" stroke="#666666" d="M949.27,-1477C949.27,-1477 1071.82,-1477 1071.82,-1477"/>
<polygon fill="#666666" stroke="#666666" points="949.27,-1473.5 939.27,-1477 949.27,-1480.5 949.27,-1473.5"/>
<text text-anchor="middle" x="1005.5" y="-1480.6" font-family="Sans-Serif" font-size="13.00" fill="#2d3436">implements</text>
</g>
<!-- 3e03e707d39347ee9a3a8ff39ef91b9a -->
<g id="node7" class="node">
<title>3e03e707d39347ee9a3a8ff39ef91b9a</title>
<polygon fill="#333333" stroke="transparent" points="1173,-1725.5 1072,-1725.5 1072,-1588.5 1173,-1588.5 1173,-1725.5"/>
<image xlink:href="/usr/local/lib/python3.10/dist-packages/resources/programming/language/java.png" width="101px" height="101px" preserveAspectRatio="xMinYMin meet" x="1072" y="-1707.5"/>
<text text-anchor="middle" x="1122.5" y="-1592.3" font-family="Arial" font-size="14.00" fill="#333333">DynamicForkOperator</text>
</g>
<!-- 2463e6c6802c4344a7eb9cb0cc0ecf3a&#45;&gt;3e03e707d39347ee9a3a8ff39ef91b9a -->
<g id="edge6" class="edge">
<title>2463e6c6802c4344a7eb9cb0cc0ecf3a&#45;&gt;3e03e707d39347ee9a3a8ff39ef91b9a</title>
<path fill="none" stroke="#666666" d="M889,-1555.56C889,-1555.56 889,-1657 889,-1657 889,-1657 1003.16,-1657 1071.83,-1657"/>
<polygon fill="#666666" stroke="#666666" points="892.5,-1555.56 889,-1545.56 885.5,-1555.56 892.5,-1555.56"/>
<text text-anchor="middle" x="1005.5" y="-1601.6" font-family="Sans-Serif" font-size="13.00" fill="#2d3436">implements</text>
</g>
<!-- ae8db368d2ca460b98e8334f609fcf66 -->
<g id="node8" class="node">
<title>ae8db368d2ca460b98e8334f609fcf66</title>
<polygon fill="#333333" stroke="transparent" points="723,-1545.5 622,-1545.5 622,-1408.5 723,-1408.5 723,-1545.5"/>
<image xlink:href="/usr/local/lib/python3.10/dist-packages/resources/programming/language/java.png" width="101px" height="101px" preserveAspectRatio="xMinYMin meet" x="622" y="-1527.5"/>
<text text-anchor="middle" x="672.5" y="-1412.3" font-family="Arial" font-size="14.00" fill="#333333">OperatorManager</text>
</g>
<!-- ae8db368d2ca460b98e8334f609fcf66&#45;&gt;2463e6c6802c4344a7eb9cb0cc0ecf3a -->
<g id="edge7" class="edge">
<title>ae8db368d2ca460b98e8334f609fcf66&#45;&gt;2463e6c6802c4344a7eb9cb0cc0ecf3a</title>
<path fill="none" stroke="#666666" d="M723.14,-1477C723.14,-1477 827.8,-1477 827.8,-1477"/>
<polygon fill="#666666" stroke="#666666" points="827.8,-1480.5 837.8,-1477 827.8,-1473.5 827.8,-1480.5"/>
<text text-anchor="middle" x="780.5" y="-1480.6" font-family="Sans-Serif" font-size="13.00" fill="#2d3436">manages</text>
</g>
<!-- 1199701acc81469bb5c4b73bb8b5cb4f -->
<g id="node9" class="node">
<title>1199701acc81469bb5c4b73bb8b5cb4f</title>
<polygon fill="#333333" stroke="transparent" points="723,-726.5 622,-726.5 622,-589.5 723,-589.5 723,-726.5"/>
<image xlink:href="/usr/local/lib/python3.10/dist-packages/resources/programming/language/java.png" width="101px" height="101px" preserveAspectRatio="xMinYMin meet" x="622" y="-708.5"/>
<text text-anchor="middle" x="672.5" y="-593.3" font-family="Arial" font-size="14.00" fill="#333333">TaskHandler</text>
</g>
<!-- 1199701acc81469bb5c4b73bb8b5cb4f&#45;&gt;3950ea27cb8740429e7928caf5a99600 -->
<g id="edge21" class="edge">
<title>1199701acc81469bb5c4b73bb8b5cb4f&#45;&gt;3950ea27cb8740429e7928caf5a99600</title>
<path fill="none" stroke="#666666" d="M698,-726.7C698,-817.43 698,-965.83 698,-965.83 698,-965.83 827.95,-965.83 827.95,-965.83"/>
<polygon fill="#666666" stroke="#666666" points="827.95,-969.33 837.95,-965.83 827.95,-962.33 827.95,-969.33"/>
<text text-anchor="middle" x="780.5" y="-901.6" font-family="Sans-Serif" font-size="13.00" fill="#2d3436">manages</text>
</g>
<!-- a9881fb6213e4938a9da73e24c1b6678 -->
<g id="node11" class="node">
<title>a9881fb6213e4938a9da73e24c1b6678</title>
<polygon fill="#333333" stroke="transparent" points="939,-179.5 838,-179.5 838,-42.5 939,-42.5 939,-179.5"/>
<image xlink:href="/usr/local/lib/python3.10/dist-packages/resources/programming/language/java.png" width="101px" height="101px" preserveAspectRatio="xMinYMin meet" x="838" y="-161.5"/>
<text text-anchor="middle" x="888.5" y="-46.3" font-family="Arial" font-size="14.00" fill="#333333">ToDoTaskHandler</text>
</g>
<!-- 1199701acc81469bb5c4b73bb8b5cb4f&#45;&gt;a9881fb6213e4938a9da73e24c1b6678 -->
<g id="edge8" class="edge">
<title>1199701acc81469bb5c4b73bb8b5cb4f&#45;&gt;a9881fb6213e4938a9da73e24c1b6678</title>
<path fill="none" stroke="#666666" d="M648,-579.28C648,-579.28 648,-111 648,-111 648,-111 767.23,-111 837.79,-111"/>
<polygon fill="#666666" stroke="#666666" points="644.5,-579.28 648,-589.28 651.5,-579.28 644.5,-579.28"/>
<text text-anchor="middle" x="780.5" y="-205.6" font-family="Sans-Serif" font-size="13.00" fill="#2d3436">extends</text>
</g>
<!-- 0b8121e04f7a4be081841319d71e07e7 -->
<g id="node12" class="node">
<title>0b8121e04f7a4be081841319d71e07e7</title>
<polygon fill="#333333" stroke="transparent" points="939,-359.5 838,-359.5 838,-222.5 939,-222.5 939,-359.5"/>
<image xlink:href="/usr/local/lib/python3.10/dist-packages/resources/programming/language/java.png" width="101px" height="101px" preserveAspectRatio="xMinYMin meet" x="838" y="-341.5"/>
<text text-anchor="middle" x="888.5" y="-226.3" font-family="Arial" font-size="14.00" fill="#333333">SubmitTaskHandler</text>
</g>
<!-- 1199701acc81469bb5c4b73bb8b5cb4f&#45;&gt;0b8121e04f7a4be081841319d71e07e7 -->
<g id="edge9" class="edge">
<title>1199701acc81469bb5c4b73bb8b5cb4f&#45;&gt;0b8121e04f7a4be081841319d71e07e7</title>
<path fill="none" stroke="#666666" d="M673,-579.4C673,-579.4 673,-291 673,-291 673,-291 774.28,-291 837.97,-291"/>
<polygon fill="#666666" stroke="#666666" points="669.5,-579.4 673,-589.4 676.5,-579.4 669.5,-579.4"/>
<text text-anchor="middle" x="780.5" y="-358.6" font-family="Sans-Serif" font-size="13.00" fill="#2d3436">extends</text>
</g>
<!-- 91089b0171804c049a69a437267acd9d -->
<g id="node13" class="node">
<title>91089b0171804c049a69a437267acd9d</title>
<polygon fill="#333333" stroke="transparent" points="939,-539.5 838,-539.5 838,-402.5 939,-402.5 939,-539.5"/>
<image xlink:href="/usr/local/lib/python3.10/dist-packages/resources/programming/language/java.png" width="101px" height="101px" preserveAspectRatio="xMinYMin meet" x="838" y="-521.5"/>
<text text-anchor="middle" x="888.5" y="-406.3" font-family="Arial" font-size="14.00" fill="#333333">ApproveTaskHandler</text>
</g>
<!-- 1199701acc81469bb5c4b73bb8b5cb4f&#45;&gt;91089b0171804c049a69a437267acd9d -->
<g id="edge10" class="edge">
<title>1199701acc81469bb5c4b73bb8b5cb4f&#45;&gt;91089b0171804c049a69a437267acd9d</title>
<path fill="none" stroke="#666666" d="M698,-579.43C698,-579.43 698,-471 698,-471 698,-471 781.51,-471 837.95,-471"/>
<polygon fill="#666666" stroke="#666666" points="694.5,-579.43 698,-589.43 701.5,-579.43 694.5,-579.43"/>
<text text-anchor="middle" x="780.5" y="-538.6" font-family="Sans-Serif" font-size="13.00" fill="#2d3436">extends</text>
</g>
<!-- a7919b904a894f81b9c13cb00a3feff6 -->
<g id="node14" class="node">
<title>a7919b904a894f81b9c13cb00a3feff6</title>
<polygon fill="#333333" stroke="transparent" points="939,-719.5 838,-719.5 838,-582.5 939,-582.5 939,-719.5"/>
<image xlink:href="/usr/local/lib/python3.10/dist-packages/resources/programming/language/java.png" width="101px" height="101px" preserveAspectRatio="xMinYMin meet" x="838" y="-701.5"/>
<text text-anchor="middle" x="888.5" y="-586.3" font-family="Arial" font-size="14.00" fill="#333333">ReviewTaskHandler</text>
</g>
<!-- 1199701acc81469bb5c4b73bb8b5cb4f&#45;&gt;a7919b904a894f81b9c13cb00a3feff6 -->
<g id="edge11" class="edge">
<title>1199701acc81469bb5c4b73bb8b5cb4f&#45;&gt;a7919b904a894f81b9c13cb00a3feff6</title>
<path fill="none" stroke="#666666" d="M733.14,-654.5C733.14,-654.5 837.8,-654.5 837.8,-654.5"/>
<polygon fill="#666666" stroke="#666666" points="733.14,-651 723.14,-654.5 733.14,-658 733.14,-651"/>
<text text-anchor="middle" x="780.5" y="-659.6" font-family="Sans-Serif" font-size="13.00" fill="#2d3436">extends</text>
</g>
<!-- ad6850cd2b2e41f981bffd65877b1cad -->
<g id="node15" class="node">
<title>ad6850cd2b2e41f981bffd65877b1cad</title>
<polygon fill="#333333" stroke="transparent" points="939,-899.5 838,-899.5 838,-762.5 939,-762.5 939,-899.5"/>
<image xlink:href="/usr/local/lib/python3.10/dist-packages/resources/programming/language/java.png" width="101px" height="101px" preserveAspectRatio="xMinYMin meet" x="838" y="-881.5"/>
<text text-anchor="middle" x="888.5" y="-766.3" font-family="Arial" font-size="14.00" fill="#333333">HttpTaskHandler</text>
</g>
<!-- 1199701acc81469bb5c4b73bb8b5cb4f&#45;&gt;ad6850cd2b2e41f981bffd65877b1cad -->
<g id="edge12" class="edge">
<title>1199701acc81469bb5c4b73bb8b5cb4f&#45;&gt;ad6850cd2b2e41f981bffd65877b1cad</title>
<path fill="none" stroke="#666666" d="M733.26,-723C733.26,-723 889,-723 889,-723 889,-723 889,-741 889,-762.3"/>
<polygon fill="#666666" stroke="#666666" points="733.26,-719.5 723.26,-723 733.26,-726.5 733.26,-719.5"/>
<text text-anchor="middle" x="780.5" y="-780.6" font-family="Sans-Serif" font-size="13.00" fill="#2d3436">extends</text>
</g>
<!-- 741e264be69449db9c491004905c7f11 -->
<g id="node17" class="node">
<title>741e264be69449db9c491004905c7f11</title>
<polygon fill="#333333" stroke="transparent" points="303,-1189.5 202,-1189.5 202,-1052.5 303,-1052.5 303,-1189.5"/>
<image xlink:href="/usr/local/lib/python3.10/dist-packages/resources/programming/language/java.png" width="101px" height="101px" preserveAspectRatio="xMinYMin meet" x="202" y="-1171.5"/>
<text text-anchor="middle" x="252.5" y="-1056.3" font-family="Arial" font-size="14.00" fill="#333333">ExecutionQueuingInterceptor</text>
</g>
<!-- 1199701acc81469bb5c4b73bb8b5cb4f&#45;&gt;741e264be69449db9c491004905c7f11 -->
<g id="edge22" class="edge">
<title>1199701acc81469bb5c4b73bb8b5cb4f&#45;&gt;741e264be69449db9c491004905c7f11</title>
<path fill="none" stroke="#666666" d="M673,-726.57C673,-833.91 673,-1029.5 673,-1029.5 673,-1029.5 253,-1029.5 253,-1029.5 253,-1029.5 253,-1042.12 253,-1042.12"/>
<polygon fill="#666666" stroke="#666666" points="249.5,-1042.12 253,-1052.12 256.5,-1042.12 249.5,-1042.12"/>
<text text-anchor="middle" x="456.5" y="-990.6" font-family="Sans-Serif" font-size="13.00" fill="#2d3436">queues</text>
</g>
<!-- c73d7994bc0a4dca82c20d2d0de4e0b5 -->
<g id="node10" class="node">
<title>c73d7994bc0a4dca82c20d2d0de4e0b5</title>
<polygon fill="#333333" stroke="transparent" points="507,-726.5 406,-726.5 406,-589.5 507,-589.5 507,-726.5"/>
<image xlink:href="/usr/local/lib/python3.10/dist-packages/resources/programming/language/java.png" width="101px" height="101px" preserveAspectRatio="xMinYMin meet" x="406" y="-708.5"/>
<text text-anchor="middle" x="456.5" y="-593.3" font-family="Arial" font-size="14.00" fill="#333333">TaskHandlerRegistry</text>
</g>
<!-- c73d7994bc0a4dca82c20d2d0de4e0b5&#45;&gt;1199701acc81469bb5c4b73bb8b5cb4f -->
<g id="edge13" class="edge">
<title>c73d7994bc0a4dca82c20d2d0de4e0b5&#45;&gt;1199701acc81469bb5c4b73bb8b5cb4f</title>
<path fill="none" stroke="#666666" d="M507.14,-658C507.14,-658 611.8,-658 611.8,-658"/>
<polygon fill="#666666" stroke="#666666" points="611.8,-661.5 621.8,-658 611.8,-654.5 611.8,-661.5"/>
<text text-anchor="middle" x="564.5" y="-661.6" font-family="Sans-Serif" font-size="13.00" fill="#2d3436">creates</text>
</g>
<!-- e9d8dc49421049a9ba22da09b415e6f8 -->
<g id="node16" class="node">
<title>e9d8dc49421049a9ba22da09b415e6f8</title>
<polygon fill="#333333" stroke="transparent" points="507,-1189.5 406,-1189.5 406,-1052.5 507,-1052.5 507,-1189.5"/>
<image xlink:href="/usr/local/lib/python3.10/dist-packages/resources/programming/language/java.png" width="101px" height="101px" preserveAspectRatio="xMinYMin meet" x="406" y="-1171.5"/>
<text text-anchor="middle" x="456.5" y="-1056.3" font-family="Arial" font-size="14.00" fill="#333333">WorkflowStateManager</text>
</g>
<!-- e9d8dc49421049a9ba22da09b415e6f8&#45;&gt;c60bdf91c9bf46b6af956c50d62f991e -->
<g id="edge20" class="edge">
<title>e9d8dc49421049a9ba22da09b415e6f8&#45;&gt;c60bdf91c9bf46b6af956c50d62f991e</title>
<path fill="none" stroke="#666666" d="M507.14,-1146C507.14,-1146 611.8,-1146 611.8,-1146"/>
<polygon fill="#666666" stroke="#666666" points="611.8,-1149.5 621.8,-1146 611.8,-1142.5 611.8,-1149.5"/>
<text text-anchor="middle" x="564.5" y="-1134.6" font-family="Sans-Serif" font-size="13.00" fill="#2d3436">manages</text>
</g>
<!-- e9d8dc49421049a9ba22da09b415e6f8&#45;&gt;ae8db368d2ca460b98e8334f609fcf66 -->
<g id="edge14" class="edge">
<title>e9d8dc49421049a9ba22da09b415e6f8&#45;&gt;ae8db368d2ca460b98e8334f609fcf66</title>
<path fill="none" stroke="#666666" d="M457,-1189.64C457,-1293.09 457,-1477 457,-1477 457,-1477 611.97,-1477 611.97,-1477"/>
<polygon fill="#666666" stroke="#666666" points="611.97,-1480.5 621.97,-1477 611.97,-1473.5 611.97,-1480.5"/>
<text text-anchor="middle" x="564.5" y="-1346.6" font-family="Sans-Serif" font-size="13.00" fill="#2d3436">uses</text>
</g>
<!-- e9d8dc49421049a9ba22da09b415e6f8&#45;&gt;c73d7994bc0a4dca82c20d2d0de4e0b5 -->
<g id="edge15" class="edge">
<title>e9d8dc49421049a9ba22da09b415e6f8&#45;&gt;c73d7994bc0a4dca82c20d2d0de4e0b5</title>
<path fill="none" stroke="#666666" d="M474,-1052.18C474,-1052.18 474,-736.82 474,-736.82"/>
<polygon fill="#666666" stroke="#666666" points="477.5,-736.82 474,-726.82 470.5,-736.82 477.5,-736.82"/>
<text text-anchor="middle" x="354.5" y="-774.6" font-family="Sans-Serif" font-size="13.00" fill="#2d3436">uses</text>
</g>
<!-- 741e264be69449db9c491004905c7f11&#45;&gt;e9d8dc49421049a9ba22da09b415e6f8 -->
<g id="edge16" class="edge">
<title>741e264be69449db9c491004905c7f11&#45;&gt;e9d8dc49421049a9ba22da09b415e6f8</title>
<path fill="none" stroke="#666666" d="M303.19,-1121C303.19,-1121 395.72,-1121 395.72,-1121"/>
<polygon fill="#666666" stroke="#666666" points="395.72,-1124.5 405.72,-1121 395.72,-1117.5 395.72,-1124.5"/>
<text text-anchor="middle" x="354.5" y="-1124.6" font-family="Sans-Serif" font-size="13.00" fill="#2d3436">notifies</text>
</g>
<!-- 052254fa1d094a6a926173960b20d050 -->
<g id="node18" class="node">
<title>052254fa1d094a6a926173960b20d050</title>
<polygon fill="#333333" stroke="transparent" points="117,-1189.5 16,-1189.5 16,-1052.5 117,-1052.5 117,-1189.5"/>
<image xlink:href="/usr/local/lib/python3.10/dist-packages/resources/programming/language/java.png" width="101px" height="101px" preserveAspectRatio="xMinYMin meet" x="16" y="-1171.5"/>
<text text-anchor="middle" x="66.5" y="-1056.3" font-family="Arial" font-size="14.00" fill="#333333">WorkflowExecutionSweeper</text>
</g>
<!-- 052254fa1d094a6a926173960b20d050&#45;&gt;741e264be69449db9c491004905c7f11 -->
<g id="edge17" class="edge">
<title>052254fa1d094a6a926173960b20d050&#45;&gt;741e264be69449db9c491004905c7f11</title>
<path fill="none" stroke="#666666" d="M117.33,-1121C117.33,-1121 191.74,-1121 191.74,-1121"/>
<polygon fill="#666666" stroke="#666666" points="191.74,-1124.5 201.74,-1121 191.74,-1117.5 191.74,-1124.5"/>
<text text-anchor="middle" x="159.5" y="-1124.6" font-family="Sans-Serif" font-size="13.00" fill="#2d3436">polls</text>
</g>
<!-- aaaf7c253a494df8be8ef54fce3d4025 -->
<g id="node19" class="node">
<title>aaaf7c253a494df8be8ef54fce3d4025</title>
<polygon fill="#333333" stroke="transparent" points="303,-1006.5 202,-1006.5 202,-869.5 303,-869.5 303,-1006.5"/>
<image xlink:href="/usr/local/lib/python3.10/dist-packages/resources/programming/language/java.png" width="101px" height="101px" preserveAspectRatio="xMinYMin meet" x="202" y="-988.5"/>
<text text-anchor="middle" x="252.5" y="-873.3" font-family="Arial" font-size="14.00" fill="#333333">WorkflowInstanceAPI</text>
</g>
<!-- aaaf7c253a494df8be8ef54fce3d4025&#45;&gt;e9d8dc49421049a9ba22da09b415e6f8 -->
<g id="edge18" class="edge">
<title>aaaf7c253a494df8be8ef54fce3d4025&#45;&gt;e9d8dc49421049a9ba22da09b415e6f8</title>
<path fill="none" stroke="#666666" d="M303.24,-986.17C358.77,-986.17 440,-986.17 440,-986.17 440,-986.17 440,-1042.4 440,-1042.4"/>
<polygon fill="#666666" stroke="#666666" points="436.5,-1042.4 440,-1052.4 443.5,-1042.4 436.5,-1042.4"/>
<text text-anchor="middle" x="354.5" y="-945.6" font-family="Sans-Serif" font-size="13.00" fill="#2d3436">uses</text>
</g>
<!-- 1ba1a2a6a7284c0a954a62037f27f2cd -->
<g id="node20" class="node">
<title>1ba1a2a6a7284c0a954a62037f27f2cd</title>
<polygon fill="#333333" stroke="transparent" points="303,-826.5 202,-826.5 202,-689.5 303,-689.5 303,-826.5"/>
<image xlink:href="/usr/local/lib/python3.10/dist-packages/resources/programming/language/java.png" width="101px" height="101px" preserveAspectRatio="xMinYMin meet" x="202" y="-808.5"/>
<text text-anchor="middle" x="252.5" y="-693.3" font-family="Arial" font-size="14.00" fill="#333333">TaskManagementAPI</text>
</g>
<!-- 1ba1a2a6a7284c0a954a62037f27f2cd&#45;&gt;1199701acc81469bb5c4b73bb8b5cb4f -->
<g id="edge19" class="edge">
<title>1ba1a2a6a7284c0a954a62037f27f2cd&#45;&gt;1199701acc81469bb5c4b73bb8b5cb4f</title>
<path fill="none" stroke="#666666" d="M303.4,-744.5C410.21,-744.5 648,-744.5 648,-744.5 648,-744.5 648,-736.58 648,-736.58"/>
<polygon fill="#666666" stroke="#666666" points="651.5,-736.58 648,-726.58 644.5,-736.58 651.5,-736.58"/>
<text text-anchor="middle" x="456.5" y="-816.6" font-family="Sans-Serif" font-size="13.00" fill="#2d3436">uses</text>
</g>
</g>
</svg>
