<?xml version="1.0" encoding="UTF-8" standalone="no"?>
<!DOCTYPE svg PUBLIC "-//W3C//DTD SVG 1.1//EN"
 "http://www.w3.org/Graphics/SVG/1.1/DTD/svg11.dtd">
<!-- Generated by graphviz version 2.43.0 (0)
 -->
<!-- Title: Planning Workflow Engine &#45; Class Diagram Pages: 1 -->
<svg width="2525pt" height="1133pt"
 viewBox="0.00 0.00 2525.00 1133.00" xmlns="http://www.w3.org/2000/svg" xmlns:xlink="http://www.w3.org/1999/xlink">
<g id="graph0" class="graph" transform="scale(1 1) rotate(0) translate(36 1097)">
<title>Planning Workflow Engine &#45; Class Diagram</title>
<polygon fill="white" stroke="transparent" points="-36,36 -36,-1097 2489,-1097 2489,36 -36,36"/>
<text text-anchor="middle" x="1226.5" y="-9" font-family="Sans-Serif" font-size="15.00" fill="#333333">Planning Workflow Engine &#45; Class Diagram</text>
<g id="clust1" class="cluster">
<title>cluster_API Layer</title>
<path fill="#e5f5fd" stroke="#aeb6be" d="M1305,-879C1305,-879 1876,-879 1876,-879 1882,-879 1888,-885 1888,-891 1888,-891 1888,-1041 1888,-1041 1888,-1047 1882,-1053 1876,-1053 1876,-1053 1305,-1053 1305,-1053 1299,-1053 1293,-1047 1293,-1041 1293,-1041 1293,-891 1293,-891 1293,-885 1299,-879 1305,-879"/>
<text text-anchor="middle" x="1330" y="-1039.4" font-family="Sans-Serif" font-size="12.00" fill="#333333">API Layer</text>
</g>
<g id="clust2" class="cluster">
<title>cluster_Service Layer</title>
<path fill="#e5f5fd" stroke="#aeb6be" d="M1305,-670C1305,-670 2353,-670 2353,-670 2359,-670 2365,-676 2365,-682 2365,-682 2365,-832 2365,-832 2365,-838 2359,-844 2353,-844 2353,-844 1305,-844 1305,-844 1299,-844 1293,-838 1293,-832 1293,-832 1293,-682 1293,-682 1293,-676 1299,-670 1305,-670"/>
<text text-anchor="middle" x="1342" y="-830.4" font-family="Sans-Serif" font-size="12.00" fill="#333333">Service Layer</text>
</g>
<g id="clust3" class="cluster">
<title>cluster_Core Components</title>
<path fill="#e5f5fd" stroke="#aeb6be" d="M20,-33C20,-33 1512,-33 1512,-33 1518,-33 1524,-39 1524,-45 1524,-45 1524,-650 1524,-650 1524,-656 1518,-662 1512,-662 1512,-662 20,-662 20,-662 14,-662 8,-656 8,-650 8,-650 8,-45 8,-45 8,-39 14,-33 20,-33"/>
<text text-anchor="middle" x="70" y="-648.4" font-family="Sans-Serif" font-size="12.00" fill="#333333">Core Components</text>
</g>
<g id="clust4" class="cluster">
<title>cluster_Task Handlers</title>
<path fill="#ebf3e7" stroke="#aeb6be" d="M774,-41C774,-41 1504,-41 1504,-41 1510,-41 1516,-47 1516,-53 1516,-53 1516,-412 1516,-412 1516,-418 1510,-424 1504,-424 1504,-424 774,-424 774,-424 768,-424 762,-418 762,-412 762,-412 762,-53 762,-53 762,-47 768,-41 774,-41"/>
<text text-anchor="middle" x="811.5" y="-410.4" font-family="Sans-Serif" font-size="12.00" fill="#333333">Task Handlers</text>
</g>
<g id="clust5" class="cluster">
<title>cluster_Operator Components</title>
<path fill="#ebf3e7" stroke="#aeb6be" d="M456,-41C456,-41 709,-41 709,-41 715,-41 721,-47 721,-53 721,-53 721,-621 721,-621 721,-627 715,-633 709,-633 709,-633 456,-633 456,-633 450,-633 444,-627 444,-621 444,-621 444,-53 444,-53 444,-47 450,-41 456,-41"/>
<text text-anchor="middle" x="519.5" y="-619.4" font-family="Sans-Serif" font-size="12.00" fill="#333333">Operator Components</text>
</g>
<g id="clust6" class="cluster">
<title>cluster_Data Access Layer</title>
<path fill="#e5f5fd" stroke="#aeb6be" d="M1544,-459C1544,-459 2433,-459 2433,-459 2439,-459 2445,-465 2445,-471 2445,-471 2445,-621 2445,-621 2445,-627 2439,-633 2433,-633 2433,-633 1544,-633 1544,-633 1538,-633 1532,-627 1532,-621 1532,-621 1532,-471 1532,-471 1532,-465 1538,-459 1544,-459"/>
<text text-anchor="middle" x="1596" y="-619.4" font-family="Sans-Serif" font-size="12.00" fill="#333333">Data Access Layer</text>
</g>
<g id="clust7" class="cluster">
<title>cluster_Model Layer</title>
<path fill="#e5f5fd" stroke="#aeb6be" d="M1544,-250C1544,-250 2433,-250 2433,-250 2439,-250 2445,-256 2445,-262 2445,-262 2445,-412 2445,-412 2445,-418 2439,-424 2433,-424 2433,-424 1544,-424 1544,-424 1538,-424 1532,-418 1532,-412 1532,-412 1532,-262 1532,-262 1532,-256 1538,-250 1544,-250"/>
<text text-anchor="middle" x="1577" y="-410.4" font-family="Sans-Serif" font-size="12.00" fill="#333333">Model Layer</text>
</g>
<!-- b315718454e14c909f234613bdd09ce3 -->
<g id="node1" class="node">
<title>b315718454e14c909f234613bdd09ce3</title>
<polygon fill="#e6f7ff" stroke="transparent" points="1879.5,-1024 1778.5,-1024 1778.5,-887 1879.5,-887 1879.5,-1024"/>
<image xlink:href="/usr/local/lib/python3.10/dist-packages/resources/programming/language/java.png" width="101px" height="101px" preserveAspectRatio="xMinYMin meet" x="1778.5" y="-1006"/>
<text text-anchor="middle" x="1829" y="-890.4" font-family="Sans-Serif" font-size="12.00" fill="#333333">WorkflowDefinitionAPI</text>
</g>
<!-- eeb946cf7b6f4ceebd40ba030d275de5 -->
<g id="node5" class="node">
<title>eeb946cf7b6f4ceebd40ba030d275de5</title>
<polygon fill="#e6f7ff" stroke="transparent" points="1879.5,-815 1778.5,-815 1778.5,-678 1879.5,-678 1879.5,-815"/>
<image xlink:href="/usr/local/lib/python3.10/dist-packages/resources/programming/language/java.png" width="101px" height="101px" preserveAspectRatio="xMinYMin meet" x="1778.5" y="-797"/>
<text text-anchor="middle" x="1829" y="-681.4" font-family="Sans-Serif" font-size="12.00" fill="#333333">WorkflowDefinitionService</text>
</g>
<!-- b315718454e14c909f234613bdd09ce3&#45;&gt;eeb946cf7b6f4ceebd40ba030d275de5 -->
<g id="edge1" class="edge">
<title>b315718454e14c909f234613bdd09ce3&#45;&gt;eeb946cf7b6f4ceebd40ba030d275de5</title>
<path fill="none" stroke="#666666" d="M1829,-886.78C1829,-886.78 1829,-825.27 1829,-825.27"/>
<polygon fill="#666666" stroke="#666666" points="1832.5,-825.27 1829,-815.27 1825.5,-825.27 1832.5,-825.27"/>
</g>
<!-- 37ae0c286be941039ed6c43410af32f6 -->
<g id="node2" class="node">
<title>37ae0c286be941039ed6c43410af32f6</title>
<polygon fill="#e6f7ff" stroke="transparent" points="1720.5,-1024 1619.5,-1024 1619.5,-887 1720.5,-887 1720.5,-1024"/>
<image xlink:href="/usr/local/lib/python3.10/dist-packages/resources/programming/language/java.png" width="101px" height="101px" preserveAspectRatio="xMinYMin meet" x="1619.5" y="-1006"/>
<text text-anchor="middle" x="1670" y="-890.4" font-family="Sans-Serif" font-size="12.00" fill="#333333">WorkflowExecutionAPI</text>
</g>
<!-- 2b09ad316c0c494e875cd19ac8ff8f75 -->
<g id="node6" class="node">
<title>2b09ad316c0c494e875cd19ac8ff8f75</title>
<polygon fill="#e6f7ff" stroke="transparent" points="1720.5,-815 1619.5,-815 1619.5,-678 1720.5,-678 1720.5,-815"/>
<image xlink:href="/usr/local/lib/python3.10/dist-packages/resources/programming/language/java.png" width="101px" height="101px" preserveAspectRatio="xMinYMin meet" x="1619.5" y="-797"/>
<text text-anchor="middle" x="1670" y="-681.4" font-family="Sans-Serif" font-size="12.00" fill="#333333">WorkflowInstanceService</text>
</g>
<!-- 37ae0c286be941039ed6c43410af32f6&#45;&gt;2b09ad316c0c494e875cd19ac8ff8f75 -->
<g id="edge2" class="edge">
<title>37ae0c286be941039ed6c43410af32f6&#45;&gt;2b09ad316c0c494e875cd19ac8ff8f75</title>
<path fill="none" stroke="#666666" d="M1653.17,-886.78C1653.17,-886.78 1653.17,-825.27 1653.17,-825.27"/>
<polygon fill="#666666" stroke="#666666" points="1656.67,-825.27 1653.17,-815.27 1649.67,-825.27 1656.67,-825.27"/>
</g>
<!-- ebfd2f52708d497c9e1944451bcd00b3 -->
<g id="node10" class="node">
<title>ebfd2f52708d497c9e1944451bcd00b3</title>
<polygon fill="#e6f7ff" stroke="transparent" points="2356.5,-815 2255.5,-815 2255.5,-678 2356.5,-678 2356.5,-815"/>
<image xlink:href="/usr/local/lib/python3.10/dist-packages/resources/programming/language/java.png" width="101px" height="101px" preserveAspectRatio="xMinYMin meet" x="2255.5" y="-797"/>
<text text-anchor="middle" x="2306" y="-681.4" font-family="Sans-Serif" font-size="12.00" fill="#333333">WorkflowControlService</text>
</g>
<!-- 37ae0c286be941039ed6c43410af32f6&#45;&gt;ebfd2f52708d497c9e1944451bcd00b3 -->
<g id="edge3" class="edge">
<title>37ae0c286be941039ed6c43410af32f6&#45;&gt;ebfd2f52708d497c9e1944451bcd00b3</title>
<path fill="none" stroke="#666666" d="M1686.83,-886.82C1686.83,-873.2 1686.83,-863 1686.83,-863 1686.83,-863 2306,-863 2306,-863 2306,-863 2306,-825.28 2306,-825.28"/>
<polygon fill="#666666" stroke="#666666" points="2309.5,-825.28 2306,-815.28 2302.5,-825.28 2309.5,-825.28"/>
</g>
<!-- 53bb6d3f6ce948009995aa4381ac1ac1 -->
<g id="node3" class="node">
<title>53bb6d3f6ce948009995aa4381ac1ac1</title>
<polygon fill="#e6f7ff" stroke="transparent" points="1402.5,-1024 1301.5,-1024 1301.5,-887 1402.5,-887 1402.5,-1024"/>
<image xlink:href="/usr/local/lib/python3.10/dist-packages/resources/programming/language/java.png" width="101px" height="101px" preserveAspectRatio="xMinYMin meet" x="1301.5" y="-1006"/>
<text text-anchor="middle" x="1352" y="-890.4" font-family="Sans-Serif" font-size="12.00" fill="#333333">TaskManagementAPI</text>
</g>
<!-- cfe890b889d04da3a54dc2098b3eb2be -->
<g id="node8" class="node">
<title>cfe890b889d04da3a54dc2098b3eb2be</title>
<polygon fill="#e6f7ff" stroke="transparent" points="2197.5,-815 2096.5,-815 2096.5,-678 2197.5,-678 2197.5,-815"/>
<image xlink:href="/usr/local/lib/python3.10/dist-packages/resources/programming/language/java.png" width="101px" height="101px" preserveAspectRatio="xMinYMin meet" x="2096.5" y="-797"/>
<text text-anchor="middle" x="2147" y="-681.4" font-family="Sans-Serif" font-size="12.00" fill="#333333">TaskInstanceService</text>
</g>
<!-- 53bb6d3f6ce948009995aa4381ac1ac1&#45;&gt;cfe890b889d04da3a54dc2098b3eb2be -->
<g id="edge4" class="edge">
<title>53bb6d3f6ce948009995aa4381ac1ac1&#45;&gt;cfe890b889d04da3a54dc2098b3eb2be</title>
<path fill="none" stroke="#666666" d="M1368.83,-886.72C1368.83,-861.5 1368.83,-839 1368.83,-839 1368.83,-839 2147,-839 2147,-839 2147,-839 2147,-825.18 2147,-825.18"/>
<polygon fill="#666666" stroke="#666666" points="2150.5,-825.18 2147,-815.18 2143.5,-825.18 2150.5,-825.18"/>
</g>
<!-- 649565ec249b444b91b0ab7f2765959f -->
<g id="node9" class="node">
<title>649565ec249b444b91b0ab7f2765959f</title>
<polygon fill="#e6f7ff" stroke="transparent" points="1402.5,-815 1301.5,-815 1301.5,-678 1402.5,-678 1402.5,-815"/>
<image xlink:href="/usr/local/lib/python3.10/dist-packages/resources/programming/language/java.png" width="101px" height="101px" preserveAspectRatio="xMinYMin meet" x="1301.5" y="-797"/>
<text text-anchor="middle" x="1352" y="-681.4" font-family="Sans-Serif" font-size="12.00" fill="#333333">TaskCompletionService</text>
</g>
<!-- 53bb6d3f6ce948009995aa4381ac1ac1&#45;&gt;649565ec249b444b91b0ab7f2765959f -->
<g id="edge5" class="edge">
<title>53bb6d3f6ce948009995aa4381ac1ac1&#45;&gt;649565ec249b444b91b0ab7f2765959f</title>
<path fill="none" stroke="#666666" d="M1335.17,-886.78C1335.17,-886.78 1335.17,-825.27 1335.17,-825.27"/>
<polygon fill="#666666" stroke="#666666" points="1338.67,-825.27 1335.17,-815.27 1331.67,-825.27 1338.67,-825.27"/>
</g>
<!-- 7c44743605564650a00cd4237852f160 -->
<g id="node4" class="node">
<title>7c44743605564650a00cd4237852f160</title>
<polygon fill="#e6f7ff" stroke="transparent" points="1561.5,-1024 1460.5,-1024 1460.5,-887 1561.5,-887 1561.5,-1024"/>
<image xlink:href="/usr/local/lib/python3.10/dist-packages/resources/programming/language/java.png" width="101px" height="101px" preserveAspectRatio="xMinYMin meet" x="1460.5" y="-1006"/>
<text text-anchor="middle" x="1511" y="-890.4" font-family="Sans-Serif" font-size="12.00" fill="#333333">QueryAndReportAPI</text>
</g>
<!-- 1fd42805fe85488899d9d758d6bd22da -->
<g id="node11" class="node">
<title>1fd42805fe85488899d9d758d6bd22da</title>
<polygon fill="#e6f7ff" stroke="transparent" points="1561.5,-815 1460.5,-815 1460.5,-678 1561.5,-678 1561.5,-815"/>
<image xlink:href="/usr/local/lib/python3.10/dist-packages/resources/programming/language/java.png" width="101px" height="101px" preserveAspectRatio="xMinYMin meet" x="1460.5" y="-797"/>
<text text-anchor="middle" x="1511" y="-681.4" font-family="Sans-Serif" font-size="12.00" fill="#333333">HistoryAndAuditService</text>
</g>
<!-- 7c44743605564650a00cd4237852f160&#45;&gt;1fd42805fe85488899d9d758d6bd22da -->
<g id="edge6" class="edge">
<title>7c44743605564650a00cd4237852f160&#45;&gt;1fd42805fe85488899d9d758d6bd22da</title>
<path fill="none" stroke="#666666" d="M1511,-886.78C1511,-886.78 1511,-825.27 1511,-825.27"/>
<polygon fill="#666666" stroke="#666666" points="1514.5,-825.27 1511,-815.27 1507.5,-825.27 1514.5,-825.27"/>
</g>
<!-- e9d1eab224e24ccca4f1217e1933d8a3 -->
<g id="node26" class="node">
<title>e9d1eab224e24ccca4f1217e1933d8a3</title>
<polygon fill="#e6f7ff" stroke="transparent" points="1482.5,-604 1381.5,-604 1381.5,-467 1482.5,-467 1482.5,-604"/>
<image xlink:href="/usr/local/lib/python3.10/dist-packages/resources/programming/language/java.png" width="101px" height="101px" preserveAspectRatio="xMinYMin meet" x="1381.5" y="-586"/>
<text text-anchor="middle" x="1432" y="-470.4" font-family="Sans-Serif" font-size="12.00" fill="#333333">WorkflowJsonParser</text>
</g>
<!-- eeb946cf7b6f4ceebd40ba030d275de5&#45;&gt;e9d1eab224e24ccca4f1217e1933d8a3 -->
<g id="edge7" class="edge">
<title>eeb946cf7b6f4ceebd40ba030d275de5&#45;&gt;e9d1eab224e24ccca4f1217e1933d8a3</title>
<path fill="none" stroke="#666666" d="M1789.5,-677.7C1789.5,-648.9 1789.5,-622 1789.5,-622 1789.5,-622 1471.5,-622 1471.5,-622 1471.5,-622 1471.5,-614.08 1471.5,-614.08"/>
<polygon fill="#666666" stroke="#666666" points="1475,-614.08 1471.5,-604.08 1468,-614.08 1475,-614.08"/>
</g>
<!-- 02ba8c6ee99a4e6091f3f49fafb00afd -->
<g id="node27" class="node">
<title>02ba8c6ee99a4e6091f3f49fafb00afd</title>
<polygon fill="#e6f7ff" stroke="transparent" points="1959.5,-604 1858.5,-604 1858.5,-467 1959.5,-467 1959.5,-604"/>
<image xlink:href="/usr/local/lib/python3.10/dist-packages/resources/programming/language/java.png" width="101px" height="101px" preserveAspectRatio="xMinYMin meet" x="1858.5" y="-586"/>
<text text-anchor="middle" x="1909" y="-470.4" font-family="Sans-Serif" font-size="12.00" fill="#333333">WorkflowDefinitionDAO</text>
</g>
<!-- eeb946cf7b6f4ceebd40ba030d275de5&#45;&gt;02ba8c6ee99a4e6091f3f49fafb00afd -->
<g id="edge20" class="edge">
<title>eeb946cf7b6f4ceebd40ba030d275de5&#45;&gt;02ba8c6ee99a4e6091f3f49fafb00afd</title>
<path fill="none" stroke="#666666" d="M1869,-677.99C1869,-677.99 1869,-614.02 1869,-614.02"/>
<polygon fill="#666666" stroke="#666666" points="1872.5,-614.02 1869,-604.02 1865.5,-614.02 1872.5,-614.02"/>
</g>
<!-- b99cd8286b3b4d03873f288db1080952 -->
<g id="node19" class="node">
<title>b99cd8286b3b4d03873f288db1080952</title>
<polygon fill="#e6f7ff" stroke="transparent" points="712.5,-604 611.5,-604 611.5,-467 712.5,-467 712.5,-604"/>
<image xlink:href="/usr/local/lib/python3.10/dist-packages/resources/programming/language/java.png" width="101px" height="101px" preserveAspectRatio="xMinYMin meet" x="611.5" y="-586"/>
<text text-anchor="middle" x="662" y="-470.4" font-family="Sans-Serif" font-size="12.00" fill="#333333">OperatorManager</text>
</g>
<!-- 2b09ad316c0c494e875cd19ac8ff8f75&#45;&gt;b99cd8286b3b4d03873f288db1080952 -->
<g id="edge9" class="edge">
<title>2b09ad316c0c494e875cd19ac8ff8f75&#45;&gt;b99cd8286b3b4d03873f288db1080952</title>
<path fill="none" stroke="#666666" d="M1634.17,-677.9C1634.17,-657.75 1634.17,-641 1634.17,-641 1634.17,-641 662,-641 662,-641 662,-641 662,-614.1 662,-614.1"/>
<polygon fill="#666666" stroke="#666666" points="665.5,-614.1 662,-604.1 658.5,-614.1 665.5,-614.1"/>
</g>
<!-- d182338242fa40c5b9d1e041ba03bfc3 -->
<g id="node23" class="node">
<title>d182338242fa40c5b9d1e041ba03bfc3</title>
<polygon fill="#e6f7ff" stroke="transparent" points="117.5,-604 16.5,-604 16.5,-467 117.5,-467 117.5,-604"/>
<image xlink:href="/usr/local/lib/python3.10/dist-packages/resources/programming/language/java.png" width="101px" height="101px" preserveAspectRatio="xMinYMin meet" x="16.5" y="-586"/>
<text text-anchor="middle" x="67" y="-470.4" font-family="Sans-Serif" font-size="12.00" fill="#333333">WorkflowStateManager</text>
</g>
<!-- 2b09ad316c0c494e875cd19ac8ff8f75&#45;&gt;d182338242fa40c5b9d1e041ba03bfc3 -->
<g id="edge8" class="edge">
<title>2b09ad316c0c494e875cd19ac8ff8f75&#45;&gt;d182338242fa40c5b9d1e041ba03bfc3</title>
<path fill="none" stroke="#666666" d="M1626.83,-677.99C1626.83,-666.92 1626.83,-659 1626.83,-659 1626.83,-659 83.83,-659 83.83,-659 83.83,-659 83.83,-614.11 83.83,-614.11"/>
<polygon fill="#666666" stroke="#666666" points="87.33,-614.11 83.83,-604.11 80.33,-614.11 87.33,-614.11"/>
</g>
<!-- 3acf29c078a54f2db8b1576ad022e01e -->
<g id="node28" class="node">
<title>3acf29c078a54f2db8b1576ad022e01e</title>
<polygon fill="#e6f7ff" stroke="transparent" points="1800.5,-604 1699.5,-604 1699.5,-467 1800.5,-467 1800.5,-604"/>
<image xlink:href="/usr/local/lib/python3.10/dist-packages/resources/programming/language/java.png" width="101px" height="101px" preserveAspectRatio="xMinYMin meet" x="1699.5" y="-586"/>
<text text-anchor="middle" x="1750" y="-470.4" font-family="Sans-Serif" font-size="12.00" fill="#333333">WorkflowInstanceDAO</text>
</g>
<!-- 2b09ad316c0c494e875cd19ac8ff8f75&#45;&gt;3acf29c078a54f2db8b1576ad022e01e -->
<g id="edge21" class="edge">
<title>2b09ad316c0c494e875cd19ac8ff8f75&#45;&gt;3acf29c078a54f2db8b1576ad022e01e</title>
<path fill="none" stroke="#666666" d="M1710,-677.99C1710,-677.99 1710,-614.02 1710,-614.02"/>
<polygon fill="#666666" stroke="#666666" points="1713.5,-614.02 1710,-604.02 1706.5,-614.02 1713.5,-614.02"/>
</g>
<!-- d9fc3ff4ab664c8cb45ac778a122978f -->
<g id="node7" class="node">
<title>d9fc3ff4ab664c8cb45ac778a122978f</title>
<polygon fill="#e6f7ff" stroke="transparent" points="2038.5,-815 1937.5,-815 1937.5,-678 2038.5,-678 2038.5,-815"/>
<image xlink:href="/usr/local/lib/python3.10/dist-packages/resources/programming/language/java.png" width="101px" height="101px" preserveAspectRatio="xMinYMin meet" x="1937.5" y="-797"/>
<text text-anchor="middle" x="1988" y="-681.4" font-family="Sans-Serif" font-size="12.00" fill="#333333">WorkflowVersionService</text>
</g>
<!-- cac1ca8f669149508960eb5db174cc87 -->
<g id="node29" class="node">
<title>cac1ca8f669149508960eb5db174cc87</title>
<polygon fill="#e6f7ff" stroke="transparent" points="2118.5,-604 2017.5,-604 2017.5,-467 2118.5,-467 2118.5,-604"/>
<image xlink:href="/usr/local/lib/python3.10/dist-packages/resources/programming/language/java.png" width="101px" height="101px" preserveAspectRatio="xMinYMin meet" x="2017.5" y="-586"/>
<text text-anchor="middle" x="2068" y="-470.4" font-family="Sans-Serif" font-size="12.00" fill="#333333">TaskDefinitionDAO</text>
</g>
<!-- cfe890b889d04da3a54dc2098b3eb2be&#45;&gt;cac1ca8f669149508960eb5db174cc87 -->
<g id="edge22" class="edge">
<title>cfe890b889d04da3a54dc2098b3eb2be&#45;&gt;cac1ca8f669149508960eb5db174cc87</title>
<path fill="none" stroke="#666666" d="M2107.5,-677.99C2107.5,-677.99 2107.5,-614.02 2107.5,-614.02"/>
<polygon fill="#666666" stroke="#666666" points="2111,-614.02 2107.5,-604.02 2104,-614.02 2111,-614.02"/>
</g>
<!-- 3c623d285e2d4ec88530127f7bfcb4de -->
<g id="node30" class="node">
<title>3c623d285e2d4ec88530127f7bfcb4de</title>
<polygon fill="#e6f7ff" stroke="transparent" points="2277.5,-604 2176.5,-604 2176.5,-467 2277.5,-467 2277.5,-604"/>
<image xlink:href="/usr/local/lib/python3.10/dist-packages/resources/programming/language/java.png" width="101px" height="101px" preserveAspectRatio="xMinYMin meet" x="2176.5" y="-586"/>
<text text-anchor="middle" x="2227" y="-470.4" font-family="Sans-Serif" font-size="12.00" fill="#333333">TaskInstanceDAO</text>
</g>
<!-- cfe890b889d04da3a54dc2098b3eb2be&#45;&gt;3c623d285e2d4ec88530127f7bfcb4de -->
<g id="edge23" class="edge">
<title>cfe890b889d04da3a54dc2098b3eb2be&#45;&gt;3c623d285e2d4ec88530127f7bfcb4de</title>
<path fill="none" stroke="#666666" d="M2187,-677.99C2187,-677.99 2187,-614.02 2187,-614.02"/>
<polygon fill="#666666" stroke="#666666" points="2190.5,-614.02 2187,-604.02 2183.5,-614.02 2190.5,-614.02"/>
</g>
<!-- 649565ec249b444b91b0ab7f2765959f&#45;&gt;d182338242fa40c5b9d1e041ba03bfc3 -->
<g id="edge10" class="edge">
<title>649565ec249b444b91b0ab7f2765959f&#45;&gt;d182338242fa40c5b9d1e041ba03bfc3</title>
<path fill="none" stroke="#666666" d="M1301.37,-746C1061.4,-746 50.17,-746 50.17,-746 50.17,-746 50.17,-614.13 50.17,-614.13"/>
<polygon fill="#666666" stroke="#666666" points="53.67,-614.13 50.17,-604.13 46.67,-614.13 53.67,-614.13"/>
</g>
<!-- 3021b310ec704140999e8998327561dd -->
<g id="node31" class="node">
<title>3021b310ec704140999e8998327561dd</title>
<polygon fill="#e6f7ff" stroke="transparent" points="2436.5,-604 2335.5,-604 2335.5,-467 2436.5,-467 2436.5,-604"/>
<image xlink:href="/usr/local/lib/python3.10/dist-packages/resources/programming/language/java.png" width="101px" height="101px" preserveAspectRatio="xMinYMin meet" x="2335.5" y="-586"/>
<text text-anchor="middle" x="2386" y="-470.4" font-family="Sans-Serif" font-size="12.00" fill="#333333">WorkflowExecutionQueueDAO</text>
</g>
<!-- ebfd2f52708d497c9e1944451bcd00b3&#45;&gt;3021b310ec704140999e8998327561dd -->
<g id="edge24" class="edge">
<title>ebfd2f52708d497c9e1944451bcd00b3&#45;&gt;3021b310ec704140999e8998327561dd</title>
<path fill="none" stroke="#666666" d="M2346,-677.99C2346,-677.99 2346,-614.02 2346,-614.02"/>
<polygon fill="#666666" stroke="#666666" points="2349.5,-614.02 2346,-604.02 2342.5,-614.02 2349.5,-614.02"/>
</g>
<!-- b7c171fb06fd402ea2ce5e552a2236cc -->
<g id="node32" class="node">
<title>b7c171fb06fd402ea2ce5e552a2236cc</title>
<polygon fill="#e6f7ff" stroke="transparent" points="1641.5,-604 1540.5,-604 1540.5,-467 1641.5,-467 1641.5,-604"/>
<image xlink:href="/usr/local/lib/python3.10/dist-packages/resources/programming/language/java.png" width="101px" height="101px" preserveAspectRatio="xMinYMin meet" x="1540.5" y="-586"/>
<text text-anchor="middle" x="1591" y="-470.4" font-family="Sans-Serif" font-size="12.00" fill="#333333">WorkflowHistoryDAO</text>
</g>
<!-- 1fd42805fe85488899d9d758d6bd22da&#45;&gt;b7c171fb06fd402ea2ce5e552a2236cc -->
<g id="edge25" class="edge">
<title>1fd42805fe85488899d9d758d6bd22da&#45;&gt;b7c171fb06fd402ea2ce5e552a2236cc</title>
<path fill="none" stroke="#666666" d="M1551,-677.99C1551,-677.99 1551,-614.02 1551,-614.02"/>
<polygon fill="#666666" stroke="#666666" points="1554.5,-614.02 1551,-604.02 1547.5,-614.02 1554.5,-614.02"/>
</g>
<!-- 2f7b749b28b54709a3999faf1183e61b -->
<g id="node12" class="node">
<title>2f7b749b28b54709a3999faf1183e61b</title>
<polygon fill="#e6f7ff" stroke="transparent" points="1189.5,-395 1088.5,-395 1088.5,-258 1189.5,-258 1189.5,-395"/>
<image xlink:href="/usr/local/lib/python3.10/dist-packages/resources/programming/language/java.png" width="101px" height="101px" preserveAspectRatio="xMinYMin meet" x="1088.5" y="-377"/>
<text text-anchor="middle" x="1139" y="-261.4" font-family="Sans-Serif" font-size="12.00" fill="#333333">TaskHandler (abstract)</text>
</g>
<!-- 6e074ded730944e1b7fa462ac13fb20b -->
<g id="node13" class="node">
<title>6e074ded730944e1b7fa462ac13fb20b</title>
<polygon fill="#e6f7ff" stroke="transparent" points="1507.5,-186 1406.5,-186 1406.5,-49 1507.5,-49 1507.5,-186"/>
<image xlink:href="/usr/local/lib/python3.10/dist-packages/resources/programming/language/java.png" width="101px" height="101px" preserveAspectRatio="xMinYMin meet" x="1406.5" y="-168"/>
<text text-anchor="middle" x="1457" y="-52.4" font-family="Sans-Serif" font-size="12.00" fill="#333333">ToDoTaskHandler</text>
</g>
<!-- 2f7b749b28b54709a3999faf1183e61b&#45;&gt;6e074ded730944e1b7fa462ac13fb20b -->
<g id="edge14" class="edge">
<title>2f7b749b28b54709a3999faf1183e61b&#45;&gt;6e074ded730944e1b7fa462ac13fb20b</title>
<path fill="none" stroke="#666666" d="M1189.79,-349C1276.66,-349 1444.5,-349 1444.5,-349 1444.5,-349 1444.5,-196.02 1444.5,-196.02"/>
<polygon fill="#666666" stroke="#666666" points="1448,-196.02 1444.5,-186.02 1441,-196.02 1448,-196.02"/>
</g>
<!-- 36d9427edfc247508c8b006fbe6f753a -->
<g id="node14" class="node">
<title>36d9427edfc247508c8b006fbe6f753a</title>
<polygon fill="#e6f7ff" stroke="transparent" points="871.5,-186 770.5,-186 770.5,-49 871.5,-49 871.5,-186"/>
<image xlink:href="/usr/local/lib/python3.10/dist-packages/resources/programming/language/java.png" width="101px" height="101px" preserveAspectRatio="xMinYMin meet" x="770.5" y="-168"/>
<text text-anchor="middle" x="821" y="-52.4" font-family="Sans-Serif" font-size="12.00" fill="#333333">SubmitTaskHandler</text>
</g>
<!-- 2f7b749b28b54709a3999faf1183e61b&#45;&gt;36d9427edfc247508c8b006fbe6f753a -->
<g id="edge15" class="edge">
<title>2f7b749b28b54709a3999faf1183e61b&#45;&gt;36d9427edfc247508c8b006fbe6f753a</title>
<path fill="none" stroke="#666666" d="M1088.26,-349C998.48,-349 821,-349 821,-349 821,-349 821,-196.02 821,-196.02"/>
<polygon fill="#666666" stroke="#666666" points="824.5,-196.02 821,-186.02 817.5,-196.02 824.5,-196.02"/>
</g>
<!-- 65e24d619d3544589c066252def571bf -->
<g id="node15" class="node">
<title>65e24d619d3544589c066252def571bf</title>
<polygon fill="#e6f7ff" stroke="transparent" points="1030.5,-186 929.5,-186 929.5,-49 1030.5,-49 1030.5,-186"/>
<image xlink:href="/usr/local/lib/python3.10/dist-packages/resources/programming/language/java.png" width="101px" height="101px" preserveAspectRatio="xMinYMin meet" x="929.5" y="-168"/>
<text text-anchor="middle" x="980" y="-52.4" font-family="Sans-Serif" font-size="12.00" fill="#333333">ApproveTaskHandler</text>
</g>
<!-- 2f7b749b28b54709a3999faf1183e61b&#45;&gt;65e24d619d3544589c066252def571bf -->
<g id="edge16" class="edge">
<title>2f7b749b28b54709a3999faf1183e61b&#45;&gt;65e24d619d3544589c066252def571bf</title>
<path fill="none" stroke="#666666" d="M1088.25,-303C1041.72,-303 980,-303 980,-303 980,-303 980,-196.05 980,-196.05"/>
<polygon fill="#666666" stroke="#666666" points="983.5,-196.05 980,-186.05 976.5,-196.05 983.5,-196.05"/>
</g>
<!-- acb0f75d4daf4c7ba1f6614ad4d0c568 -->
<g id="node16" class="node">
<title>acb0f75d4daf4c7ba1f6614ad4d0c568</title>
<polygon fill="#e6f7ff" stroke="transparent" points="1189.5,-186 1088.5,-186 1088.5,-49 1189.5,-49 1189.5,-186"/>
<image xlink:href="/usr/local/lib/python3.10/dist-packages/resources/programming/language/java.png" width="101px" height="101px" preserveAspectRatio="xMinYMin meet" x="1088.5" y="-168"/>
<text text-anchor="middle" x="1139" y="-52.4" font-family="Sans-Serif" font-size="12.00" fill="#333333">ReviewTaskHandler</text>
</g>
<!-- 2f7b749b28b54709a3999faf1183e61b&#45;&gt;acb0f75d4daf4c7ba1f6614ad4d0c568 -->
<g id="edge17" class="edge">
<title>2f7b749b28b54709a3999faf1183e61b&#45;&gt;acb0f75d4daf4c7ba1f6614ad4d0c568</title>
<path fill="none" stroke="#666666" d="M1139,-257.78C1139,-257.78 1139,-196.27 1139,-196.27"/>
<polygon fill="#666666" stroke="#666666" points="1142.5,-196.27 1139,-186.27 1135.5,-196.27 1142.5,-196.27"/>
</g>
<!-- 2aafe498bfb9478fadf2a32256541961 -->
<g id="node17" class="node">
<title>2aafe498bfb9478fadf2a32256541961</title>
<polygon fill="#e6f7ff" stroke="transparent" points="1348.5,-186 1247.5,-186 1247.5,-49 1348.5,-49 1348.5,-186"/>
<image xlink:href="/usr/local/lib/python3.10/dist-packages/resources/programming/language/java.png" width="101px" height="101px" preserveAspectRatio="xMinYMin meet" x="1247.5" y="-168"/>
<text text-anchor="middle" x="1298" y="-52.4" font-family="Sans-Serif" font-size="12.00" fill="#333333">HttpTaskHandler</text>
</g>
<!-- 2f7b749b28b54709a3999faf1183e61b&#45;&gt;2aafe498bfb9478fadf2a32256541961 -->
<g id="edge18" class="edge">
<title>2f7b749b28b54709a3999faf1183e61b&#45;&gt;2aafe498bfb9478fadf2a32256541961</title>
<path fill="none" stroke="#666666" d="M1189.84,-303C1228.29,-303 1274.5,-303 1274.5,-303 1274.5,-303 1274.5,-196.05 1274.5,-196.05"/>
<polygon fill="#666666" stroke="#666666" points="1278,-196.05 1274.5,-186.05 1271,-196.05 1278,-196.05"/>
</g>
<!-- afbbcbb1dbbf4e188eaa5542bc857ab6 -->
<g id="node18" class="node">
<title>afbbcbb1dbbf4e188eaa5542bc857ab6</title>
<polygon fill="#e6f7ff" stroke="transparent" points="1189.5,-604 1088.5,-604 1088.5,-467 1189.5,-467 1189.5,-604"/>
<image xlink:href="/usr/local/lib/python3.10/dist-packages/resources/programming/language/java.png" width="101px" height="101px" preserveAspectRatio="xMinYMin meet" x="1088.5" y="-586"/>
<text text-anchor="middle" x="1139" y="-470.4" font-family="Sans-Serif" font-size="12.00" fill="#333333">TaskHandlerRegistry</text>
</g>
<!-- afbbcbb1dbbf4e188eaa5542bc857ab6&#45;&gt;2f7b749b28b54709a3999faf1183e61b -->
<g id="edge19" class="edge">
<title>afbbcbb1dbbf4e188eaa5542bc857ab6&#45;&gt;2f7b749b28b54709a3999faf1183e61b</title>
<path fill="none" stroke="#666666" d="M1139,-466.78C1139,-466.78 1139,-405.27 1139,-405.27"/>
<polygon fill="#666666" stroke="#666666" points="1142.5,-405.27 1139,-395.27 1135.5,-405.27 1142.5,-405.27"/>
</g>
<!-- 071b7cccf9ea4b86bc5ebc6cd76aa018 -->
<g id="node20" class="node">
<title>071b7cccf9ea4b86bc5ebc6cd76aa018</title>
<polygon fill="#e6f7ff" stroke="transparent" points="712.5,-395 611.5,-395 611.5,-258 712.5,-258 712.5,-395"/>
<image xlink:href="/usr/local/lib/python3.10/dist-packages/resources/programming/language/java.png" width="101px" height="101px" preserveAspectRatio="xMinYMin meet" x="611.5" y="-377"/>
<text text-anchor="middle" x="662" y="-261.4" font-family="Sans-Serif" font-size="12.00" fill="#333333">Operator (interface)</text>
</g>
<!-- b99cd8286b3b4d03873f288db1080952&#45;&gt;071b7cccf9ea4b86bc5ebc6cd76aa018 -->
<g id="edge11" class="edge">
<title>b99cd8286b3b4d03873f288db1080952&#45;&gt;071b7cccf9ea4b86bc5ebc6cd76aa018</title>
<path fill="none" stroke="#666666" d="M662,-466.78C662,-466.78 662,-405.27 662,-405.27"/>
<polygon fill="#666666" stroke="#666666" points="665.5,-405.27 662,-395.27 658.5,-405.27 665.5,-405.27"/>
</g>
<!-- b4bb29682139458190a44905993ad92d -->
<g id="node21" class="node">
<title>b4bb29682139458190a44905993ad92d</title>
<polygon fill="#e6f7ff" stroke="transparent" points="553.5,-186 452.5,-186 452.5,-49 553.5,-49 553.5,-186"/>
<image xlink:href="/usr/local/lib/python3.10/dist-packages/resources/programming/language/java.png" width="101px" height="101px" preserveAspectRatio="xMinYMin meet" x="452.5" y="-168"/>
<text text-anchor="middle" x="503" y="-52.4" font-family="Sans-Serif" font-size="12.00" fill="#333333">SequenceOperator</text>
</g>
<!-- 071b7cccf9ea4b86bc5ebc6cd76aa018&#45;&gt;b4bb29682139458190a44905993ad92d -->
<g id="edge12" class="edge">
<title>071b7cccf9ea4b86bc5ebc6cd76aa018&#45;&gt;b4bb29682139458190a44905993ad92d</title>
<path fill="none" stroke="#666666" d="M611.25,-326C564.72,-326 503,-326 503,-326 503,-326 503,-196.06 503,-196.06"/>
<polygon fill="#666666" stroke="#666666" points="506.5,-196.06 503,-186.06 499.5,-196.06 506.5,-196.06"/>
</g>
<!-- f3ec8d89f8d449fa912821365371ce8b -->
<g id="node22" class="node">
<title>f3ec8d89f8d449fa912821365371ce8b</title>
<polygon fill="#e6f7ff" stroke="transparent" points="712.5,-186 611.5,-186 611.5,-49 712.5,-49 712.5,-186"/>
<image xlink:href="/usr/local/lib/python3.10/dist-packages/resources/programming/language/java.png" width="101px" height="101px" preserveAspectRatio="xMinYMin meet" x="611.5" y="-168"/>
<text text-anchor="middle" x="662" y="-52.4" font-family="Sans-Serif" font-size="12.00" fill="#333333">DynamicForkOperator</text>
</g>
<!-- 071b7cccf9ea4b86bc5ebc6cd76aa018&#45;&gt;f3ec8d89f8d449fa912821365371ce8b -->
<g id="edge13" class="edge">
<title>071b7cccf9ea4b86bc5ebc6cd76aa018&#45;&gt;f3ec8d89f8d449fa912821365371ce8b</title>
<path fill="none" stroke="#666666" d="M662,-257.78C662,-257.78 662,-196.27 662,-196.27"/>
<polygon fill="#666666" stroke="#666666" points="665.5,-196.27 662,-186.27 658.5,-196.27 665.5,-196.27"/>
</g>
<!-- e2d1d91ee04a41389d827c158645e8ea -->
<g id="node24" class="node">
<title>e2d1d91ee04a41389d827c158645e8ea</title>
<polygon fill="#e6f7ff" stroke="transparent" points="435.5,-604 334.5,-604 334.5,-467 435.5,-467 435.5,-604"/>
<image xlink:href="/usr/local/lib/python3.10/dist-packages/resources/programming/language/java.png" width="101px" height="101px" preserveAspectRatio="xMinYMin meet" x="334.5" y="-586"/>
<text text-anchor="middle" x="385" y="-470.4" font-family="Sans-Serif" font-size="12.00" fill="#333333">ExecutionQueuingInterceptor</text>
</g>
<!-- 0b3fcfef91e54d9da7dde8a3770400c0 -->
<g id="node25" class="node">
<title>0b3fcfef91e54d9da7dde8a3770400c0</title>
<polygon fill="#e6f7ff" stroke="transparent" points="276.5,-604 175.5,-604 175.5,-467 276.5,-467 276.5,-604"/>
<image xlink:href="/usr/local/lib/python3.10/dist-packages/resources/programming/language/java.png" width="101px" height="101px" preserveAspectRatio="xMinYMin meet" x="175.5" y="-586"/>
<text text-anchor="middle" x="226" y="-470.4" font-family="Sans-Serif" font-size="12.00" fill="#333333">WorkflowExecutionSweeper</text>
</g>
<!-- 79d8351899584c5788315ef758b2d740 -->
<g id="node33" class="node">
<title>79d8351899584c5788315ef758b2d740</title>
<polygon fill="#e6f7ff" stroke="transparent" points="1959.5,-395 1858.5,-395 1858.5,-258 1959.5,-258 1959.5,-395"/>
<image xlink:href="/usr/local/lib/python3.10/dist-packages/resources/programming/language/java.png" width="101px" height="101px" preserveAspectRatio="xMinYMin meet" x="1858.5" y="-377"/>
<text text-anchor="middle" x="1909" y="-261.4" font-family="Sans-Serif" font-size="12.00" fill="#333333">WorkflowDefinition</text>
</g>
<!-- 02ba8c6ee99a4e6091f3f49fafb00afd&#45;&gt;79d8351899584c5788315ef758b2d740 -->
<g id="edge26" class="edge">
<title>02ba8c6ee99a4e6091f3f49fafb00afd&#45;&gt;79d8351899584c5788315ef758b2d740</title>
<path fill="none" stroke="#666666" d="M1909,-466.78C1909,-466.78 1909,-405.27 1909,-405.27"/>
<polygon fill="#666666" stroke="#666666" points="1912.5,-405.27 1909,-395.27 1905.5,-405.27 1912.5,-405.27"/>
</g>
<!-- 4a95e0708108483094934ba2de4f605e -->
<g id="node34" class="node">
<title>4a95e0708108483094934ba2de4f605e</title>
<polygon fill="#e6f7ff" stroke="transparent" points="1800.5,-395 1699.5,-395 1699.5,-258 1800.5,-258 1800.5,-395"/>
<image xlink:href="/usr/local/lib/python3.10/dist-packages/resources/programming/language/java.png" width="101px" height="101px" preserveAspectRatio="xMinYMin meet" x="1699.5" y="-377"/>
<text text-anchor="middle" x="1750" y="-261.4" font-family="Sans-Serif" font-size="12.00" fill="#333333">WorkflowInstance</text>
</g>
<!-- 3acf29c078a54f2db8b1576ad022e01e&#45;&gt;4a95e0708108483094934ba2de4f605e -->
<g id="edge27" class="edge">
<title>3acf29c078a54f2db8b1576ad022e01e&#45;&gt;4a95e0708108483094934ba2de4f605e</title>
<path fill="none" stroke="#666666" d="M1750,-466.78C1750,-466.78 1750,-405.27 1750,-405.27"/>
<polygon fill="#666666" stroke="#666666" points="1753.5,-405.27 1750,-395.27 1746.5,-405.27 1753.5,-405.27"/>
</g>
<!-- b0e884db8cc949e3ba94601ad2f2073e -->
<g id="node35" class="node">
<title>b0e884db8cc949e3ba94601ad2f2073e</title>
<polygon fill="#e6f7ff" stroke="transparent" points="2118.5,-395 2017.5,-395 2017.5,-258 2118.5,-258 2118.5,-395"/>
<image xlink:href="/usr/local/lib/python3.10/dist-packages/resources/programming/language/java.png" width="101px" height="101px" preserveAspectRatio="xMinYMin meet" x="2017.5" y="-377"/>
<text text-anchor="middle" x="2068" y="-261.4" font-family="Sans-Serif" font-size="12.00" fill="#333333">TaskDefinition</text>
</g>
<!-- cac1ca8f669149508960eb5db174cc87&#45;&gt;b0e884db8cc949e3ba94601ad2f2073e -->
<g id="edge28" class="edge">
<title>cac1ca8f669149508960eb5db174cc87&#45;&gt;b0e884db8cc949e3ba94601ad2f2073e</title>
<path fill="none" stroke="#666666" d="M2068,-466.78C2068,-466.78 2068,-405.27 2068,-405.27"/>
<polygon fill="#666666" stroke="#666666" points="2071.5,-405.27 2068,-395.27 2064.5,-405.27 2071.5,-405.27"/>
</g>
<!-- ca6c16af567849679628f212057b7819 -->
<g id="node36" class="node">
<title>ca6c16af567849679628f212057b7819</title>
<polygon fill="#e6f7ff" stroke="transparent" points="2277.5,-395 2176.5,-395 2176.5,-258 2277.5,-258 2277.5,-395"/>
<image xlink:href="/usr/local/lib/python3.10/dist-packages/resources/programming/language/java.png" width="101px" height="101px" preserveAspectRatio="xMinYMin meet" x="2176.5" y="-377"/>
<text text-anchor="middle" x="2227" y="-261.4" font-family="Sans-Serif" font-size="12.00" fill="#333333">TaskInstance</text>
</g>
<!-- 3c623d285e2d4ec88530127f7bfcb4de&#45;&gt;ca6c16af567849679628f212057b7819 -->
<g id="edge29" class="edge">
<title>3c623d285e2d4ec88530127f7bfcb4de&#45;&gt;ca6c16af567849679628f212057b7819</title>
<path fill="none" stroke="#666666" d="M2227,-466.78C2227,-466.78 2227,-405.27 2227,-405.27"/>
<polygon fill="#666666" stroke="#666666" points="2230.5,-405.27 2227,-395.27 2223.5,-405.27 2230.5,-405.27"/>
</g>
<!-- 64dc5be6cd964f769fe26da319c81eb7 -->
<g id="node37" class="node">
<title>64dc5be6cd964f769fe26da319c81eb7</title>
<polygon fill="#e6f7ff" stroke="transparent" points="2436.5,-395 2335.5,-395 2335.5,-258 2436.5,-258 2436.5,-395"/>
<image xlink:href="/usr/local/lib/python3.10/dist-packages/resources/programming/language/java.png" width="101px" height="101px" preserveAspectRatio="xMinYMin meet" x="2335.5" y="-377"/>
<text text-anchor="middle" x="2386" y="-261.4" font-family="Sans-Serif" font-size="12.00" fill="#333333">WorkflowExecutionQueue</text>
</g>
<!-- 3021b310ec704140999e8998327561dd&#45;&gt;64dc5be6cd964f769fe26da319c81eb7 -->
<g id="edge30" class="edge">
<title>3021b310ec704140999e8998327561dd&#45;&gt;64dc5be6cd964f769fe26da319c81eb7</title>
<path fill="none" stroke="#666666" d="M2386,-466.78C2386,-466.78 2386,-405.27 2386,-405.27"/>
<polygon fill="#666666" stroke="#666666" points="2389.5,-405.27 2386,-395.27 2382.5,-405.27 2389.5,-405.27"/>
</g>
<!-- 7d5cca4a16604ad4990484ba984ab885 -->
<g id="node38" class="node">
<title>7d5cca4a16604ad4990484ba984ab885</title>
<polygon fill="#e6f7ff" stroke="transparent" points="1641.5,-395 1540.5,-395 1540.5,-258 1641.5,-258 1641.5,-395"/>
<image xlink:href="/usr/local/lib/python3.10/dist-packages/resources/programming/language/java.png" width="101px" height="101px" preserveAspectRatio="xMinYMin meet" x="1540.5" y="-377"/>
<text text-anchor="middle" x="1591" y="-261.4" font-family="Sans-Serif" font-size="12.00" fill="#333333">WorkflowHistory</text>
</g>
<!-- b7c171fb06fd402ea2ce5e552a2236cc&#45;&gt;7d5cca4a16604ad4990484ba984ab885 -->
<g id="edge31" class="edge">
<title>b7c171fb06fd402ea2ce5e552a2236cc&#45;&gt;7d5cca4a16604ad4990484ba984ab885</title>
<path fill="none" stroke="#666666" d="M1591,-466.78C1591,-466.78 1591,-405.27 1591,-405.27"/>
<polygon fill="#666666" stroke="#666666" points="1594.5,-405.27 1591,-395.27 1587.5,-405.27 1594.5,-405.27"/>
</g>
<!-- 1a3888a3f9ba4489a03ad0fec80d05bb -->
<g id="node39" class="node">
<title>1a3888a3f9ba4489a03ad0fec80d05bb</title>
<polygon fill="#e6f7ff" stroke="transparent" points="2038.5,-186 1937.5,-186 1937.5,-49 2038.5,-49 2038.5,-186"/>
<image xlink:href="/usr/local/lib/python3.10/dist-packages/resources/onprem/database/postgresql.png" width="101px" height="101px" preserveAspectRatio="xMinYMin meet" x="1937.5" y="-168"/>
<text text-anchor="middle" x="1988" y="-52.4" font-family="Sans-Serif" font-size="12.00" fill="#333333">PostgreSQL Database</text>
</g>
<!-- 79d8351899584c5788315ef758b2d740&#45;&gt;1a3888a3f9ba4489a03ad0fec80d05bb -->
<g id="edge32" class="edge">
<title>79d8351899584c5788315ef758b2d740&#45;&gt;1a3888a3f9ba4489a03ad0fec80d05bb</title>
<path fill="none" stroke="#666666" d="M1948.5,-257.78C1948.5,-257.78 1948.5,-196.27 1948.5,-196.27"/>
<polygon fill="#666666" stroke="#666666" points="1952,-196.27 1948.5,-186.27 1945,-196.27 1952,-196.27"/>
</g>
<!-- 4a95e0708108483094934ba2de4f605e&#45;&gt;1a3888a3f9ba4489a03ad0fec80d05bb -->
<g id="edge33" class="edge">
<title>4a95e0708108483094934ba2de4f605e&#45;&gt;1a3888a3f9ba4489a03ad0fec80d05bb</title>
<path fill="none" stroke="#666666" d="M1750,-257.85C1750,-204.67 1750,-140 1750,-140 1750,-140 1927.23,-140 1927.23,-140"/>
<polygon fill="#666666" stroke="#666666" points="1927.23,-143.5 1937.23,-140 1927.23,-136.5 1927.23,-143.5"/>
</g>
<!-- b0e884db8cc949e3ba94601ad2f2073e&#45;&gt;1a3888a3f9ba4489a03ad0fec80d05bb -->
<g id="edge34" class="edge">
<title>b0e884db8cc949e3ba94601ad2f2073e&#45;&gt;1a3888a3f9ba4489a03ad0fec80d05bb</title>
<path fill="none" stroke="#666666" d="M2028,-257.78C2028,-257.78 2028,-196.27 2028,-196.27"/>
<polygon fill="#666666" stroke="#666666" points="2031.5,-196.27 2028,-186.27 2024.5,-196.27 2031.5,-196.27"/>
</g>
<!-- ca6c16af567849679628f212057b7819&#45;&gt;1a3888a3f9ba4489a03ad0fec80d05bb -->
<g id="edge35" class="edge">
<title>ca6c16af567849679628f212057b7819&#45;&gt;1a3888a3f9ba4489a03ad0fec80d05bb</title>
<path fill="none" stroke="#666666" d="M2227,-257.85C2227,-204.67 2227,-140 2227,-140 2227,-140 2048.69,-140 2048.69,-140"/>
<polygon fill="#666666" stroke="#666666" points="2048.69,-136.5 2038.69,-140 2048.69,-143.5 2048.69,-136.5"/>
</g>
<!-- 64dc5be6cd964f769fe26da319c81eb7&#45;&gt;1a3888a3f9ba4489a03ad0fec80d05bb -->
<g id="edge36" class="edge">
<title>64dc5be6cd964f769fe26da319c81eb7&#45;&gt;1a3888a3f9ba4489a03ad0fec80d05bb</title>
<path fill="none" stroke="#666666" d="M2386,-258C2386,-189.42 2386,-94 2386,-94 2386,-94 2048.81,-94 2048.81,-94"/>
<polygon fill="#666666" stroke="#666666" points="2048.81,-90.5 2038.81,-94 2048.81,-97.5 2048.81,-90.5"/>
</g>
<!-- 7d5cca4a16604ad4990484ba984ab885&#45;&gt;1a3888a3f9ba4489a03ad0fec80d05bb -->
<g id="edge37" class="edge">
<title>7d5cca4a16604ad4990484ba984ab885&#45;&gt;1a3888a3f9ba4489a03ad0fec80d05bb</title>
<path fill="none" stroke="#666666" d="M1591,-258C1591,-189.42 1591,-94 1591,-94 1591,-94 1927.32,-94 1927.32,-94"/>
<polygon fill="#666666" stroke="#666666" points="1927.32,-97.5 1937.32,-94 1927.32,-90.5 1927.32,-97.5"/>
</g>
</g>
</svg>
