<?xml version="1.0" encoding="UTF-8" standalone="no"?>
<!DOCTYPE svg PUBLIC "-//W3C//DTD SVG 1.1//EN"
 "http://www.w3.org/Graphics/SVG/1.1/DTD/svg11.dtd">
<!-- Generated by graphviz version 2.43.0 (0)
 -->
<!-- Title: Workflow Engine Database ERD Pages: 1 -->
<svg width="561pt" height="569pt"
 viewBox="0.00 0.00 561.00 569.00" xmlns="http://www.w3.org/2000/svg" xmlns:xlink="http://www.w3.org/1999/xlink">
<g id="graph0" class="graph" transform="scale(1 1) rotate(0) translate(36 533)">
<title>Workflow Engine Database ERD</title>
<polygon fill="white" stroke="transparent" points="-36,36 -36,-533 525,-533 525,36 -36,36"/>
<text text-anchor="middle" x="244.5" y="-9.2" font-family="Arial" font-size="16.00" fill="#333333">Workflow Engine Database ERD</text>
<g id="clust1" class="cluster">
<title>cluster_Database Schema</title>
<path fill="#ffffe6" stroke="#aeb6be" d="M20,-34C20,-34 469,-34 469,-34 475,-34 481,-40 481,-46 481,-46 481,-477 481,-477 481,-483 475,-489 469,-489 469,-489 20,-489 20,-489 14,-489 8,-483 8,-477 8,-477 8,-46 8,-46 8,-40 14,-34 20,-34"/>
<text text-anchor="middle" x="71" y="-475.4" font-family="Sans-Serif" font-size="12.00" fill="#333333">Database Schema</text>
</g>
<!-- 339c36833a644c46a00206f2a2badeae -->
<g id="node1" class="node">
<title>339c36833a644c46a00206f2a2badeae</title>
<polygon fill="#333333" stroke="transparent" points="117,-359.5 16,-359.5 16,-222.5 117,-222.5 117,-359.5"/>
<image xlink:href="/usr/local/lib/python3.10/dist-packages/resources/aws/database/rds.png" width="101px" height="101px" preserveAspectRatio="xMinYMin meet" x="16" y="-341.5"/>
<text text-anchor="middle" x="66.5" y="-226.3" font-family="Arial" font-size="14.00" fill="#333333">workflow_instance</text>
</g>
<!-- 08fa8ba4df2c4e13bab77ac2bf65fcba -->
<g id="node2" class="node">
<title>08fa8ba4df2c4e13bab77ac2bf65fcba</title>
<polygon fill="#333333" stroke="transparent" points="295,-179.5 194,-179.5 194,-42.5 295,-42.5 295,-179.5"/>
<image xlink:href="/usr/local/lib/python3.10/dist-packages/resources/aws/database/rds.png" width="101px" height="101px" preserveAspectRatio="xMinYMin meet" x="194" y="-161.5"/>
<text text-anchor="middle" x="244.5" y="-46.3" font-family="Arial" font-size="14.00" fill="#333333">task_instance</text>
</g>
<!-- 339c36833a644c46a00206f2a2badeae&#45;&gt;08fa8ba4df2c4e13bab77ac2bf65fcba -->
<g id="edge1" class="edge">
<title>339c36833a644c46a00206f2a2badeae&#45;&gt;08fa8ba4df2c4e13bab77ac2bf65fcba</title>
<path fill="none" stroke="#666666" d="M84,-212.44C84,-212.44 84,-111 84,-111 84,-111 183.72,-111 183.72,-111"/>
<polygon fill="#666666" stroke="#666666" points="80.5,-212.44 84,-222.44 87.5,-212.44 80.5,-212.44"/>
<polygon fill="#666666" stroke="#666666" points="183.72,-114.5 193.72,-111 183.72,-107.5 183.72,-114.5"/>
<text text-anchor="middle" x="155.5" y="-173.6" font-family="Sans-Serif" font-size="13.00" fill="#2d3436">1:N</text>
</g>
<!-- f6fb605b93e148faac1eeb79ce9b79a5 -->
<g id="node3" class="node">
<title>f6fb605b93e148faac1eeb79ce9b79a5</title>
<polygon fill="#333333" stroke="transparent" points="295,-359.5 194,-359.5 194,-222.5 295,-222.5 295,-359.5"/>
<image xlink:href="/usr/local/lib/python3.10/dist-packages/resources/aws/database/rds.png" width="101px" height="101px" preserveAspectRatio="xMinYMin meet" x="194" y="-341.5"/>
<text text-anchor="middle" x="244.5" y="-226.3" font-family="Arial" font-size="14.00" fill="#333333">workflow_execution_queue</text>
</g>
<!-- 339c36833a644c46a00206f2a2badeae&#45;&gt;f6fb605b93e148faac1eeb79ce9b79a5 -->
<g id="edge2" class="edge">
<title>339c36833a644c46a00206f2a2badeae&#45;&gt;f6fb605b93e148faac1eeb79ce9b79a5</title>
<path fill="none" stroke="#666666" d="M127.03,-291C127.03,-291 183.84,-291 183.84,-291"/>
<polygon fill="#666666" stroke="#666666" points="183.84,-294.5 193.84,-291 183.84,-287.5 183.84,-294.5"/>
<polygon fill="#666666" stroke="#666666" points="127.03,-287.5 117.03,-291 127.03,-294.5 127.03,-287.5"/>
<text text-anchor="middle" x="155.5" y="-294.6" font-family="Sans-Serif" font-size="13.00" fill="#2d3436">1:N</text>
</g>
<!-- 654b4ae5a08047beab1da393a1604eea -->
<g id="node4" class="node">
<title>654b4ae5a08047beab1da393a1604eea</title>
<polygon fill="#333333" stroke="transparent" points="473,-319.5 372,-319.5 372,-182.5 473,-182.5 473,-319.5"/>
<image xlink:href="/usr/local/lib/python3.10/dist-packages/resources/aws/database/rds.png" width="101px" height="101px" preserveAspectRatio="xMinYMin meet" x="372" y="-301.5"/>
<text text-anchor="middle" x="422.5" y="-186.3" font-family="Arial" font-size="14.00" fill="#333333">workflow_history</text>
</g>
<!-- 339c36833a644c46a00206f2a2badeae&#45;&gt;654b4ae5a08047beab1da393a1604eea -->
<g id="edge3" class="edge">
<title>339c36833a644c46a00206f2a2badeae&#45;&gt;654b4ae5a08047beab1da393a1604eea</title>
<path fill="none" stroke="#666666" d="M50,-212.31C50,-212.31 50,-209.17 50,-209.17 50,-209.17 361.88,-209.17 361.88,-209.17"/>
<polygon fill="#666666" stroke="#666666" points="46.5,-212.31 50,-222.31 53.5,-212.31 46.5,-212.31"/>
<polygon fill="#666666" stroke="#666666" points="361.88,-212.67 371.88,-209.17 361.88,-205.67 361.88,-212.67"/>
<text text-anchor="middle" x="244.5" y="-449.6" font-family="Sans-Serif" font-size="13.00" fill="#2d3436">1:N</text>
</g>
<!-- 08fa8ba4df2c4e13bab77ac2bf65fcba&#45;&gt;654b4ae5a08047beab1da393a1604eea -->
<g id="edge4" class="edge">
<title>08fa8ba4df2c4e13bab77ac2bf65fcba&#45;&gt;654b4ae5a08047beab1da393a1604eea</title>
<path fill="none" stroke="#666666" d="M245,-189.88C245,-189.88 245,-195.83 245,-195.83 245,-195.83 361.64,-195.83 361.64,-195.83"/>
<polygon fill="#666666" stroke="#666666" points="248.5,-189.88 245,-179.88 241.5,-189.88 248.5,-189.88"/>
<polygon fill="#666666" stroke="#666666" points="361.64,-199.33 371.64,-195.83 361.64,-192.33 361.64,-199.33"/>
<text text-anchor="middle" x="333.5" y="-184.6" font-family="Sans-Serif" font-size="13.00" fill="#2d3436">1:N</text>
</g>
</g>
</svg>
