<svg xmlns="http://www.w3.org/2000/svg" viewBox="0 0 1200 900" width="1200" height="900">
  <!-- Background -->
  <rect width="1200" height="900" fill="white"/>
  
  <!-- Title -->
  <text x="600" y="40" font-family="Arial" font-size="24" font-weight="bold" text-anchor="middle">JSON Hierarchy Structure Visualization</text>

  <!-- Root node -->
  <rect x="550" y="70" width="100" height="40" rx="0" ry="0" fill="#f0f0f0" stroke="#333" stroke-width="1"/>
  <text x="600" y="95" font-family="Arial" font-size="14" text-anchor="middle">Root</text>

  <!-- Level 1: Dimensions -->
  <!-- Dimension 1 -->
  <rect x="150" y="160" width="200" height="40" rx="0" ry="0" fill="#d9edf7" stroke="#333" stroke-width="1"/>
  <text x="250" y="185" font-family="Arial" font-size="14" text-anchor="middle">Dim ID: 1 - type: level</text>
  
  <!-- Dimension 2 -->
  <rect x="500" y="160" width="200" height="40" rx="0" ry="0" fill="#dff0d8" stroke="#333" stroke-width="1"/>
  <text x="600" y="185" font-family="Arial" font-size="14" text-anchor="middle">Dim ID: 2 - type: level</text>
  
  <!-- Dimension 3 -->
  <rect x="850" y="160" width="200" height="40" rx="0" ry="0" fill="#fcf2f2" stroke="#333" stroke-width="1"/>
  <text x="950" y="185" font-family="Arial" font-size="14" text-anchor="middle">Dim ID: 3 - type: dimension</text>

  <!-- Connection lines from Root to Dimensions -->
  <path d="M 600 110 L 600 130 L 250 130 L 250 160" stroke="#333" stroke-width="1" fill="none"/>
  <path d="M 600 110 L 600 130 L 600 130 L 600 160" stroke="#333" stroke-width="1" fill="none"/>
  <path d="M 600 110 L 600 130 L 950 130 L 950 160" stroke="#333" stroke-width="1" fill="none"/>

  <!-- Level 2: Association Types for Dimension 1 -->
  <rect x="80" y="250" width="90" height="30" rx="0" ry="0" fill="#e8d8f0" stroke="#333" stroke-width="1"/>
  <text x="125" y="270" font-family="Arial" font-size="12" text-anchor="middle">ToDoers</text>
  
  <rect x="205" y="250" width="90" height="30" rx="0" ry="0" fill="#feffd9" stroke="#333" stroke-width="1"/>
  <text x="250" y="270" font-family="Arial" font-size="12" text-anchor="middle">SubmitApprove</text>
  
  <rect x="330" y="250" width="90" height="30" rx="0" ry="0" fill="#e8d8f0" stroke="#333" stroke-width="1"/>
  <text x="375" y="270" font-family="Arial" font-size="12" text-anchor="middle">Reviewers</text>

  <!-- Connection lines from Dimension 1 to Association Types -->
  <path d="M 250 200 L 250 225 L 125 225 L 125 250" stroke="#333" stroke-width="1" fill="none"/>
  <path d="M 250 200 L 250 225 L 250 225 L 250 250" stroke="#333" stroke-width="1" fill="none"/>
  <path d="M 250 200 L 250 225 L 375 225 L 375 250" stroke="#333" stroke-width="1" fill="none"/>

  <!-- Level 2: Association Types for Dimension 2 -->
  <rect x="455" y="250" width="90" height="30" rx="0" ry="0" fill="#e8d8f0" stroke="#333" stroke-width="1"/>
  <text x="500" y="270" font-family="Arial" font-size="12" text-anchor="middle">ToDoers</text>
  
  <rect x="580" y="250" width="90" height="30" rx="0" ry="0" fill="#feffd9" stroke="#333" stroke-width="1"/>
  <text x="625" y="270" font-family="Arial" font-size="12" text-anchor="middle">SubmitApprove</text>
  
  <rect x="705" y="250" width="90" height="30" rx="0" ry="0" fill="#e8d8f0" stroke="#333" stroke-width="1"/>
  <text x="750" y="270" font-family="Arial" font-size="12" text-anchor="middle">Reviewers</text>

  <!-- Connection lines from Dimension 2 to Association Types -->
  <path d="M 600 200 L 600 225 L 500 225 L 500 250" stroke="#333" stroke-width="1" fill="none"/>
  <path d="M 600 200 L 600 225 L 625 225 L 625 250" stroke="#333" stroke-width="1" fill="none"/>
  <path d="M 600 200 L 600 225 L 750 225 L 750 250" stroke="#333" stroke-width="1" fill="none"/>

  <!-- Level 2: Association Types for Dimension 3 -->
  <rect x="830" y="250" width="90" height="30" rx="0" ry="0" fill="#e8d8f0" stroke="#333" stroke-width="1"/>
  <text x="875" y="270" font-family="Arial" font-size="12" text-anchor="middle">ToDoers</text>
  
  <rect x="955" y="250" width="90" height="30" rx="0" ry="0" fill="#feffd9" stroke="#333" stroke-width="1"/>
  <text x="1000" y="270" font-family="Arial" font-size="12" text-anchor="middle">SubmitApprove</text>
  
  <rect x="1080" y="250" width="90" height="30" rx="0" ry="0" fill="#e8d8f0" stroke="#333" stroke-width="1"/>
  <text x="1125" y="270" font-family="Arial" font-size="12" text-anchor="middle">Reviewers</text>

  <!-- Connection lines from Dimension 3 to Association Types -->
  <path d="M 950 200 L 950 225 L 875 225 L 875 250" stroke="#333" stroke-width="1" fill="none"/>
  <path d="M 950 200 L 950 225 L 1000 225 L 1000 250" stroke="#333" stroke-width="1" fill="none"/>
  <path d="M 950 200 L 950 225 L 1125 225 L 1125 250" stroke="#333" stroke-width="1" fill="none"/>

  <!-- Level 3: Dim 1 ToDoers Children -->
  <rect x="50" y="320" width="70" height="30" rx="0" ry="0" fill="#d9edf7" stroke="#333" stroke-width="1"/>
  <text x="85" y="340" font-family="Arial" font-size="10" text-anchor="middle">Grp ID: 101</text>
  
  <rect x="130" y="320" width="70" height="30" rx="0" ry="0" fill="#d9edf7" stroke="#333" stroke-width="1"/>
  <text x="165" y="340" font-family="Arial" font-size="10" text-anchor="middle">Grp ID: 102</text>

  <!-- Connection lines from Dim1 ToDoers to Children -->
  <path d="M 125 280 L 125 300 L 85 300 L 85 320" stroke="#333" stroke-width="1" fill="none"/>
  <path d="M 125 280 L 125 300 L 165 300 L 165 320" stroke="#333" stroke-width="1" fill="none"/>

  <!-- Level 3: Dim 2 ToDoers Children -->
  <rect x="425" y="320" width="70" height="30" rx="0" ry="0" fill="#dff0d8" stroke="#333" stroke-width="1"/>
  <text x="460" y="340" font-family="Arial" font-size="10" text-anchor="middle">Usr ID: 103</text>
  
  <rect x="505" y="320" width="70" height="30" rx="0" ry="0" fill="#dff0d8" stroke="#333" stroke-width="1"/>
  <text x="540" y="340" font-family="Arial" font-size="10" text-anchor="middle">Grp ID: 102</text>

  <!-- Connection lines from Dim2 ToDoers to Children -->
  <path d="M 500 280 L 500 300 L 460 300 L 460 320" stroke="#333" stroke-width="1" fill="none"/>
  <path d="M 500 280 L 500 300 L 540 300 L 540 320" stroke="#333" stroke-width="1" fill="none"/>

  <!-- Level 3: Dim 3 ToDoers Children -->
  <rect x="800" y="320" width="70" height="30" rx="0" ry="0" fill="#fcf2f2" stroke="#333" stroke-width="1"/>
  <text x="835" y="340" font-family="Arial" font-size="10" text-anchor="middle">Grp ID: 101</text>
  
  <rect x="880" y="320" width="70" height="30" rx="0" ry="0" fill="#fcf2f2" stroke="#333" stroke-width="1"/>
  <text x="915" y="340" font-family="Arial" font-size="10" text-anchor="middle">Usr ID: 104</text>

  <!-- Connection lines from Dim3 ToDoers to Children -->
  <path d="M 875 280 L 875 300 L 835 300 L 835 320" stroke="#333" stroke-width="1" fill="none"/>
  <path d="M 875 280 L 875 300 L 915 300 L 915 320" stroke="#333" stroke-width="1" fill="none"/>

  <!-- Level 3: Dim 1 SubmitApprove Children -->
  <rect x="175" y="320" width="70" height="30" rx="0" ry="0" fill="#feffd9" stroke="#333" stroke-width="1"/>
  <text x="210" y="340" font-family="Arial" font-size="10" text-anchor="middle">Grp 1</text>
  
  <rect x="250" y="320" width="70" height="30" rx="0" ry="0" fill="#feffd9" stroke="#333" stroke-width="1"/>
  <text x="285" y="340" font-family="Arial" font-size="10" text-anchor="middle">Grp 2</text>
  
  <rect x="325" y="320" width="70" height="30" rx="0" ry="0" fill="#feffd9" stroke="#333" stroke-width="1"/>
  <text x="360" y="340" font-family="Arial" font-size="10" text-anchor="middle">Grp 3</text>

  <!-- Connection lines from Dim1 SubmitApprove to Children -->
  <path d="M 250 280 L 250 300 L 210 300 L 210 320" stroke="#333" stroke-width="1" fill="none"/>
  <path d="M 250 280 L 250 300 L 285 300 L 285 320" stroke="#333" stroke-width="1" fill="none"/>
  <path d="M 250 280 L 250 300 L 360 300 L 360 320" stroke="#333" stroke-width="1" fill="none"/>

  <!-- Level 3: Dim 2 SubmitApprove Children -->
  <rect x="590" y="320" width="70" height="30" rx="0" ry="0" fill="#feffd9" stroke="#333" stroke-width="1"/>
  <text x="625" y="340" font-family="Arial" font-size="10" text-anchor="middle">Grp 1</text>
  
  <rect x="665" y="320" width="70" height="30" rx="0" ry="0" fill="#feffd9" stroke="#333" stroke-width="1"/>
  <text x="700" y="340" font-family="Arial" font-size="10" text-anchor="middle">Grp 2</text>

  <!-- Connection lines from Dim2 SubmitApprove to Children -->
  <path d="M 625 280 L 625 300 L 625 300 L 625 320" stroke="#333" stroke-width="1" fill="none"/>
  <path d="M 625 280 L 625 300 L 700 300 L 700 320" stroke="#333" stroke-width="1" fill="none"/>

  <!-- Level 3: Dim 3 SubmitApprove Children -->
  <rect x="965" y="320" width="70" height="30" rx="0" ry="0" fill="#feffd9" stroke="#333" stroke-width="1"/>
  <text x="1000" y="340" font-family="Arial" font-size="10" text-anchor="middle">Grp 1</text>
  
  <rect x="1040" y="320" width="70" height="30" rx="0" ry="0" fill="#feffd9" stroke="#333" stroke-width="1"/>
  <text x="1075" y="340" font-family="Arial" font-size="10" text-anchor="middle">Grp 2</text>
  
  <rect x="1003" y="400" width="70" height="30" rx="0" ry="0" fill="#feffd9" stroke="#333" stroke-width="1"/>
  <text x="1038" y="420" font-family="Arial" font-size="10" text-anchor="middle">Grp 3</text>

  <!-- Connection lines from Dim3 SubmitApprove to Children -->
  <path d="M 1000 280 L 1000 300 L 1000 300 L 1000 320" stroke="#333" stroke-width="1" fill="none"/>
  <path d="M 1000 280 L 1000 300 L 1075 300 L 1075 320" stroke="#333" stroke-width="1" fill="none"/>
  <path d="M 1000 280 L 1000 300 L 1038 370 L 1038 400" stroke="#333" stroke-width="1" fill="none"/>

  <!-- Level 3: Dim 1 Reviewers Children -->
  <rect x="375" y="320" width="70" height="30" rx="0" ry="0" fill="#e8d8f0" stroke="#333" stroke-width="1"/>
  <text x="410" y="340" font-family="Arial" font-size="10" text-anchor="middle">Usr ID: 401</text>

  <!-- Connection lines from Dim1 Reviewers to Children -->
  <path d="M 375 280 L 375 300 L 410 300 L 410 320" stroke="#333" stroke-width="1" fill="none"/>

  <!-- Level 3: Dim 2 Reviewers Children -->
  <rect x="715" y="320" width="70" height="30" rx="0" ry="0" fill="#e8d8f0" stroke="#333" stroke-width="1"/>
  <text x="750" y="340" font-family="Arial" font-size="10" text-anchor="middle">Grp ID: 801</text>

  <!-- Connection lines from Dim2 Reviewers to Children -->
  <path d="M 750 280 L 750 300 L 750 300 L 750 320" stroke="#333" stroke-width="1" fill="none"/>

  <!-- Level 3: Dim 3 Reviewers Children -->
  <rect x="1090" y="320" width="70" height="30" rx="0" ry="0" fill="#e8d8f0" stroke="#333" stroke-width="1"/>
  <text x="1125" y="340" font-family="Arial" font-size="10" text-anchor="middle">Grp ID: 801</text>

  <!-- Connection lines from Dim3 Reviewers to Children -->
  <path d="M 1125 280 L 1125 300 L 1125 300 L 1125 320" stroke="#333" stroke-width="1" fill="none"/>

  <!-- Level 4: Submitter/Approver Children for Dim 1 Groups -->
  <!-- Group 1 -->
  <rect x="155" y="390" width="110" height="22" rx="0" ry="0" fill="#d9edf7" stroke="#333" stroke-width="1"/>
  <text x="210" y="405" font-family="Arial" font-size="9" text-anchor="middle">Submitter: Usr ID: 201</text>
  
  <rect x="155" y="416" width="110" height="22" rx="0" ry="0" fill="#d9edf7" stroke="#333" stroke-width="1"/>
  <text x="210" y="431" font-family="Arial" font-size="9" text-anchor="middle">Approver: Usr ID: 301</text>

  <!-- Group 2 -->
  <rect x="250" y="480" width="110" height="22" rx="0" ry="0" fill="#d9edf7" stroke="#333" stroke-width="1"/>
  <text x="305" y="495" font-family="Arial" font-size="9" text-anchor="middle">Submitter: Usr ID: 202</text>
  
  <rect x="250" y="506" width="110" height="22" rx="0" ry="0" fill="#d9edf7" stroke="#333" stroke-width="1"/>
  <text x="305" y="521" font-family="Arial" font-size="9" text-anchor="middle">Approver: Usr ID: 301</text>

  <!-- Group 3 -->
  <rect x="345" y="390" width="110" height="22" rx="0" ry="0" fill="#d9edf7" stroke="#333" stroke-width="1"/>
  <text x="400" y="405" font-family="Arial" font-size="9" text-anchor="middle">Submitter: Usr ID: 203</text>
  
  <rect x="345" y="416" width="110" height="22" rx="0" ry="0" fill="#d9edf7" stroke="#333" stroke-width="1"/>
  <text x="400" y="431" font-family="Arial" font-size="9" text-anchor="middle">Approver: Usr ID: 302</text>

  <!-- Connection lines from Dim1 Submit/Approve Groups to Children -->
  <path d="M 210 350 L 210 370 L 210 370 L 210 390" stroke="#333" stroke-width="1" fill="none"/>
  <path d="M 210 350 L 210 370 L 210 370 L 210 416" stroke="#333" stroke-width="1" fill="none"/>
  
  <path d="M 285 350 L 285 460 L 305 460 L 305 480" stroke="#333" stroke-width="1" fill="none"/>
  <path d="M 285 350 L 285 460 L 305 460 L 305 506" stroke="#333" stroke-width="1" fill="none"/>
  
  <path d="M 360 350 L 360 370 L 400 370 L 400 390" stroke="#333" stroke-width="1" fill="none"/>
  <path d="M 360 350 L 360 370 L 400 370 L 400 416" stroke="#333" stroke-width="1" fill="none"/>

  <!-- Level 4: Submitter/Approver Children for Dim 2 Groups -->
  <!-- Group 1 -->
  <rect x="570" y="390" width="110" height="22" rx="0" ry="0" fill="#dff0d8" stroke="#333" stroke-width="1"/>
  <text x="625" y="405" font-family="Arial" font-size="9" text-anchor="middle">Submitter: Usr ID: 601</text>
  
  <rect x="570" y="416" width="110" height="22" rx="0" ry="0" fill="#dff0d8" stroke="#333" stroke-width="1"/>
  <text x="625" y="431" font-family="Arial" font-size="9" text-anchor="middle">Approver: Usr ID: 701</text>

  <!-- Group 2 -->
  <rect x="645" y="480" width="110" height="22" rx="0" ry="0" fill="#dff0d8" stroke="#333" stroke-width="1"/>
  <text x="700" y="495" font-family="Arial" font-size="9" text-anchor="middle">Submitter: Usr ID: 602</text>
  
  <rect x="645" y="506" width="110" height="22" rx="0" ry="0" fill="#dff0d8" stroke="#333" stroke-width="1"/>
  <text x="700" y="521" font-family="Arial" font-size="9" text-anchor="middle">Approver: Usr ID: 702</text>

  <!-- Connection lines from Dim2 Submit/Approve Groups to Children -->
  <path d="M 625 350 L 625 370 L 625 370 L 625 390" stroke="#333" stroke-width="1" fill="none"/>
  <path d="M 625 350 L 625 370 L 625 370 L 625 416" stroke="#333" stroke-width="1" fill="none"/>
  
  <path d="M 700 350 L 700 460 L 700 460 L 700 480" stroke="#333" stroke-width="1" fill="none"/>
  <path d="M 700 350 L 700 460 L 700 460 L 700 506" stroke="#333" stroke-width="1" fill="none"/>

  <!-- Level 4: Submitter/Approver Children for Dim 3 Groups -->
  <!-- Group 1 -->
  <rect x="945" y="390" width="110" height="22" rx="0" ry="0" fill="#fcf2f2" stroke="#333" stroke-width="1"/>
  <text x="1000" y="405" font-family="Arial" font-size="9" text-anchor="middle">Submitter: Usr ID: 601</text>
  
  <rect x="945" y="416" width="110" height="22" rx="0" ry="0" fill="#fcf2f2" stroke="#333" stroke-width="1"/>
  <text x="1000" y="431" font-family="Arial" font-size="9" text-anchor="middle">Approver: Usr ID: 701</text>

  <!-- Group 2 -->
  <rect x="1020" y="480" width="110" height="22" rx="0" ry="0" fill="#fcf2f2" stroke="#333" stroke-width="1"/>
  <text x="1075" y="495" font-family="Arial" font-size="9" text-anchor="middle">Submitter: Usr ID: 602</text>
  
  <rect x="1020" y="506" width="110" height="22" rx="0" ry="0" fill="#fcf2f2" stroke="#333" stroke-width="1"/>
  <text x="1075" y="521" font-family="Arial" font-size="9" text-anchor="middle">Approver: Usr ID: 702</text>

  <!-- Group 3 -->
  <rect x="980" y="570" width="110" height="22" rx="0" ry="0" fill="#fcf2f2" stroke="#333" stroke-width="1"/>
  <text x="1035" y="585" font-family="Arial" font-size="9" text-anchor="middle">Submitter: Usr ID: 603</text>
  
  <rect x="980" y="596" width="110" height="22" rx="0" ry="0" fill="#fcf2f2" stroke="#333" stroke-width="1"/>
  <text x="1035" y="611" font-family="Arial" font-size="9" text-anchor="middle">Approver: Usr ID: 703</text>

  <!-- Connection lines from Dim3 Submit/Approve Groups to Children -->
  <path d="M 1000 350 L 1000 370 L 1000 370 L 1000 390" stroke="#333" stroke-width="1" fill="none"/>
  <path d="M 1000 350 L 1000 370 L 1000 370 L 1000 416" stroke="#333" stroke-width="1" fill="none"/>
  
  <path d="M 1075 350 L 1075 460 L 1075 460 L 1075 480" stroke="#333" stroke-width="1" fill="none"/>
  <path d="M 1075 350 L 1075 460 L 1075 460 L 1075 506" stroke="#333" stroke-width="1" fill="none"/>
  
  <path d="M 1038 430 L 1038 550 L 1035 550 L 1035 570" stroke="#333" stroke-width="1" fill="none"/>
  <path d="M 1038 430 L 1038 550 L 1035 550 L 1035 596" stroke="#333" stroke-width="1" fill="none"/>

  <!-- Legend -->
  <rect x="100" y="680" width="1000" height="130" rx="0" ry="0" fill="#f9f9f9" stroke="#333" stroke-width="1"/>
  <text x="125" y="705" font-family="Arial" font-size="16" font-weight="bold">Legend:</text>
  
  <rect x="125" y="715" width="20" height="20" rx="0" ry="0" fill="#d9edf7" stroke="#333" stroke-width="1"/>
  <text x="155" y="730" font-family="Arial" font-size="12">Dim 1 (Level)</text>
  
  <rect x="325" y="715" width="20" height="20" rx="0" ry="0" fill="#dff0d8" stroke="#333" stroke-width="1"/>
  <text x="355" y="730" font-family="Arial" font-size="12">Dim 2 (Level)</text>
  
  <rect x="525" y="715" width="20" height="20" rx="0" ry="0" fill="#fcf2f2" stroke="#333" stroke-width="1"/>
  <text x="555" y="730" font-family="Arial" font-size="12">Dim 3 (Dimension)</text>
  
  <rect x="125" y="745" width="20" height="20" rx="0" ry="0" fill="#e8d8f0" stroke="#333" stroke-width="1"/>
  <text x="155" y="760" font-family="Arial" font-size="12">ToDoers/Reviewers</text>
  
  <rect x="325" y="745" width="20" height="20" rx="0" ry="0" fill="#feffd9" stroke="#333" stroke-width="1"/>
  <text x="355" y="760" font-family="Arial" font-size="12">SubmitApproveGroup</text>
  
  <text x="125" y="785" font-family="Arial" font-size="14" font-weight="bold">Shared IDs across dimensions:</text>
  <text x="155" y="805" font-family="Arial" font-size="12">Grp ID: 101 (Dim 1 and 3), Grp ID: 102 (Dim 1 and 2), Grp ID: 801 (Dim 2 and 3)</text>
  <text x="525" y="805" font-family="Arial" font-size="12">Usr ID pairs: 601/701 and 602/702 (Dim 2 and 3)</text>
</svg>