<?xml version="1.0" encoding="UTF-8" standalone="no"?>
<!DOCTYPE svg PUBLIC "-//W3C//DTD SVG 1.1//EN"
 "http://www.w3.org/Graphics/SVG/1.1/DTD/svg11.dtd">
<!-- Generated by graphviz version 2.43.0 (0)
 -->
<!-- Title: Workflow Engine Sequence Flow Pages: 1 -->
<svg width="1099pt" height="1380pt"
 viewBox="0.00 0.00 1099.00 1380.00" xmlns="http://www.w3.org/2000/svg" xmlns:xlink="http://www.w3.org/1999/xlink">
<g id="graph0" class="graph" transform="scale(1 1) rotate(0) translate(36 1344)">
<title>Workflow Engine Sequence Flow</title>
<polygon fill="white" stroke="transparent" points="-36,36 -36,-1344 1063,-1344 1063,36 -36,36"/>
<text text-anchor="middle" x="513.5" y="-9.2" font-family="Arial" font-size="16.00" fill="#333333">Workflow Engine Sequence Flow</text>
<g id="clust1" class="cluster">
<title>cluster_Actors</title>
<path fill="#ffffe6" stroke="#aeb6be" d="M537,-900C537,-900 875,-900 875,-900 881,-900 887,-906 887,-912 887,-912 887,-1288 887,-1288 887,-1294 881,-1300 875,-1300 875,-1300 537,-1300 537,-1300 531,-1300 525,-1294 525,-1288 525,-1288 525,-912 525,-912 525,-906 531,-900 537,-900"/>
<text text-anchor="middle" x="552.5" y="-1286.4" font-family="Sans-Serif" font-size="12.00" fill="#333333">Actors</text>
</g>
<g id="clust2" class="cluster">
<title>cluster_API Layer</title>
<path fill="#e6ffe6" stroke="#aeb6be" d="M577,-664C577,-664 815,-664 815,-664 821,-664 827,-670 827,-676 827,-676 827,-847 827,-847 827,-853 821,-859 815,-859 815,-859 577,-859 577,-859 571,-859 565,-853 565,-847 565,-847 565,-676 565,-676 565,-670 571,-664 577,-664"/>
<text text-anchor="middle" x="602" y="-845.4" font-family="Sans-Serif" font-size="12.00" fill="#333333">API Layer</text>
</g>
<g id="clust3" class="cluster">
<title>cluster_Core Engine</title>
<path fill="#e6f2ff" stroke="#aeb6be" d="M292,-223C292,-223 899,-223 899,-223 905,-223 911,-229 911,-235 911,-235 911,-611 911,-611 911,-617 905,-623 899,-623 899,-623 292,-623 292,-623 286,-623 280,-617 280,-611 280,-611 280,-235 280,-235 280,-229 286,-223 292,-223"/>
<text text-anchor="middle" x="324.5" y="-609.4" font-family="Sans-Serif" font-size="12.00" fill="#333333">Core Engine</text>
</g>
<g id="clust4" class="cluster">
<title>cluster_Execution</title>
<path fill="#f2e6ff" stroke="#aeb6be" d="M20,-223C20,-223 114,-223 114,-223 120,-223 126,-229 126,-235 126,-235 126,-611 126,-611 126,-617 120,-623 114,-623 114,-623 20,-623 20,-623 14,-623 8,-617 8,-611 8,-611 8,-235 8,-235 8,-229 14,-223 20,-223"/>
<text text-anchor="middle" x="45.5" y="-609.4" font-family="Sans-Serif" font-size="12.00" fill="#333333">Execution</text>
</g>
<!-- 02d9540068fc4c449ade200f8d71dd27 -->
<g id="node1" class="node">
<title>02d9540068fc4c449ade200f8d71dd27</title>
<polygon fill="#333333" stroke="transparent" points="721.5,-1045 620.5,-1045 620.5,-908 721.5,-908 721.5,-1045"/>
<image xlink:href="/usr/local/lib/python3.10/dist-packages/resources/programming/language/java.png" width="101px" height="101px" preserveAspectRatio="xMinYMin meet" x="620.5" y="-1027"/>
<text text-anchor="middle" x="671" y="-911.8" font-family="Arial" font-size="14.00" fill="#333333">Host Application</text>
</g>
<!-- 22b786bca3ab47659b874912f738c72e -->
<g id="node3" class="node">
<title>22b786bca3ab47659b874912f738c72e</title>
<polygon fill="#333333" stroke="transparent" points="674.5,-809 573.5,-809 573.5,-672 674.5,-672 674.5,-809"/>
<image xlink:href="/usr/local/lib/python3.10/dist-packages/resources/programming/language/java.png" width="101px" height="101px" preserveAspectRatio="xMinYMin meet" x="573.5" y="-791"/>
<text text-anchor="middle" x="624" y="-675.8" font-family="Arial" font-size="14.00" fill="#333333">Workflow Instance API</text>
</g>
<!-- 02d9540068fc4c449ade200f8d71dd27&#45;&gt;22b786bca3ab47659b874912f738c72e -->
<g id="edge2" class="edge">
<title>02d9540068fc4c449ade200f8d71dd27&#45;&gt;22b786bca3ab47659b874912f738c72e</title>
<path fill="none" stroke="#666666" d="M647.5,-907.92C647.5,-907.92 647.5,-819.25 647.5,-819.25"/>
<polygon fill="#666666" stroke="#666666" points="651,-819.25 647.5,-809.25 644,-819.25 651,-819.25"/>
<text text-anchor="middle" x="671.5" y="-870.6" font-family="Sans-Serif" font-size="13.00" fill="#2d3436">2. Calls</text>
</g>
<!-- ff3dd07a42844a8abb1166465831b761 -->
<g id="node4" class="node">
<title>ff3dd07a42844a8abb1166465831b761</title>
<polygon fill="#333333" stroke="transparent" points="818.5,-809 717.5,-809 717.5,-672 818.5,-672 818.5,-809"/>
<image xlink:href="/usr/local/lib/python3.10/dist-packages/resources/programming/language/java.png" width="101px" height="101px" preserveAspectRatio="xMinYMin meet" x="717.5" y="-791"/>
<text text-anchor="middle" x="768" y="-675.8" font-family="Arial" font-size="14.00" fill="#333333">Task Management API</text>
</g>
<!-- 02d9540068fc4c449ade200f8d71dd27&#45;&gt;ff3dd07a42844a8abb1166465831b761 -->
<g id="edge9" class="edge">
<title>02d9540068fc4c449ade200f8d71dd27&#45;&gt;ff3dd07a42844a8abb1166465831b761</title>
<path fill="none" stroke="#666666" d="M696,-907.78C696,-837.95 696,-740 696,-740 696,-740 707.21,-740 707.21,-740"/>
<polygon fill="#666666" stroke="#666666" points="707.21,-743.5 717.21,-740 707.21,-736.5 707.21,-743.5"/>
<text text-anchor="middle" x="780.5" y="-870.6" font-family="Sans-Serif" font-size="13.00" fill="#2d3436">9. Calls</text>
</g>
<!-- 6cd28c49c88749dd91aa5675714d5adb -->
<g id="node2" class="node">
<title>6cd28c49c88749dd91aa5675714d5adb</title>
<polygon fill="#333333" stroke="transparent" points="721.5,-1250 620.5,-1250 620.5,-1113 721.5,-1113 721.5,-1250"/>
<image xlink:href="/usr/local/lib/python3.10/dist-packages/resources/onprem/client/user.png" width="101px" height="101px" preserveAspectRatio="xMinYMin meet" x="620.5" y="-1232"/>
<text text-anchor="middle" x="671" y="-1116.8" font-family="Arial" font-size="14.00" fill="#333333">End User</text>
</g>
<!-- 6cd28c49c88749dd91aa5675714d5adb&#45;&gt;02d9540068fc4c449ade200f8d71dd27 -->
<g id="edge1" class="edge">
<title>6cd28c49c88749dd91aa5675714d5adb&#45;&gt;02d9540068fc4c449ade200f8d71dd27</title>
<path fill="none" stroke="#666666" d="M654.17,-1112.95C654.17,-1112.95 654.17,-1055.33 654.17,-1055.33"/>
<polygon fill="#666666" stroke="#666666" points="657.67,-1055.33 654.17,-1045.33 650.67,-1055.33 657.67,-1055.33"/>
<text text-anchor="middle" x="643" y="-1075.6" font-family="Sans-Serif" font-size="13.00" fill="#2d3436">1. Initiates workflow</text>
</g>
<!-- 6cd28c49c88749dd91aa5675714d5adb&#45;&gt;02d9540068fc4c449ade200f8d71dd27 -->
<g id="edge8" class="edge">
<title>6cd28c49c88749dd91aa5675714d5adb&#45;&gt;02d9540068fc4c449ade200f8d71dd27</title>
<path fill="none" stroke="#666666" d="M687.83,-1112.95C687.83,-1112.95 687.83,-1055.33 687.83,-1055.33"/>
<polygon fill="#666666" stroke="#666666" points="691.33,-1055.33 687.83,-1045.33 684.33,-1055.33 691.33,-1055.33"/>
<text text-anchor="middle" x="818.5" y="-1075.6" font-family="Sans-Serif" font-size="13.00" fill="#2d3436">8. Completes task</text>
</g>
<!-- d1ae912376d44150b0f77b98cf003115 -->
<g id="node5" class="node">
<title>d1ae912376d44150b0f77b98cf003115</title>
<polygon fill="#333333" stroke="transparent" points="509.5,-573 408.5,-573 408.5,-436 509.5,-436 509.5,-573"/>
<image xlink:href="/usr/local/lib/python3.10/dist-packages/resources/programming/language/java.png" width="101px" height="101px" preserveAspectRatio="xMinYMin meet" x="408.5" y="-555"/>
<text text-anchor="middle" x="459" y="-439.8" font-family="Arial" font-size="14.00" fill="#333333">Workflow State Manager</text>
</g>
<!-- 22b786bca3ab47659b874912f738c72e&#45;&gt;d1ae912376d44150b0f77b98cf003115 -->
<g id="edge3" class="edge">
<title>22b786bca3ab47659b874912f738c72e&#45;&gt;d1ae912376d44150b0f77b98cf003115</title>
<path fill="none" stroke="#666666" d="M600,-671.94C600,-613.2 600,-538 600,-538 600,-538 519.51,-538 519.51,-538"/>
<polygon fill="#666666" stroke="#666666" points="519.51,-534.5 509.51,-538 519.51,-541.5 519.51,-534.5"/>
<text text-anchor="middle" x="642" y="-634.6" font-family="Sans-Serif" font-size="13.00" fill="#2d3436">3. Creates instance</text>
</g>
<!-- 55b5beca190a428ebde1fc40f738b6d6 -->
<g id="node7" class="node">
<title>55b5beca190a428ebde1fc40f738b6d6</title>
<polygon fill="#333333" stroke="transparent" points="626.5,-368 525.5,-368 525.5,-231 626.5,-231 626.5,-368"/>
<image xlink:href="/usr/local/lib/python3.10/dist-packages/resources/programming/language/java.png" width="101px" height="101px" preserveAspectRatio="xMinYMin meet" x="525.5" y="-350"/>
<text text-anchor="middle" x="576" y="-234.8" font-family="Arial" font-size="14.00" fill="#333333">Task Handler</text>
</g>
<!-- ff3dd07a42844a8abb1166465831b761&#45;&gt;55b5beca190a428ebde1fc40f738b6d6 -->
<g id="edge10" class="edge">
<title>ff3dd07a42844a8abb1166465831b761&#45;&gt;55b5beca190a428ebde1fc40f738b6d6</title>
<path fill="none" stroke="#666666" d="M768,-671.52C768,-547.34 768,-299 768,-299 768,-299 636.7,-299 636.7,-299"/>
<polygon fill="#666666" stroke="#666666" points="636.7,-295.5 626.7,-299 636.7,-302.5 636.7,-295.5"/>
<text text-anchor="middle" x="978.5" y="-501.1" font-family="Sans-Serif" font-size="13.00" fill="#2d3436">10. Completes</text>
</g>
<!-- 2beb14e01cee497a99c9ab8fdeb8d420 -->
<g id="node6" class="node">
<title>2beb14e01cee497a99c9ab8fdeb8d420</title>
<polygon fill="#333333" stroke="transparent" points="460.5,-368 359.5,-368 359.5,-231 460.5,-231 460.5,-368"/>
<image xlink:href="/usr/local/lib/python3.10/dist-packages/resources/programming/language/java.png" width="101px" height="101px" preserveAspectRatio="xMinYMin meet" x="359.5" y="-350"/>
<text text-anchor="middle" x="410" y="-234.8" font-family="Arial" font-size="14.00" fill="#333333">Operator Manager</text>
</g>
<!-- d1ae912376d44150b0f77b98cf003115&#45;&gt;2beb14e01cee497a99c9ab8fdeb8d420 -->
<g id="edge4" class="edge">
<title>d1ae912376d44150b0f77b98cf003115&#45;&gt;2beb14e01cee497a99c9ab8fdeb8d420</title>
<path fill="none" stroke="#666666" d="M425.83,-435.95C425.83,-435.95 425.83,-378.33 425.83,-378.33"/>
<polygon fill="#666666" stroke="#666666" points="429.33,-378.33 425.83,-368.33 422.33,-378.33 429.33,-378.33"/>
<text text-anchor="middle" x="371" y="-398.6" font-family="Sans-Serif" font-size="13.00" fill="#2d3436">4. Initializes</text>
</g>
<!-- d1ae912376d44150b0f77b98cf003115&#45;&gt;2beb14e01cee497a99c9ab8fdeb8d420 -->
<g id="edge15" class="edge">
<title>d1ae912376d44150b0f77b98cf003115&#45;&gt;2beb14e01cee497a99c9ab8fdeb8d420</title>
<path fill="none" stroke="#666666" d="M443.17,-435.95C443.17,-435.95 443.17,-378.33 443.17,-378.33"/>
<polygon fill="#666666" stroke="#666666" points="446.67,-378.33 443.17,-368.33 439.67,-378.33 446.67,-378.33"/>
<text text-anchor="middle" x="504.5" y="-398.6" font-family="Sans-Serif" font-size="13.00" fill="#2d3436">15. Evaluates</text>
</g>
<!-- d1ae912376d44150b0f77b98cf003115&#45;&gt;55b5beca190a428ebde1fc40f738b6d6 -->
<g id="edge6" class="edge">
<title>d1ae912376d44150b0f77b98cf003115&#45;&gt;55b5beca190a428ebde1fc40f738b6d6</title>
<path fill="none" stroke="#666666" d="M509.54,-504C530.27,-504 549.5,-504 549.5,-504 549.5,-504 549.5,-378.16 549.5,-378.16"/>
<polygon fill="#666666" stroke="#666666" points="553,-378.16 549.5,-368.16 546,-378.16 553,-378.16"/>
<text text-anchor="middle" x="652" y="-398.6" font-family="Sans-Serif" font-size="13.00" fill="#2d3436">6. Creates tasks</text>
</g>
<!-- d1ae912376d44150b0f77b98cf003115&#45;&gt;55b5beca190a428ebde1fc40f738b6d6 -->
<g id="edge16" class="edge">
<title>d1ae912376d44150b0f77b98cf003115&#45;&gt;55b5beca190a428ebde1fc40f738b6d6</title>
<path fill="none" stroke="#666666" d="M509.6,-470C524.79,-470 537.5,-470 537.5,-470 537.5,-470 537.5,-378.36 537.5,-378.36"/>
<polygon fill="#666666" stroke="#666666" points="541,-378.36 537.5,-368.36 534,-378.36 541,-378.36"/>
<text text-anchor="middle" x="828.5" y="-398.6" font-family="Sans-Serif" font-size="13.00" fill="#2d3436">16. Creates next tasks</text>
</g>
<!-- 2d0acdb57a1b4907b206626ca981c0ea -->
<g id="node10" class="node">
<title>2d0acdb57a1b4907b206626ca981c0ea</title>
<polygon fill="#333333" stroke="transparent" points="254.5,-163 153.5,-163 153.5,-26 254.5,-26 254.5,-163"/>
<image xlink:href="/usr/local/lib/python3.10/dist-packages/resources/onprem/database/postgresql.png" width="101px" height="101px" preserveAspectRatio="xMinYMin meet" x="153.5" y="-145"/>
<text text-anchor="middle" x="204" y="-29.8" font-family="Arial" font-size="14.00" fill="#333333">Database</text>
</g>
<!-- d1ae912376d44150b0f77b98cf003115&#45;&gt;2d0acdb57a1b4907b206626ca981c0ea -->
<g id="edge5" class="edge">
<title>d1ae912376d44150b0f77b98cf003115&#45;&gt;2d0acdb57a1b4907b206626ca981c0ea</title>
<path fill="none" stroke="#666666" d="M408.49,-481C338.58,-481 220.83,-481 220.83,-481 220.83,-481 220.83,-173.15 220.83,-173.15"/>
<polygon fill="#666666" stroke="#666666" points="224.33,-173.15 220.83,-163.15 217.33,-173.15 224.33,-173.15"/>
<text text-anchor="middle" x="238" y="-296.1" font-family="Sans-Serif" font-size="13.00" fill="#2d3436">5. Persists</text>
</g>
<!-- d730a296aff04d9abe5b631b369eb85a -->
<g id="node8" class="node">
<title>d730a296aff04d9abe5b631b369eb85a</title>
<polygon fill="#333333" stroke="transparent" points="117.5,-368 16.5,-368 16.5,-231 117.5,-231 117.5,-368"/>
<image xlink:href="/usr/local/lib/python3.10/dist-packages/resources/programming/language/java.png" width="101px" height="101px" preserveAspectRatio="xMinYMin meet" x="16.5" y="-350"/>
<text text-anchor="middle" x="67" y="-234.8" font-family="Arial" font-size="14.00" fill="#333333">Execution Queue</text>
</g>
<!-- 55b5beca190a428ebde1fc40f738b6d6&#45;&gt;d730a296aff04d9abe5b631b369eb85a -->
<g id="edge11" class="edge">
<title>55b5beca190a428ebde1fc40f738b6d6&#45;&gt;d730a296aff04d9abe5b631b369eb85a</title>
<path fill="none" stroke="#666666" d="M561.5,-368.15C561.5,-386.83 561.5,-402 561.5,-402 561.5,-402 83.83,-402 83.83,-402 83.83,-402 83.83,-378.15 83.83,-378.15"/>
<polygon fill="#666666" stroke="#666666" points="87.33,-378.15 83.83,-368.15 80.33,-378.15 87.33,-378.15"/>
<text text-anchor="middle" x="245" y="-398.6" font-family="Sans-Serif" font-size="13.00" fill="#2d3436">11. Queues</text>
</g>
<!-- 55b5beca190a428ebde1fc40f738b6d6&#45;&gt;2d0acdb57a1b4907b206626ca981c0ea -->
<g id="edge7" class="edge">
<title>55b5beca190a428ebde1fc40f738b6d6&#45;&gt;2d0acdb57a1b4907b206626ca981c0ea</title>
<path fill="none" stroke="#666666" d="M576,-230.79C576,-171.05 576,-94 576,-94 576,-94 264.56,-94 264.56,-94"/>
<polygon fill="#666666" stroke="#666666" points="264.56,-90.5 254.56,-94 264.56,-97.5 264.56,-90.5"/>
<text text-anchor="middle" x="459" y="-193.6" font-family="Sans-Serif" font-size="13.00" fill="#2d3436">7. Persists</text>
</g>
<!-- d730a296aff04d9abe5b631b369eb85a&#45;&gt;2d0acdb57a1b4907b206626ca981c0ea -->
<g id="edge12" class="edge">
<title>d730a296aff04d9abe5b631b369eb85a&#45;&gt;2d0acdb57a1b4907b206626ca981c0ea</title>
<path fill="none" stroke="#666666" d="M117.61,-299C150.45,-299 187.17,-299 187.17,-299 187.17,-299 187.17,-173.16 187.17,-173.16"/>
<polygon fill="#666666" stroke="#666666" points="190.67,-173.16 187.17,-163.16 183.67,-173.16 190.67,-173.16"/>
<text text-anchor="middle" x="122" y="-193.6" font-family="Sans-Serif" font-size="13.00" fill="#2d3436">12. Persists</text>
</g>
<!-- 1f8a734c113e4b7f91ab7d87615758ca -->
<g id="node9" class="node">
<title>1f8a734c113e4b7f91ab7d87615758ca</title>
<polygon fill="#333333" stroke="transparent" points="117.5,-573 16.5,-573 16.5,-436 117.5,-436 117.5,-573"/>
<image xlink:href="/usr/local/lib/python3.10/dist-packages/resources/programming/language/java.png" width="101px" height="101px" preserveAspectRatio="xMinYMin meet" x="16.5" y="-555"/>
<text text-anchor="middle" x="67" y="-439.8" font-family="Arial" font-size="14.00" fill="#333333">Workflow Execution Sweeper</text>
</g>
<!-- 1f8a734c113e4b7f91ab7d87615758ca&#45;&gt;d1ae912376d44150b0f77b98cf003115 -->
<g id="edge14" class="edge">
<title>1f8a734c113e4b7f91ab7d87615758ca&#45;&gt;d1ae912376d44150b0f77b98cf003115</title>
<path fill="none" stroke="#666666" d="M117.85,-527C117.85,-527 398.24,-527 398.24,-527"/>
<polygon fill="#666666" stroke="#666666" points="398.24,-530.5 408.24,-527 398.24,-523.5 398.24,-530.5"/>
</g>
<!-- 1f8a734c113e4b7f91ab7d87615758ca&#45;&gt;d730a296aff04d9abe5b631b369eb85a -->
<g id="edge13" class="edge">
<title>1f8a734c113e4b7f91ab7d87615758ca&#45;&gt;d730a296aff04d9abe5b631b369eb85a</title>
<path fill="none" stroke="#666666" d="M50.17,-435.95C50.17,-435.95 50.17,-378.33 50.17,-378.33"/>
<polygon fill="#666666" stroke="#666666" points="53.67,-378.33 50.17,-368.33 46.67,-378.33 53.67,-378.33"/>
<text text-anchor="middle" x="90" y="-398.6" font-family="Sans-Serif" font-size="13.00" fill="#2d3436">13. Polls</text>
</g>
</g>
</svg>
