<?xml version="1.0" encoding="UTF-8" standalone="no"?>
<!DOCTYPE svg PUBLIC "-//W3C//DTD SVG 1.1//EN"
 "http://www.w3.org/Graphics/SVG/1.1/DTD/svg11.dtd">
<!-- Generated by graphviz version 2.43.0 (0)
 -->
<!-- Title: Planning Workflow Engine &#45; Sequence Flow Diagram Pages: 1 -->
<svg width="1514pt" height="2141pt"
 viewBox="0.00 0.00 1514.00 2141.00" xmlns="http://www.w3.org/2000/svg" xmlns:xlink="http://www.w3.org/1999/xlink">
<g id="graph0" class="graph" transform="scale(1 1) rotate(0) translate(36 2105)">
<title>Planning Workflow Engine &#45; Sequence Flow Diagram</title>
<polygon fill="white" stroke="transparent" points="-36,36 -36,-2105 1478,-2105 1478,36 -36,36"/>
<text text-anchor="middle" x="721" y="-9" font-family="Sans-Serif" font-size="15.00" fill="#333333">Planning Workflow Engine &#45; Sequence Flow Diagram</text>
<!-- 7207b4fb5cce423da84b473a2b6246ee -->
<g id="node1" class="node">
<title>7207b4fb5cce423da84b473a2b6246ee</title>
<polygon fill="#e6ffe6" stroke="transparent" points="820.5,-2069 719.5,-2069 719.5,-1932 820.5,-1932 820.5,-2069"/>
<image xlink:href="/usr/local/lib/python3.10/dist-packages/resources/onprem/client/user.png" width="101px" height="101px" preserveAspectRatio="xMinYMin meet" x="719.5" y="-2051"/>
<text text-anchor="middle" x="770" y="-1935.4" font-family="Sans-Serif" font-size="12.00" fill="#333333">User</text>
</g>
<!-- 168f63e5c37246f4b10d46eb35427d18 -->
<g id="node2" class="node">
<title>168f63e5c37246f4b10d46eb35427d18</title>
<polygon fill="#e6ffe6" stroke="transparent" points="820.5,-1846 719.5,-1846 719.5,-1709 820.5,-1709 820.5,-1846"/>
<image xlink:href="/usr/local/lib/python3.10/dist-packages/resources/programming/language/java.png" width="101px" height="101px" preserveAspectRatio="xMinYMin meet" x="719.5" y="-1828"/>
<text text-anchor="middle" x="770" y="-1712.4" font-family="Sans-Serif" font-size="12.00" fill="#333333">Host Application</text>
</g>
<!-- 7207b4fb5cce423da84b473a2b6246ee&#45;&gt;168f63e5c37246f4b10d46eb35427d18 -->
<g id="edge1" class="edge">
<title>7207b4fb5cce423da84b473a2b6246ee&#45;&gt;168f63e5c37246f4b10d46eb35427d18</title>
<path fill="none" stroke="#666666" d="M753.17,-1931.77C753.17,-1931.77 753.17,-1856 753.17,-1856"/>
<polygon fill="#666666" stroke="#666666" points="756.67,-1856 753.17,-1846 749.67,-1856 756.67,-1856"/>
<text text-anchor="middle" x="738.5" y="-1885.6" font-family="Sans-Serif" font-size="13.00" fill="#2d3436">1. Start Workflow</text>
</g>
<!-- 168f63e5c37246f4b10d46eb35427d18&#45;&gt;7207b4fb5cce423da84b473a2b6246ee -->
<g id="edge29" class="edge">
<title>168f63e5c37246f4b10d46eb35427d18&#45;&gt;7207b4fb5cce423da84b473a2b6246ee</title>
<path fill="none" stroke="#666666" d="M786.83,-1846.23C786.83,-1846.23 786.83,-1922 786.83,-1922"/>
<polygon fill="#666666" stroke="#666666" points="783.33,-1922 786.83,-1932 790.33,-1922 783.33,-1922"/>
<text text-anchor="middle" x="918.5" y="-1885.6" font-family="Sans-Serif" font-size="13.00" fill="#2d3436">27. Display Result</text>
</g>
<!-- 9dbbbcd66ed44adfb4e63fdfe170e941 -->
<g id="node3" class="node">
<title>9dbbbcd66ed44adfb4e63fdfe170e941</title>
<polygon fill="#e6ffe6" stroke="transparent" points="820.5,-1623 719.5,-1623 719.5,-1486 820.5,-1486 820.5,-1623"/>
<image xlink:href="/usr/local/lib/python3.10/dist-packages/resources/programming/language/java.png" width="101px" height="101px" preserveAspectRatio="xMinYMin meet" x="719.5" y="-1605"/>
<text text-anchor="middle" x="770" y="-1489.4" font-family="Sans-Serif" font-size="12.00" fill="#333333">Workflow API</text>
</g>
<!-- 168f63e5c37246f4b10d46eb35427d18&#45;&gt;9dbbbcd66ed44adfb4e63fdfe170e941 -->
<g id="edge2" class="edge">
<title>168f63e5c37246f4b10d46eb35427d18&#45;&gt;9dbbbcd66ed44adfb4e63fdfe170e941</title>
<path fill="none" stroke="#666666" d="M753.17,-1708.77C753.17,-1708.77 753.17,-1633 753.17,-1633"/>
<polygon fill="#666666" stroke="#666666" points="756.67,-1633 753.17,-1623 749.67,-1633 756.67,-1633"/>
<text text-anchor="middle" x="738.5" y="-1662.6" font-family="Sans-Serif" font-size="13.00" fill="#2d3436">2. Call API</text>
</g>
<!-- 9dbbbcd66ed44adfb4e63fdfe170e941&#45;&gt;168f63e5c37246f4b10d46eb35427d18 -->
<g id="edge28" class="edge">
<title>9dbbbcd66ed44adfb4e63fdfe170e941&#45;&gt;168f63e5c37246f4b10d46eb35427d18</title>
<path fill="none" stroke="#666666" d="M786.83,-1623.23C786.83,-1623.23 786.83,-1699 786.83,-1699"/>
<polygon fill="#666666" stroke="#666666" points="783.33,-1699 786.83,-1709 790.33,-1699 783.33,-1699"/>
<text text-anchor="middle" x="892.5" y="-1662.6" font-family="Sans-Serif" font-size="13.00" fill="#2d3436">26. Return Result</text>
</g>
<!-- f1e9ba9ccdb24d3c891ce760c1876440 -->
<g id="node4" class="node">
<title>f1e9ba9ccdb24d3c891ce760c1876440</title>
<polygon fill="#e6ffe6" stroke="transparent" points="820.5,-1400 719.5,-1400 719.5,-1263 820.5,-1263 820.5,-1400"/>
<image xlink:href="/usr/local/lib/python3.10/dist-packages/resources/programming/language/java.png" width="101px" height="101px" preserveAspectRatio="xMinYMin meet" x="719.5" y="-1382"/>
<text text-anchor="middle" x="770" y="-1266.4" font-family="Sans-Serif" font-size="12.00" fill="#333333">Workflow Service</text>
</g>
<!-- 9dbbbcd66ed44adfb4e63fdfe170e941&#45;&gt;f1e9ba9ccdb24d3c891ce760c1876440 -->
<g id="edge3" class="edge">
<title>9dbbbcd66ed44adfb4e63fdfe170e941&#45;&gt;f1e9ba9ccdb24d3c891ce760c1876440</title>
<path fill="none" stroke="#666666" d="M753.17,-1485.77C753.17,-1485.77 753.17,-1410 753.17,-1410"/>
<polygon fill="#666666" stroke="#666666" points="756.67,-1410 753.17,-1400 749.67,-1410 756.67,-1410"/>
<text text-anchor="middle" x="738.5" y="-1439.6" font-family="Sans-Serif" font-size="13.00" fill="#2d3436">3. Create Workflow</text>
</g>
<!-- f1e9ba9ccdb24d3c891ce760c1876440&#45;&gt;9dbbbcd66ed44adfb4e63fdfe170e941 -->
<g id="edge27" class="edge">
<title>f1e9ba9ccdb24d3c891ce760c1876440&#45;&gt;9dbbbcd66ed44adfb4e63fdfe170e941</title>
<path fill="none" stroke="#666666" d="M786.83,-1400.23C786.83,-1400.23 786.83,-1476 786.83,-1476"/>
<polygon fill="#666666" stroke="#666666" points="783.33,-1476 786.83,-1486 790.33,-1476 783.33,-1476"/>
<text text-anchor="middle" x="922.5" y="-1439.6" font-family="Sans-Serif" font-size="13.00" fill="#2d3436">25. Return Result</text>
</g>
<!-- a9f3790aae3e4b48a962a0ab14d56637 -->
<g id="node5" class="node">
<title>a9f3790aae3e4b48a962a0ab14d56637</title>
<polygon fill="#e6ffe6" stroke="transparent" points="327.5,-1177 226.5,-1177 226.5,-1040 327.5,-1040 327.5,-1177"/>
<image xlink:href="/usr/local/lib/python3.10/dist-packages/resources/programming/language/java.png" width="101px" height="101px" preserveAspectRatio="xMinYMin meet" x="226.5" y="-1159"/>
<text text-anchor="middle" x="277" y="-1043.4" font-family="Sans-Serif" font-size="12.00" fill="#333333">Workflow State Manager</text>
</g>
<!-- f1e9ba9ccdb24d3c891ce760c1876440&#45;&gt;a9f3790aae3e4b48a962a0ab14d56637 -->
<g id="edge8" class="edge">
<title>f1e9ba9ccdb24d3c891ce760c1876440&#45;&gt;a9f3790aae3e4b48a962a0ab14d56637</title>
<path fill="none" stroke="#666666" d="M730.7,-1262.78C730.7,-1204.74 730.7,-1131 730.7,-1131 730.7,-1131 337.72,-1131 337.72,-1131"/>
<polygon fill="#666666" stroke="#666666" points="337.72,-1127.5 327.72,-1131 337.72,-1134.5 337.72,-1127.5"/>
<text text-anchor="middle" x="337.5" y="-1216.6" font-family="Sans-Serif" font-size="13.00" fill="#2d3436">8. Start Workflow</text>
</g>
<!-- 2d83452975db497d8aac64c5b94de3dd -->
<g id="node6" class="node">
<title>2d83452975db497d8aac64c5b94de3dd</title>
<polygon fill="#e6ffe6" stroke="transparent" points="713.5,-954 612.5,-954 612.5,-817 713.5,-817 713.5,-954"/>
<image xlink:href="/usr/local/lib/python3.10/dist-packages/resources/programming/language/java.png" width="101px" height="101px" preserveAspectRatio="xMinYMin meet" x="612.5" y="-936"/>
<text text-anchor="middle" x="663" y="-820.4" font-family="Sans-Serif" font-size="12.00" fill="#333333">Operator Manager</text>
</g>
<!-- f1e9ba9ccdb24d3c891ce760c1876440&#45;&gt;2d83452975db497d8aac64c5b94de3dd -->
<g id="edge4" class="edge">
<title>f1e9ba9ccdb24d3c891ce760c1876440&#45;&gt;2d83452975db497d8aac64c5b94de3dd</title>
<path fill="none" stroke="#666666" d="M753.1,-1262.92C753.1,-1145.62 753.1,-919 753.1,-919 753.1,-919 723.58,-919 723.58,-919"/>
<polygon fill="#666666" stroke="#666666" points="723.58,-915.5 713.58,-919 723.58,-922.5 723.58,-915.5"/>
<text text-anchor="middle" x="961" y="-1105.1" font-family="Sans-Serif" font-size="13.00" fill="#2d3436">4. Parse Definition</text>
</g>
<!-- 654473b592ab43da85f375b12193f6ae -->
<g id="node11" class="node">
<title>654473b592ab43da85f375b12193f6ae</title>
<polygon fill="#e6ffe6" stroke="transparent" points="1160.5,-558 1059.5,-558 1059.5,-421 1160.5,-421 1160.5,-558"/>
<image xlink:href="/usr/local/lib/python3.10/dist-packages/resources/programming/language/java.png" width="101px" height="101px" preserveAspectRatio="xMinYMin meet" x="1059.5" y="-540"/>
<text text-anchor="middle" x="1110" y="-424.4" font-family="Sans-Serif" font-size="12.00" fill="#333333">Workflow DAO</text>
</g>
<!-- f1e9ba9ccdb24d3c891ce760c1876440&#45;&gt;654473b592ab43da85f375b12193f6ae -->
<g id="edge6" class="edge">
<title>f1e9ba9ccdb24d3c891ce760c1876440&#45;&gt;654473b592ab43da85f375b12193f6ae</title>
<path fill="none" stroke="#666666" d="M810.9,-1262.9C810.9,-1069.7 810.9,-535 810.9,-535 810.9,-535 1049.26,-535 1049.26,-535"/>
<polygon fill="#666666" stroke="#666666" points="1049.26,-538.5 1059.26,-535 1049.26,-531.5 1049.26,-538.5"/>
<text text-anchor="middle" x="1167.5" y="-993.6" font-family="Sans-Serif" font-size="13.00" fill="#2d3436">6. Save Workflow</text>
</g>
<!-- f1e9ba9ccdb24d3c891ce760c1876440&#45;&gt;654473b592ab43da85f375b12193f6ae -->
<g id="edge25" class="edge">
<title>f1e9ba9ccdb24d3c891ce760c1876440&#45;&gt;654473b592ab43da85f375b12193f6ae</title>
<path fill="none" stroke="#666666" d="M807.7,-1262.69C807.7,-1065.42 807.7,-512 807.7,-512 807.7,-512 1049.4,-512 1049.4,-512"/>
<polygon fill="#666666" stroke="#666666" points="1049.4,-515.5 1059.4,-512 1049.4,-508.5 1049.4,-515.5"/>
<text text-anchor="middle" x="1365" y="-993.6" font-family="Sans-Serif" font-size="13.00" fill="#2d3436">23. Complete Workflow</text>
</g>
<!-- a9f3790aae3e4b48a962a0ab14d56637&#45;&gt;f1e9ba9ccdb24d3c891ce760c1876440 -->
<g id="edge24" class="edge">
<title>a9f3790aae3e4b48a962a0ab14d56637&#45;&gt;f1e9ba9ccdb24d3c891ce760c1876440</title>
<path fill="none" stroke="#666666" d="M327.64,-1085C448.13,-1085 741.9,-1085 741.9,-1085 741.9,-1085 741.9,-1252.84 741.9,-1252.84"/>
<polygon fill="#666666" stroke="#666666" points="738.4,-1252.84 741.9,-1262.84 745.4,-1252.84 738.4,-1252.84"/>
<text text-anchor="middle" x="531.5" y="-1216.6" font-family="Sans-Serif" font-size="13.00" fill="#2d3436">22. Check Completion</text>
</g>
<!-- a9f3790aae3e4b48a962a0ab14d56637&#45;&gt;2d83452975db497d8aac64c5b94de3dd -->
<g id="edge9" class="edge">
<title>a9f3790aae3e4b48a962a0ab14d56637&#45;&gt;2d83452975db497d8aac64c5b94de3dd</title>
<path fill="none" stroke="#666666" d="M318.3,-1039.78C318.3,-981.74 318.3,-908 318.3,-908 318.3,-908 602.14,-908 602.14,-908"/>
<polygon fill="#666666" stroke="#666666" points="602.14,-911.5 612.14,-908 602.14,-904.5 602.14,-911.5"/>
<text text-anchor="middle" x="561.5" y="-993.6" font-family="Sans-Serif" font-size="13.00" fill="#2d3436">9. Get Eligible Tasks</text>
</g>
<!-- a9f3790aae3e4b48a962a0ab14d56637&#45;&gt;2d83452975db497d8aac64c5b94de3dd -->
<g id="edge21" class="edge">
<title>a9f3790aae3e4b48a962a0ab14d56637&#45;&gt;2d83452975db497d8aac64c5b94de3dd</title>
<path fill="none" stroke="#666666" d="M313.7,-1039.84C313.7,-966.9 313.7,-862 313.7,-862 313.7,-862 602.21,-862 602.21,-862"/>
<polygon fill="#666666" stroke="#666666" points="602.21,-865.5 612.21,-862 602.21,-858.5 602.21,-865.5"/>
<text text-anchor="middle" x="353.5" y="-993.6" font-family="Sans-Serif" font-size="13.00" fill="#2d3436">19. Process Completion</text>
</g>
<!-- b07bcc58bd5c44d1a3293e15d53ada3b -->
<g id="node9" class="node">
<title>b07bcc58bd5c44d1a3293e15d53ada3b</title>
<polygon fill="#e6ffe6" stroke="transparent" points="304.5,-954 203.5,-954 203.5,-817 304.5,-817 304.5,-954"/>
<image xlink:href="/usr/local/lib/python3.10/dist-packages/resources/programming/language/java.png" width="101px" height="101px" preserveAspectRatio="xMinYMin meet" x="203.5" y="-936"/>
<text text-anchor="middle" x="254" y="-820.4" font-family="Sans-Serif" font-size="12.00" fill="#333333">Task Handler Registry</text>
</g>
<!-- a9f3790aae3e4b48a962a0ab14d56637&#45;&gt;b07bcc58bd5c44d1a3293e15d53ada3b -->
<g id="edge15" class="edge">
<title>a9f3790aae3e4b48a962a0ab14d56637&#45;&gt;b07bcc58bd5c44d1a3293e15d53ada3b</title>
<path fill="none" stroke="#666666" d="M265.5,-1039.77C265.5,-1039.77 265.5,-964 265.5,-964"/>
<polygon fill="#666666" stroke="#666666" points="269,-964 265.5,-954 262,-964 269,-964"/>
<text text-anchor="middle" x="152.5" y="-993.6" font-family="Sans-Serif" font-size="13.00" fill="#2d3436">13. Execute Tasks</text>
</g>
<!-- 2d83452975db497d8aac64c5b94de3dd&#45;&gt;f1e9ba9ccdb24d3c891ce760c1876440 -->
<g id="edge5" class="edge">
<title>2d83452975db497d8aac64c5b94de3dd&#45;&gt;f1e9ba9ccdb24d3c891ce760c1876440</title>
<path fill="none" stroke="#666666" d="M713.65,-885C738.98,-885 764.3,-885 764.3,-885 764.3,-885 764.3,-1252.71 764.3,-1252.71"/>
<polygon fill="#666666" stroke="#666666" points="760.8,-1252.71 764.3,-1262.71 767.8,-1252.71 760.8,-1252.71"/>
<text text-anchor="middle" x="712" y="-1105.1" font-family="Sans-Serif" font-size="13.00" fill="#2d3436">5. Initialize Operators</text>
</g>
<!-- 56ce583359c44349865c759398f621ba -->
<g id="node7" class="node">
<title>56ce583359c44349865c759398f621ba</title>
<polygon fill="#e6ffe6" stroke="transparent" points="592.5,-731 491.5,-731 491.5,-594 592.5,-594 592.5,-731"/>
<image xlink:href="/usr/local/lib/python3.10/dist-packages/resources/programming/language/java.png" width="101px" height="101px" preserveAspectRatio="xMinYMin meet" x="491.5" y="-713"/>
<text text-anchor="middle" x="542" y="-597.4" font-family="Sans-Serif" font-size="12.00" fill="#333333">Sequence Operator</text>
</g>
<!-- 2d83452975db497d8aac64c5b94de3dd&#45;&gt;56ce583359c44349865c759398f621ba -->
<g id="edge10" class="edge">
<title>2d83452975db497d8aac64c5b94de3dd&#45;&gt;56ce583359c44349865c759398f621ba</title>
<path fill="none" stroke="#666666" d="M643.5,-816.92C643.5,-751.22 643.5,-662 643.5,-662 643.5,-662 602.75,-662 602.75,-662"/>
<polygon fill="#666666" stroke="#666666" points="602.75,-658.5 592.75,-662 602.75,-665.5 602.75,-658.5"/>
<text text-anchor="middle" x="597.5" y="-770.6" font-family="Sans-Serif" font-size="13.00" fill="#2d3436">10a. Sequence Tasks</text>
</g>
<!-- 211d4abf23274775ab259fe9651362c8 -->
<g id="node8" class="node">
<title>211d4abf23274775ab259fe9651362c8</title>
<polygon fill="#e6ffe6" stroke="transparent" points="775.5,-731 674.5,-731 674.5,-594 775.5,-594 775.5,-731"/>
<image xlink:href="/usr/local/lib/python3.10/dist-packages/resources/programming/language/java.png" width="101px" height="101px" preserveAspectRatio="xMinYMin meet" x="674.5" y="-713"/>
<text text-anchor="middle" x="725" y="-597.4" font-family="Sans-Serif" font-size="12.00" fill="#333333">Dynamic Fork Operator</text>
</g>
<!-- 2d83452975db497d8aac64c5b94de3dd&#45;&gt;211d4abf23274775ab259fe9651362c8 -->
<g id="edge11" class="edge">
<title>2d83452975db497d8aac64c5b94de3dd&#45;&gt;211d4abf23274775ab259fe9651362c8</title>
<path fill="none" stroke="#666666" d="M694,-816.77C694,-816.77 694,-741 694,-741"/>
<polygon fill="#666666" stroke="#666666" points="697.5,-741 694,-731 690.5,-741 697.5,-741"/>
<text text-anchor="middle" x="781" y="-770.6" font-family="Sans-Serif" font-size="13.00" fill="#2d3436">10b. Fork Tasks</text>
</g>
<!-- 2d83452975db497d8aac64c5b94de3dd&#45;&gt;654473b592ab43da85f375b12193f6ae -->
<g id="edge22" class="edge">
<title>2d83452975db497d8aac64c5b94de3dd&#45;&gt;654473b592ab43da85f375b12193f6ae</title>
<path fill="none" stroke="#666666" d="M713.84,-851C831,-851 1110,-851 1110,-851 1110,-851 1110,-568.35 1110,-568.35"/>
<polygon fill="#666666" stroke="#666666" points="1113.5,-568.35 1110,-558.35 1106.5,-568.35 1113.5,-568.35"/>
<text text-anchor="middle" x="985" y="-770.6" font-family="Sans-Serif" font-size="13.00" fill="#2d3436">20. Update Operator State</text>
</g>
<!-- ff1248fe6c5346b4be7e05d518e72cd3 -->
<g id="node12" class="node">
<title>ff1248fe6c5346b4be7e05d518e72cd3</title>
<polygon fill="#e6ffe6" stroke="transparent" points="592.5,-385 491.5,-385 491.5,-248 592.5,-248 592.5,-385"/>
<image xlink:href="/usr/local/lib/python3.10/dist-packages/resources/programming/language/java.png" width="101px" height="101px" preserveAspectRatio="xMinYMin meet" x="491.5" y="-367"/>
<text text-anchor="middle" x="542" y="-251.4" font-family="Sans-Serif" font-size="12.00" fill="#333333">Task DAO</text>
</g>
<!-- 56ce583359c44349865c759398f621ba&#45;&gt;ff1248fe6c5346b4be7e05d518e72cd3 -->
<g id="edge12" class="edge">
<title>56ce583359c44349865c759398f621ba&#45;&gt;ff1248fe6c5346b4be7e05d518e72cd3</title>
<path fill="none" stroke="#666666" d="M542,-593.73C542,-593.73 542,-395.14 542,-395.14"/>
<polygon fill="#666666" stroke="#666666" points="545.5,-395.14 542,-385.14 538.5,-395.14 545.5,-395.14"/>
<text text-anchor="middle" x="601" y="-486.1" font-family="Sans-Serif" font-size="13.00" fill="#2d3436">11a. Create Tasks</text>
</g>
<!-- 211d4abf23274775ab259fe9651362c8&#45;&gt;ff1248fe6c5346b4be7e05d518e72cd3 -->
<g id="edge13" class="edge">
<title>211d4abf23274775ab259fe9651362c8&#45;&gt;ff1248fe6c5346b4be7e05d518e72cd3</title>
<path fill="none" stroke="#666666" d="M725,-593.92C725,-501.93 725,-350 725,-350 725,-350 602.98,-350 602.98,-350"/>
<polygon fill="#666666" stroke="#666666" points="602.98,-346.5 592.98,-350 602.98,-353.5 602.98,-346.5"/>
<text text-anchor="middle" x="784" y="-486.1" font-family="Sans-Serif" font-size="13.00" fill="#2d3436">11b. Create Tasks</text>
</g>
<!-- 6e3ee409b6af4befae1237b3276d6a53 -->
<g id="node10" class="node">
<title>6e3ee409b6af4befae1237b3276d6a53</title>
<polygon fill="#e6ffe6" stroke="transparent" points="303.5,-731 202.5,-731 202.5,-594 303.5,-594 303.5,-731"/>
<image xlink:href="/usr/local/lib/python3.10/dist-packages/resources/programming/language/java.png" width="101px" height="101px" preserveAspectRatio="xMinYMin meet" x="202.5" y="-713"/>
<text text-anchor="middle" x="253" y="-597.4" font-family="Sans-Serif" font-size="12.00" fill="#333333">Task Handler</text>
</g>
<!-- b07bcc58bd5c44d1a3293e15d53ada3b&#45;&gt;6e3ee409b6af4befae1237b3276d6a53 -->
<g id="edge16" class="edge">
<title>b07bcc58bd5c44d1a3293e15d53ada3b&#45;&gt;6e3ee409b6af4befae1237b3276d6a53</title>
<path fill="none" stroke="#666666" d="M236.83,-816.77C236.83,-816.77 236.83,-741 236.83,-741"/>
<polygon fill="#666666" stroke="#666666" points="240.33,-741 236.83,-731 233.33,-741 240.33,-741"/>
<text text-anchor="middle" x="307" y="-770.6" font-family="Sans-Serif" font-size="13.00" fill="#2d3436">14. Get Handler</text>
</g>
<!-- 6e3ee409b6af4befae1237b3276d6a53&#45;&gt;a9f3790aae3e4b48a962a0ab14d56637 -->
<g id="edge20" class="edge">
<title>6e3ee409b6af4befae1237b3276d6a53&#45;&gt;a9f3790aae3e4b48a962a0ab14d56637</title>
<path fill="none" stroke="#666666" d="M303.52,-662C306.96,-662 309.1,-662 309.1,-662 309.1,-662 309.1,-1029.71 309.1,-1029.71"/>
<polygon fill="#666666" stroke="#666666" points="305.6,-1029.71 309.1,-1039.71 312.6,-1029.71 305.6,-1029.71"/>
<text text-anchor="middle" x="72.5" y="-882.1" font-family="Sans-Serif" font-size="13.00" fill="#2d3436">18. Notify Completion</text>
</g>
<!-- 6e3ee409b6af4befae1237b3276d6a53&#45;&gt;6e3ee409b6af4befae1237b3276d6a53 -->
<g id="edge17" class="edge">
<title>6e3ee409b6af4befae1237b3276d6a53&#45;&gt;6e3ee409b6af4befae1237b3276d6a53</title>
<path fill="none" stroke="#666666" d="M270.17,-731.21C270.17,-754.16 270.17,-774 270.17,-774 270.17,-774 322.9,-774 322.9,-774 322.9,-774 322.9,-576 322.9,-576 322.9,-576 269.83,-576 269.83,-576 269.83,-576 269.83,-583.92 269.83,-583.92"/>
<polygon fill="#666666" stroke="#666666" points="266.33,-583.92 269.83,-593.92 273.33,-583.92 266.33,-583.92"/>
</g>
<!-- 6e3ee409b6af4befae1237b3276d6a53&#45;&gt;ff1248fe6c5346b4be7e05d518e72cd3 -->
<g id="edge18" class="edge">
<title>6e3ee409b6af4befae1237b3276d6a53&#45;&gt;ff1248fe6c5346b4be7e05d518e72cd3</title>
<path fill="none" stroke="#666666" d="M236.17,-593.63C236.17,-492.58 236.17,-316 236.17,-316 236.17,-316 481.5,-316 481.5,-316"/>
<polygon fill="#666666" stroke="#666666" points="481.5,-319.5 491.5,-316 481.5,-312.5 481.5,-319.5"/>
<text text-anchor="middle" x="366.5" y="-486.1" font-family="Sans-Serif" font-size="13.00" fill="#2d3436">16. Complete Task</text>
</g>
<!-- 23a2ff776e844923be3b8e06edfed81c -->
<g id="node13" class="node">
<title>23a2ff776e844923be3b8e06edfed81c</title>
<polygon fill="#e6ffe6" stroke="transparent" points="905.5,-162 804.5,-162 804.5,-25 905.5,-25 905.5,-162"/>
<image xlink:href="/usr/local/lib/python3.10/dist-packages/resources/onprem/database/postgresql.png" width="101px" height="101px" preserveAspectRatio="xMinYMin meet" x="804.5" y="-144"/>
<text text-anchor="middle" x="855" y="-28.4" font-family="Sans-Serif" font-size="12.00" fill="#333333">Database</text>
</g>
<!-- 654473b592ab43da85f375b12193f6ae&#45;&gt;23a2ff776e844923be3b8e06edfed81c -->
<g id="edge7" class="edge">
<title>654473b592ab43da85f375b12193f6ae&#45;&gt;23a2ff776e844923be3b8e06edfed81c</title>
<path fill="none" stroke="#666666" d="M1059.23,-489C981.46,-489 841.75,-489 841.75,-489 841.75,-489 841.75,-172.39 841.75,-172.39"/>
<polygon fill="#666666" stroke="#666666" points="845.25,-172.39 841.75,-162.39 838.25,-172.39 845.25,-172.39"/>
<text text-anchor="middle" x="1377.5" y="-313.1" font-family="Sans-Serif" font-size="13.00" fill="#2d3436">7. Persist</text>
</g>
<!-- 654473b592ab43da85f375b12193f6ae&#45;&gt;23a2ff776e844923be3b8e06edfed81c -->
<g id="edge23" class="edge">
<title>654473b592ab43da85f375b12193f6ae&#45;&gt;23a2ff776e844923be3b8e06edfed81c</title>
<path fill="none" stroke="#666666" d="M1059.42,-466C987.16,-466 863,-466 863,-466 863,-466 863,-172.26 863,-172.26"/>
<polygon fill="#666666" stroke="#666666" points="866.5,-172.26 863,-162.26 859.5,-172.26 866.5,-172.26"/>
<text text-anchor="middle" x="924.5" y="-313.1" font-family="Sans-Serif" font-size="13.00" fill="#2d3436">21. Update Workflow</text>
</g>
<!-- 654473b592ab43da85f375b12193f6ae&#45;&gt;23a2ff776e844923be3b8e06edfed81c -->
<g id="edge26" class="edge">
<title>654473b592ab43da85f375b12193f6ae&#45;&gt;23a2ff776e844923be3b8e06edfed81c</title>
<path fill="none" stroke="#666666" d="M1059.34,-443C992.78,-443 884.25,-443 884.25,-443 884.25,-443 884.25,-172.13 884.25,-172.13"/>
<polygon fill="#666666" stroke="#666666" points="887.75,-172.13 884.25,-162.13 880.75,-172.13 887.75,-172.13"/>
<text text-anchor="middle" x="1170.5" y="-313.1" font-family="Sans-Serif" font-size="13.00" fill="#2d3436">24. Update Status</text>
</g>
<!-- ff1248fe6c5346b4be7e05d518e72cd3&#45;&gt;23a2ff776e844923be3b8e06edfed81c -->
<g id="edge14" class="edge">
<title>ff1248fe6c5346b4be7e05d518e72cd3&#45;&gt;23a2ff776e844923be3b8e06edfed81c</title>
<path fill="none" stroke="#666666" d="M592.82,-316C672.36,-316 817.3,-316 817.3,-316 817.3,-316 817.3,-172.07 817.3,-172.07"/>
<polygon fill="#666666" stroke="#666666" points="820.8,-172.07 817.3,-162.07 813.8,-172.07 820.8,-172.07"/>
<text text-anchor="middle" x="765.5" y="-201.6" font-family="Sans-Serif" font-size="13.00" fill="#2d3436">12. Persist Tasks</text>
</g>
<!-- ff1248fe6c5346b4be7e05d518e72cd3&#45;&gt;23a2ff776e844923be3b8e06edfed81c -->
<g id="edge19" class="edge">
<title>ff1248fe6c5346b4be7e05d518e72cd3&#45;&gt;23a2ff776e844923be3b8e06edfed81c</title>
<path fill="none" stroke="#666666" d="M592.54,-282C671.23,-282 814.1,-282 814.1,-282 814.1,-282 814.1,-172.09 814.1,-172.09"/>
<polygon fill="#666666" stroke="#666666" points="817.6,-172.09 814.1,-162.09 810.6,-172.09 817.6,-172.09"/>
<text text-anchor="middle" x="594.5" y="-201.6" font-family="Sans-Serif" font-size="13.00" fill="#2d3436">17. Update Task</text>
</g>
</g>
</svg>
