<?xml version="1.0" encoding="UTF-8" standalone="no"?>
<!DOCTYPE svg PUBLIC "-//W3C//DTD SVG 1.1//EN"
 "http://www.w3.org/Graphics/SVG/1.1/DTD/svg11.dtd">
<!-- Generated by graphviz version 2.43.0 (0)
 -->
<!-- Title: Planning Workflow Engine &#45; System Architecture Pages: 1 -->
<svg width="1762pt" height="1623pt"
 viewBox="0.00 0.00 1761.50 1623.00" xmlns="http://www.w3.org/2000/svg" xmlns:xlink="http://www.w3.org/1999/xlink">
<g id="graph0" class="graph" transform="scale(1 1) rotate(0) translate(36 1587)">
<title>Planning Workflow Engine &#45; System Architecture</title>
<polygon fill="white" stroke="transparent" points="-36,36 -36,-1587 1725.5,-1587 1725.5,36 -36,36"/>
<text text-anchor="middle" x="844.75" y="-9" font-family="Sans-Serif" font-size="15.00" fill="#333333">Planning Workflow Engine &#45; System Architecture</text>
<g id="clust1" class="cluster">
<title>cluster_Host Application</title>
<path fill="#e5f5fd" stroke="#aeb6be" d="M890,-1215C890,-1215 984,-1215 984,-1215 990,-1215 996,-1221 996,-1227 996,-1227 996,-1377 996,-1377 996,-1383 990,-1389 984,-1389 984,-1389 890,-1389 890,-1389 884,-1389 878,-1383 878,-1377 878,-1377 878,-1227 878,-1227 878,-1221 884,-1215 890,-1215"/>
<text text-anchor="middle" x="934.5" y="-1375.4" font-family="Sans-Serif" font-size="12.00" fill="#333333">Host Application</text>
</g>
<g id="clust2" class="cluster">
<title>cluster_Planning Workflow Engine</title>
<path fill="#e5f5fd" stroke="#aeb6be" d="M20,-33C20,-33 1568,-33 1568,-33 1574,-33 1580,-39 1580,-45 1580,-45 1580,-1195 1580,-1195 1580,-1201 1574,-1207 1568,-1207 1568,-1207 20,-1207 20,-1207 14,-1207 8,-1201 8,-1195 8,-1195 8,-45 8,-45 8,-39 14,-33 20,-33"/>
<text text-anchor="middle" x="93.5" y="-1193.4" font-family="Sans-Serif" font-size="12.00" fill="#333333">Planning Workflow Engine</text>
</g>
<g id="clust3" class="cluster">
<title>cluster_API Layer</title>
<path fill="#ebf3e7" stroke="#aeb6be" d="M674,-1004C674,-1004 1200,-1004 1200,-1004 1206,-1004 1212,-1010 1212,-1016 1212,-1016 1212,-1166 1212,-1166 1212,-1172 1206,-1178 1200,-1178 1200,-1178 674,-1178 674,-1178 668,-1178 662,-1172 662,-1166 662,-1166 662,-1016 662,-1016 662,-1010 668,-1004 674,-1004"/>
<text text-anchor="middle" x="699" y="-1164.4" font-family="Sans-Serif" font-size="12.00" fill="#333333">API Layer</text>
</g>
<g id="clust4" class="cluster">
<title>cluster_Service Layer</title>
<path fill="#ebf3e7" stroke="#aeb6be" d="M530,-813C530,-813 1488,-813 1488,-813 1494,-813 1500,-819 1500,-825 1500,-825 1500,-975 1500,-975 1500,-981 1494,-987 1488,-987 1488,-987 530,-987 530,-987 524,-987 518,-981 518,-975 518,-975 518,-825 518,-825 518,-819 524,-813 530,-813"/>
<text text-anchor="middle" x="567" y="-973.4" font-family="Sans-Serif" font-size="12.00" fill="#333333">Service Layer</text>
</g>
<g id="clust5" class="cluster">
<title>cluster_Core Components</title>
<path fill="#ebf3e7" stroke="#aeb6be" d="M28,-41C28,-41 714,-41 714,-41 720,-41 726,-47 726,-53 726,-53 726,-784 726,-784 726,-790 720,-796 714,-796 714,-796 28,-796 28,-796 22,-796 16,-790 16,-784 16,-784 16,-53 16,-53 16,-47 22,-41 28,-41"/>
<text text-anchor="middle" x="78" y="-782.4" font-family="Sans-Serif" font-size="12.00" fill="#333333">Core Components</text>
</g>
<g id="clust6" class="cluster">
<title>cluster_Task Handlers</title>
<path fill="#ece8f6" stroke="#aeb6be" d="M36,-49C36,-49 706,-49 706,-49 712,-49 718,-55 718,-61 718,-61 718,-211 718,-211 718,-217 712,-223 706,-223 706,-223 36,-223 36,-223 30,-223 24,-217 24,-211 24,-211 24,-61 24,-61 24,-55 30,-49 36,-49"/>
<text text-anchor="middle" x="73.5" y="-209.4" font-family="Sans-Serif" font-size="12.00" fill="#333333">Task Handlers</text>
</g>
<g id="clust7" class="cluster">
<title>cluster_Operator Components</title>
<path fill="#ece8f6" stroke="#aeb6be" d="M102,-431C102,-431 484,-431 484,-431 490,-431 496,-437 496,-443 496,-443 496,-593 496,-593 496,-599 490,-605 484,-605 484,-605 102,-605 102,-605 96,-605 90,-599 90,-593 90,-593 90,-443 90,-443 90,-437 96,-431 102,-431"/>
<text text-anchor="middle" x="165.5" y="-591.4" font-family="Sans-Serif" font-size="12.00" fill="#333333">Operator Components</text>
</g>
<g id="clust8" class="cluster">
<title>cluster_Data Access Layer</title>
<path fill="#ebf3e7" stroke="#aeb6be" d="M746,-622C746,-622 1560,-622 1560,-622 1566,-622 1572,-628 1572,-634 1572,-634 1572,-784 1572,-784 1572,-790 1566,-796 1560,-796 1560,-796 746,-796 746,-796 740,-796 734,-790 734,-784 734,-784 734,-634 734,-634 734,-628 740,-622 746,-622"/>
<text text-anchor="middle" x="798" y="-782.4" font-family="Sans-Serif" font-size="12.00" fill="#333333">Data Access Layer</text>
</g>
<!-- cd10d7b1a1c7409393fe03d049037ea8 -->
<g id="node1" class="node">
<title>cd10d7b1a1c7409393fe03d049037ea8</title>
<image xlink:href="/usr/local/lib/python3.10/dist-packages/resources/programming/framework/spring.png" width="101px" height="101px" preserveAspectRatio="xMinYMin meet" x="886.5" y="-1342"/>
<text text-anchor="middle" x="937" y="-1226.4" font-family="Sans-Serif" font-size="12.00" fill="#333333">Host Application</text>
</g>
<!-- c38da3a25a684967a0f76d58070fe1d5 -->
<g id="node2" class="node">
<title>c38da3a25a684967a0f76d58070fe1d5</title>
<image xlink:href="/usr/local/lib/python3.10/dist-packages/resources/programming/language/java.png" width="101px" height="101px" preserveAspectRatio="xMinYMin meet" x="670.5" y="-1131"/>
<text text-anchor="middle" x="721" y="-1015.4" font-family="Sans-Serif" font-size="12.00" fill="#333333">WorkflowDefinitionAPI</text>
</g>
<!-- cd10d7b1a1c7409393fe03d049037ea8&#45;&gt;c38da3a25a684967a0f76d58070fe1d5 -->
<g id="edge2" class="edge">
<title>cd10d7b1a1c7409393fe03d049037ea8&#45;&gt;c38da3a25a684967a0f76d58070fe1d5</title>
<path fill="none" stroke="#666666" d="M886.36,-1291C822.51,-1291 721,-1291 721,-1291 721,-1291 721,-1159.13 721,-1159.13"/>
<polygon fill="#666666" stroke="#666666" points="724.5,-1159.13 721,-1149.13 717.5,-1159.13 724.5,-1159.13"/>
</g>
<!-- 3943fde0b89c4fe082a48f17a3007063 -->
<g id="node3" class="node">
<title>3943fde0b89c4fe082a48f17a3007063</title>
<image xlink:href="/usr/local/lib/python3.10/dist-packages/resources/programming/language/java.png" width="101px" height="101px" preserveAspectRatio="xMinYMin meet" x="1102.5" y="-1131"/>
<text text-anchor="middle" x="1153" y="-1015.4" font-family="Sans-Serif" font-size="12.00" fill="#333333">WorkflowExecutionAPI</text>
</g>
<!-- cd10d7b1a1c7409393fe03d049037ea8&#45;&gt;3943fde0b89c4fe082a48f17a3007063 -->
<g id="edge3" class="edge">
<title>cd10d7b1a1c7409393fe03d049037ea8&#45;&gt;3943fde0b89c4fe082a48f17a3007063</title>
<path fill="none" stroke="#666666" d="M987.64,-1291C1051.49,-1291 1153,-1291 1153,-1291 1153,-1291 1153,-1159.13 1153,-1159.13"/>
<polygon fill="#666666" stroke="#666666" points="1156.5,-1159.13 1153,-1149.13 1149.5,-1159.13 1156.5,-1159.13"/>
</g>
<!-- ddd20d56d10344cab352a6bc935729e9 -->
<g id="node4" class="node">
<title>ddd20d56d10344cab352a6bc935729e9</title>
<image xlink:href="/usr/local/lib/python3.10/dist-packages/resources/programming/language/java.png" width="101px" height="101px" preserveAspectRatio="xMinYMin meet" x="814.5" y="-1131"/>
<text text-anchor="middle" x="865" y="-1015.4" font-family="Sans-Serif" font-size="12.00" fill="#333333">TaskManagementAPI</text>
</g>
<!-- cd10d7b1a1c7409393fe03d049037ea8&#45;&gt;ddd20d56d10344cab352a6bc935729e9 -->
<g id="edge4" class="edge">
<title>cd10d7b1a1c7409393fe03d049037ea8&#45;&gt;ddd20d56d10344cab352a6bc935729e9</title>
<path fill="none" stroke="#666666" d="M901,-1222.99C901,-1222.99 901,-1159.02 901,-1159.02"/>
<polygon fill="#666666" stroke="#666666" points="904.5,-1159.02 901,-1149.02 897.5,-1159.02 904.5,-1159.02"/>
</g>
<!-- 05e3aef34a1b4b75a804d05f566b58d2 -->
<g id="node5" class="node">
<title>05e3aef34a1b4b75a804d05f566b58d2</title>
<image xlink:href="/usr/local/lib/python3.10/dist-packages/resources/programming/language/java.png" width="101px" height="101px" preserveAspectRatio="xMinYMin meet" x="958.5" y="-1131"/>
<text text-anchor="middle" x="1009" y="-1015.4" font-family="Sans-Serif" font-size="12.00" fill="#333333">QueryAndReportAPI</text>
</g>
<!-- cd10d7b1a1c7409393fe03d049037ea8&#45;&gt;05e3aef34a1b4b75a804d05f566b58d2 -->
<g id="edge5" class="edge">
<title>cd10d7b1a1c7409393fe03d049037ea8&#45;&gt;05e3aef34a1b4b75a804d05f566b58d2</title>
<path fill="none" stroke="#666666" d="M973,-1222.99C973,-1222.99 973,-1159.02 973,-1159.02"/>
<polygon fill="#666666" stroke="#666666" points="976.5,-1159.02 973,-1149.02 969.5,-1159.02 976.5,-1159.02"/>
</g>
<!-- d7213c0540d14285ac110d81e1ac0bde -->
<g id="node6" class="node">
<title>d7213c0540d14285ac110d81e1ac0bde</title>
<image xlink:href="/usr/local/lib/python3.10/dist-packages/resources/programming/language/java.png" width="101px" height="101px" preserveAspectRatio="xMinYMin meet" x="670.5" y="-940"/>
<text text-anchor="middle" x="721" y="-824.4" font-family="Sans-Serif" font-size="12.00" fill="#333333">WorkflowDefinitionService</text>
</g>
<!-- c38da3a25a684967a0f76d58070fe1d5&#45;&gt;d7213c0540d14285ac110d81e1ac0bde -->
<g id="edge6" class="edge">
<title>c38da3a25a684967a0f76d58070fe1d5&#45;&gt;d7213c0540d14285ac110d81e1ac0bde</title>
<path fill="none" stroke="#666666" d="M721,-1011.81C721,-1011.81 721,-968.22 721,-968.22"/>
<polygon fill="#666666" stroke="#666666" points="724.5,-968.22 721,-958.22 717.5,-968.22 724.5,-968.22"/>
</g>
<!-- 228f5e0bf5844a36a025c3e48d41e4bd -->
<g id="node7" class="node">
<title>228f5e0bf5844a36a025c3e48d41e4bd</title>
<image xlink:href="/usr/local/lib/python3.10/dist-packages/resources/programming/language/java.png" width="101px" height="101px" preserveAspectRatio="xMinYMin meet" x="814.5" y="-940"/>
<text text-anchor="middle" x="865" y="-824.4" font-family="Sans-Serif" font-size="12.00" fill="#333333">WorkflowInstanceService</text>
</g>
<!-- 3943fde0b89c4fe082a48f17a3007063&#45;&gt;228f5e0bf5844a36a025c3e48d41e4bd -->
<g id="edge7" class="edge">
<title>3943fde0b89c4fe082a48f17a3007063&#45;&gt;228f5e0bf5844a36a025c3e48d41e4bd</title>
<path fill="none" stroke="#666666" d="M1153,-1011.86C1153,-996.67 1153,-985 1153,-985 1153,-985 890.25,-985 890.25,-985 890.25,-985 890.25,-968.14 890.25,-968.14"/>
<polygon fill="#666666" stroke="#666666" points="893.75,-968.14 890.25,-958.14 886.75,-968.14 893.75,-968.14"/>
</g>
<!-- c7bededa43a54871a568a400cf2ba0e5 -->
<g id="node11" class="node">
<title>c7bededa43a54871a568a400cf2ba0e5</title>
<image xlink:href="/usr/local/lib/python3.10/dist-packages/resources/programming/language/java.png" width="101px" height="101px" preserveAspectRatio="xMinYMin meet" x="1390.5" y="-940"/>
<text text-anchor="middle" x="1441" y="-824.4" font-family="Sans-Serif" font-size="12.00" fill="#333333">WorkflowControlService</text>
</g>
<!-- 3943fde0b89c4fe082a48f17a3007063&#45;&gt;c7bededa43a54871a568a400cf2ba0e5 -->
<g id="edge8" class="edge">
<title>3943fde0b89c4fe082a48f17a3007063&#45;&gt;c7bededa43a54871a568a400cf2ba0e5</title>
<path fill="none" stroke="#666666" d="M1203.83,-1080C1286.5,-1080 1441,-1080 1441,-1080 1441,-1080 1441,-968.01 1441,-968.01"/>
<polygon fill="#666666" stroke="#666666" points="1444.5,-968.01 1441,-958.01 1437.5,-968.01 1444.5,-968.01"/>
</g>
<!-- f41e6cf5528b4edbbf40e14f40ecc73f -->
<g id="node9" class="node">
<title>f41e6cf5528b4edbbf40e14f40ecc73f</title>
<image xlink:href="/usr/local/lib/python3.10/dist-packages/resources/programming/language/java.png" width="101px" height="101px" preserveAspectRatio="xMinYMin meet" x="1246.5" y="-940"/>
<text text-anchor="middle" x="1297" y="-824.4" font-family="Sans-Serif" font-size="12.00" fill="#333333">TaskInstanceService</text>
</g>
<!-- ddd20d56d10344cab352a6bc935729e9&#45;&gt;f41e6cf5528b4edbbf40e14f40ecc73f -->
<g id="edge9" class="edge">
<title>ddd20d56d10344cab352a6bc935729e9&#45;&gt;f41e6cf5528b4edbbf40e14f40ecc73f</title>
<path fill="none" stroke="#666666" d="M865,-1011.77C865,-989.77 865,-971 865,-971 865,-971 1297,-971 1297,-971 1297,-971 1297,-968.27 1297,-968.27"/>
<polygon fill="#666666" stroke="#666666" points="1300.5,-968.27 1297,-958.27 1293.5,-968.27 1300.5,-968.27"/>
</g>
<!-- 988bb0b2d31642e598a42cf98e1785b4 -->
<g id="node10" class="node">
<title>988bb0b2d31642e598a42cf98e1785b4</title>
<image xlink:href="/usr/local/lib/python3.10/dist-packages/resources/programming/language/java.png" width="101px" height="101px" preserveAspectRatio="xMinYMin meet" x="526.5" y="-940"/>
<text text-anchor="middle" x="577" y="-824.4" font-family="Sans-Serif" font-size="12.00" fill="#333333">TaskCompletionService</text>
</g>
<!-- ddd20d56d10344cab352a6bc935729e9&#45;&gt;988bb0b2d31642e598a42cf98e1785b4 -->
<g id="edge10" class="edge">
<title>ddd20d56d10344cab352a6bc935729e9&#45;&gt;988bb0b2d31642e598a42cf98e1785b4</title>
<path fill="none" stroke="#666666" d="M839.75,-1012C839.75,-1003.65 839.75,-998 839.75,-998 839.75,-998 577,-998 577,-998 577,-998 577,-968.21 577,-968.21"/>
<polygon fill="#666666" stroke="#666666" points="580.5,-968.21 577,-958.21 573.5,-968.21 580.5,-968.21"/>
</g>
<!-- 21ee717519154a5fa70a4451edbc3f1e -->
<g id="node12" class="node">
<title>21ee717519154a5fa70a4451edbc3f1e</title>
<image xlink:href="/usr/local/lib/python3.10/dist-packages/resources/programming/language/java.png" width="101px" height="101px" preserveAspectRatio="xMinYMin meet" x="958.5" y="-940"/>
<text text-anchor="middle" x="1009" y="-824.4" font-family="Sans-Serif" font-size="12.00" fill="#333333">HistoryAndAuditService</text>
</g>
<!-- 05e3aef34a1b4b75a804d05f566b58d2&#45;&gt;21ee717519154a5fa70a4451edbc3f1e -->
<g id="edge11" class="edge">
<title>05e3aef34a1b4b75a804d05f566b58d2&#45;&gt;21ee717519154a5fa70a4451edbc3f1e</title>
<path fill="none" stroke="#666666" d="M1009,-1011.81C1009,-1011.81 1009,-968.22 1009,-968.22"/>
<polygon fill="#666666" stroke="#666666" points="1012.5,-968.22 1009,-958.22 1005.5,-968.22 1012.5,-968.22"/>
</g>
<!-- 9d62e68659dc4d308d7055746307aaad -->
<g id="node25" class="node">
<title>9d62e68659dc4d308d7055746307aaad</title>
<image xlink:href="/usr/local/lib/python3.10/dist-packages/resources/programming/language/java.png" width="101px" height="101px" preserveAspectRatio="xMinYMin meet" x="552.5" y="-749"/>
<text text-anchor="middle" x="603" y="-633.4" font-family="Sans-Serif" font-size="12.00" fill="#333333">WorkflowJsonParser</text>
</g>
<!-- d7213c0540d14285ac110d81e1ac0bde&#45;&gt;9d62e68659dc4d308d7055746307aaad -->
<g id="edge12" class="edge">
<title>d7213c0540d14285ac110d81e1ac0bde&#45;&gt;9d62e68659dc4d308d7055746307aaad</title>
<path fill="none" stroke="#666666" d="M670.48,-889C654.3,-889 640.5,-889 640.5,-889 640.5,-889 640.5,-777.01 640.5,-777.01"/>
<polygon fill="#666666" stroke="#666666" points="644,-777.01 640.5,-767.01 637,-777.01 644,-777.01"/>
</g>
<!-- 5ca207e79bff471998650352f7a5855b -->
<g id="node26" class="node">
<title>5ca207e79bff471998650352f7a5855b</title>
<image xlink:href="/usr/local/lib/python3.10/dist-packages/resources/programming/language/java.png" width="101px" height="101px" preserveAspectRatio="xMinYMin meet" x="742.5" y="-749"/>
<text text-anchor="middle" x="793" y="-633.4" font-family="Sans-Serif" font-size="12.00" fill="#333333">WorkflowDefinitionDAO</text>
</g>
<!-- d7213c0540d14285ac110d81e1ac0bde&#45;&gt;5ca207e79bff471998650352f7a5855b -->
<g id="edge24" class="edge">
<title>d7213c0540d14285ac110d81e1ac0bde&#45;&gt;5ca207e79bff471998650352f7a5855b</title>
<path fill="none" stroke="#666666" d="M757,-820.81C757,-820.81 757,-777.22 757,-777.22"/>
<polygon fill="#666666" stroke="#666666" points="760.5,-777.22 757,-767.22 753.5,-777.22 760.5,-777.22"/>
</g>
<!-- 6951a0056e86407dbbb2bc97b99a1f11 -->
<g id="node19" class="node">
<title>6951a0056e86407dbbb2bc97b99a1f11</title>
<image xlink:href="/usr/local/lib/python3.10/dist-packages/resources/programming/language/java.png" width="101px" height="101px" preserveAspectRatio="xMinYMin meet" x="386.5" y="-558"/>
<text text-anchor="middle" x="437" y="-442.4" font-family="Sans-Serif" font-size="12.00" fill="#333333">OperatorManager</text>
</g>
<!-- 228f5e0bf5844a36a025c3e48d41e4bd&#45;&gt;6951a0056e86407dbbb2bc97b99a1f11 -->
<g id="edge14" class="edge">
<title>228f5e0bf5844a36a025c3e48d41e4bd&#45;&gt;6951a0056e86407dbbb2bc97b99a1f11</title>
<path fill="none" stroke="#666666" d="M865,-820.81C865,-723.71 865,-558 865,-558 865,-558 497.78,-558 497.78,-558"/>
<polygon fill="#666666" stroke="#666666" points="497.78,-554.5 487.78,-558 497.78,-561.5 497.78,-554.5"/>
</g>
<!-- ec10e96732ae47ca949e3f1484b0852c -->
<g id="node22" class="node">
<title>ec10e96732ae47ca949e3f1484b0852c</title>
<image xlink:href="/usr/local/lib/python3.10/dist-packages/resources/programming/language/java.png" width="101px" height="101px" preserveAspectRatio="xMinYMin meet" x="120.5" y="-749"/>
<text text-anchor="middle" x="171" y="-633.4" font-family="Sans-Serif" font-size="12.00" fill="#333333">WorkflowStateManager</text>
</g>
<!-- 228f5e0bf5844a36a025c3e48d41e4bd&#45;&gt;ec10e96732ae47ca949e3f1484b0852c -->
<g id="edge13" class="edge">
<title>228f5e0bf5844a36a025c3e48d41e4bd&#45;&gt;ec10e96732ae47ca949e3f1484b0852c</title>
<path fill="none" stroke="#666666" d="M829,-820.86C829,-805.67 829,-794 829,-794 829,-794 187.83,-794 187.83,-794 187.83,-794 187.83,-777.14 187.83,-777.14"/>
<polygon fill="#666666" stroke="#666666" points="191.33,-777.14 187.83,-767.14 184.33,-777.14 191.33,-777.14"/>
</g>
<!-- 3aee59f2393a4ab48ed59471c3d32825 -->
<g id="node27" class="node">
<title>3aee59f2393a4ab48ed59471c3d32825</title>
<image xlink:href="/usr/local/lib/python3.10/dist-packages/resources/programming/language/java.png" width="101px" height="101px" preserveAspectRatio="xMinYMin meet" x="886.5" y="-749"/>
<text text-anchor="middle" x="937" y="-633.4" font-family="Sans-Serif" font-size="12.00" fill="#333333">WorkflowInstanceDAO</text>
</g>
<!-- 228f5e0bf5844a36a025c3e48d41e4bd&#45;&gt;3aee59f2393a4ab48ed59471c3d32825 -->
<g id="edge25" class="edge">
<title>228f5e0bf5844a36a025c3e48d41e4bd&#45;&gt;3aee59f2393a4ab48ed59471c3d32825</title>
<path fill="none" stroke="#666666" d="M901,-820.81C901,-820.81 901,-777.22 901,-777.22"/>
<polygon fill="#666666" stroke="#666666" points="904.5,-777.22 901,-767.22 897.5,-777.22 904.5,-777.22"/>
</g>
<!-- 2ffaa1ca46384b01a30b5918a5f1ad97 -->
<g id="node8" class="node">
<title>2ffaa1ca46384b01a30b5918a5f1ad97</title>
<image xlink:href="/usr/local/lib/python3.10/dist-packages/resources/programming/language/java.png" width="101px" height="101px" preserveAspectRatio="xMinYMin meet" x="1102.5" y="-940"/>
<text text-anchor="middle" x="1153" y="-824.4" font-family="Sans-Serif" font-size="12.00" fill="#333333">WorkflowVersionService</text>
</g>
<!-- 714053a994fb489fbb76183d630f8e38 -->
<g id="node28" class="node">
<title>714053a994fb489fbb76183d630f8e38</title>
<image xlink:href="/usr/local/lib/python3.10/dist-packages/resources/programming/language/java.png" width="101px" height="101px" preserveAspectRatio="xMinYMin meet" x="1174.5" y="-749"/>
<text text-anchor="middle" x="1225" y="-633.4" font-family="Sans-Serif" font-size="12.00" fill="#333333">TaskDefinitionDAO</text>
</g>
<!-- f41e6cf5528b4edbbf40e14f40ecc73f&#45;&gt;714053a994fb489fbb76183d630f8e38 -->
<g id="edge26" class="edge">
<title>f41e6cf5528b4edbbf40e14f40ecc73f&#45;&gt;714053a994fb489fbb76183d630f8e38</title>
<path fill="none" stroke="#666666" d="M1261,-820.81C1261,-820.81 1261,-777.22 1261,-777.22"/>
<polygon fill="#666666" stroke="#666666" points="1264.5,-777.22 1261,-767.22 1257.5,-777.22 1264.5,-777.22"/>
</g>
<!-- d1eb19a25da945b19854f16dfbf08ee7 -->
<g id="node29" class="node">
<title>d1eb19a25da945b19854f16dfbf08ee7</title>
<image xlink:href="/usr/local/lib/python3.10/dist-packages/resources/programming/language/java.png" width="101px" height="101px" preserveAspectRatio="xMinYMin meet" x="1318.5" y="-749"/>
<text text-anchor="middle" x="1369" y="-633.4" font-family="Sans-Serif" font-size="12.00" fill="#333333">TaskInstanceDAO</text>
</g>
<!-- f41e6cf5528b4edbbf40e14f40ecc73f&#45;&gt;d1eb19a25da945b19854f16dfbf08ee7 -->
<g id="edge27" class="edge">
<title>f41e6cf5528b4edbbf40e14f40ecc73f&#45;&gt;d1eb19a25da945b19854f16dfbf08ee7</title>
<path fill="none" stroke="#666666" d="M1333,-820.81C1333,-820.81 1333,-777.22 1333,-777.22"/>
<polygon fill="#666666" stroke="#666666" points="1336.5,-777.22 1333,-767.22 1329.5,-777.22 1336.5,-777.22"/>
</g>
<!-- 988bb0b2d31642e598a42cf98e1785b4&#45;&gt;ec10e96732ae47ca949e3f1484b0852c -->
<g id="edge15" class="edge">
<title>988bb0b2d31642e598a42cf98e1785b4&#45;&gt;ec10e96732ae47ca949e3f1484b0852c</title>
<path fill="none" stroke="#666666" d="M526.42,-889C414.18,-889 154.17,-889 154.17,-889 154.17,-889 154.17,-777.01 154.17,-777.01"/>
<polygon fill="#666666" stroke="#666666" points="157.67,-777.01 154.17,-767.01 150.67,-777.01 157.67,-777.01"/>
</g>
<!-- 81b28fb9fd94464298de63589f92bee3 -->
<g id="node30" class="node">
<title>81b28fb9fd94464298de63589f92bee3</title>
<image xlink:href="/usr/local/lib/python3.10/dist-packages/resources/programming/language/java.png" width="101px" height="101px" preserveAspectRatio="xMinYMin meet" x="1462.5" y="-749"/>
<text text-anchor="middle" x="1513" y="-633.4" font-family="Sans-Serif" font-size="12.00" fill="#333333">WorkflowExecutionQueueDAO</text>
</g>
<!-- c7bededa43a54871a568a400cf2ba0e5&#45;&gt;81b28fb9fd94464298de63589f92bee3 -->
<g id="edge28" class="edge">
<title>c7bededa43a54871a568a400cf2ba0e5&#45;&gt;81b28fb9fd94464298de63589f92bee3</title>
<path fill="none" stroke="#666666" d="M1477,-820.81C1477,-820.81 1477,-777.22 1477,-777.22"/>
<polygon fill="#666666" stroke="#666666" points="1480.5,-777.22 1477,-767.22 1473.5,-777.22 1480.5,-777.22"/>
</g>
<!-- ede543ae9d8a4e60be72076ebef69403 -->
<g id="node31" class="node">
<title>ede543ae9d8a4e60be72076ebef69403</title>
<image xlink:href="/usr/local/lib/python3.10/dist-packages/resources/programming/language/java.png" width="101px" height="101px" preserveAspectRatio="xMinYMin meet" x="1030.5" y="-749"/>
<text text-anchor="middle" x="1081" y="-633.4" font-family="Sans-Serif" font-size="12.00" fill="#333333">WorkflowHistoryDAO</text>
</g>
<!-- 21ee717519154a5fa70a4451edbc3f1e&#45;&gt;ede543ae9d8a4e60be72076ebef69403 -->
<g id="edge29" class="edge">
<title>21ee717519154a5fa70a4451edbc3f1e&#45;&gt;ede543ae9d8a4e60be72076ebef69403</title>
<path fill="none" stroke="#666666" d="M1045,-820.81C1045,-820.81 1045,-777.22 1045,-777.22"/>
<polygon fill="#666666" stroke="#666666" points="1048.5,-777.22 1045,-767.22 1041.5,-777.22 1048.5,-777.22"/>
</g>
<!-- 695c7420403d4186a786faeb03548750 -->
<g id="node13" class="node">
<title>695c7420403d4186a786faeb03548750</title>
<image xlink:href="/usr/local/lib/python3.10/dist-packages/resources/programming/language/java.png" width="101px" height="101px" preserveAspectRatio="xMinYMin meet" x="608.5" y="-176"/>
<text text-anchor="middle" x="659" y="-60.4" font-family="Sans-Serif" font-size="12.00" fill="#333333">ToDoTaskHandler</text>
</g>
<!-- 2aa8244753d849c4a9e6b249fa956bdc -->
<g id="node14" class="node">
<title>2aa8244753d849c4a9e6b249fa956bdc</title>
<image xlink:href="/usr/local/lib/python3.10/dist-packages/resources/programming/language/java.png" width="101px" height="101px" preserveAspectRatio="xMinYMin meet" x="464.5" y="-176"/>
<text text-anchor="middle" x="515" y="-60.4" font-family="Sans-Serif" font-size="12.00" fill="#333333">SubmitTaskHandler</text>
</g>
<!-- 47e914558de44d17a711417d9e07e872 -->
<g id="node15" class="node">
<title>47e914558de44d17a711417d9e07e872</title>
<image xlink:href="/usr/local/lib/python3.10/dist-packages/resources/programming/language/java.png" width="101px" height="101px" preserveAspectRatio="xMinYMin meet" x="320.5" y="-176"/>
<text text-anchor="middle" x="371" y="-60.4" font-family="Sans-Serif" font-size="12.00" fill="#333333">ApproveTaskHandler</text>
</g>
<!-- 56927d50104040cba30b5b49cf9659af -->
<g id="node16" class="node">
<title>56927d50104040cba30b5b49cf9659af</title>
<image xlink:href="/usr/local/lib/python3.10/dist-packages/resources/programming/language/java.png" width="101px" height="101px" preserveAspectRatio="xMinYMin meet" x="176.5" y="-176"/>
<text text-anchor="middle" x="227" y="-60.4" font-family="Sans-Serif" font-size="12.00" fill="#333333">ReviewTaskHandler</text>
</g>
<!-- f3991300b4144488bc61e976dad976ed -->
<g id="node17" class="node">
<title>f3991300b4144488bc61e976dad976ed</title>
<image xlink:href="/usr/local/lib/python3.10/dist-packages/resources/programming/language/java.png" width="101px" height="101px" preserveAspectRatio="xMinYMin meet" x="32.5" y="-176"/>
<text text-anchor="middle" x="83" y="-60.4" font-family="Sans-Serif" font-size="12.00" fill="#333333">HttpTaskHandler</text>
</g>
<!-- 7d785503021e4b44b9d3b97a8ce9e868 -->
<g id="node18" class="node">
<title>7d785503021e4b44b9d3b97a8ce9e868</title>
<image xlink:href="/usr/local/lib/python3.10/dist-packages/resources/programming/language/java.png" width="101px" height="101px" preserveAspectRatio="xMinYMin meet" x="364.5" y="-367"/>
<text text-anchor="middle" x="415" y="-251.4" font-family="Sans-Serif" font-size="12.00" fill="#333333">TaskHandlerRegistry</text>
</g>
<!-- 7d785503021e4b44b9d3b97a8ce9e868&#45;&gt;695c7420403d4186a786faeb03548750 -->
<g id="edge19" class="edge">
<title>7d785503021e4b44b9d3b97a8ce9e868&#45;&gt;695c7420403d4186a786faeb03548750</title>
<path fill="none" stroke="#666666" d="M465.64,-339C529.49,-339 631,-339 631,-339 631,-339 631,-204.23 631,-204.23"/>
<polygon fill="#666666" stroke="#666666" points="634.5,-204.23 631,-194.23 627.5,-204.23 634.5,-204.23"/>
</g>
<!-- 7d785503021e4b44b9d3b97a8ce9e868&#45;&gt;2aa8244753d849c4a9e6b249fa956bdc -->
<g id="edge20" class="edge">
<title>7d785503021e4b44b9d3b97a8ce9e868&#45;&gt;2aa8244753d849c4a9e6b249fa956bdc</title>
<path fill="none" stroke="#666666" d="M465.51,-293C472.03,-293 476.5,-293 476.5,-293 476.5,-293 476.5,-204.11 476.5,-204.11"/>
<polygon fill="#666666" stroke="#666666" points="480,-204.11 476.5,-194.11 473,-204.11 480,-204.11"/>
</g>
<!-- 7d785503021e4b44b9d3b97a8ce9e868&#45;&gt;47e914558de44d17a711417d9e07e872 -->
<g id="edge21" class="edge">
<title>7d785503021e4b44b9d3b97a8ce9e868&#45;&gt;47e914558de44d17a711417d9e07e872</title>
<path fill="none" stroke="#666666" d="M393,-247.81C393,-247.81 393,-204.22 393,-204.22"/>
<polygon fill="#666666" stroke="#666666" points="396.5,-204.22 393,-194.22 389.5,-204.22 396.5,-204.22"/>
</g>
<!-- 7d785503021e4b44b9d3b97a8ce9e868&#45;&gt;56927d50104040cba30b5b49cf9659af -->
<g id="edge22" class="edge">
<title>7d785503021e4b44b9d3b97a8ce9e868&#45;&gt;56927d50104040cba30b5b49cf9659af</title>
<path fill="none" stroke="#666666" d="M364.25,-293C319.04,-293 260,-293 260,-293 260,-293 260,-204.11 260,-204.11"/>
<polygon fill="#666666" stroke="#666666" points="263.5,-204.11 260,-194.11 256.5,-204.11 263.5,-204.11"/>
</g>
<!-- 7d785503021e4b44b9d3b97a8ce9e868&#45;&gt;f3991300b4144488bc61e976dad976ed -->
<g id="edge23" class="edge">
<title>7d785503021e4b44b9d3b97a8ce9e868&#45;&gt;f3991300b4144488bc61e976dad976ed</title>
<path fill="none" stroke="#666666" d="M364.28,-339C278.97,-339 116,-339 116,-339 116,-339 116,-204.23 116,-204.23"/>
<polygon fill="#666666" stroke="#666666" points="119.5,-204.23 116,-194.23 112.5,-204.23 119.5,-204.23"/>
</g>
<!-- 6951a0056e86407dbbb2bc97b99a1f11&#45;&gt;7d785503021e4b44b9d3b97a8ce9e868 -->
<g id="edge18" class="edge">
<title>6951a0056e86407dbbb2bc97b99a1f11&#45;&gt;7d785503021e4b44b9d3b97a8ce9e868</title>
<path fill="none" stroke="#666666" d="M426,-438.81C426,-438.81 426,-395.22 426,-395.22"/>
<polygon fill="#666666" stroke="#666666" points="429.5,-395.22 426,-385.22 422.5,-395.22 429.5,-395.22"/>
</g>
<!-- 343233677c09467e9542a791c47703bd -->
<g id="node20" class="node">
<title>343233677c09467e9542a791c47703bd</title>
<image xlink:href="/usr/local/lib/python3.10/dist-packages/resources/programming/language/java.png" width="101px" height="101px" preserveAspectRatio="xMinYMin meet" x="242.5" y="-558"/>
<text text-anchor="middle" x="293" y="-442.4" font-family="Sans-Serif" font-size="12.00" fill="#333333">SequenceOperator</text>
</g>
<!-- 49a71b36fc6b4bb5a5726875e0c7c87b -->
<g id="node21" class="node">
<title>49a71b36fc6b4bb5a5726875e0c7c87b</title>
<image xlink:href="/usr/local/lib/python3.10/dist-packages/resources/programming/language/java.png" width="101px" height="101px" preserveAspectRatio="xMinYMin meet" x="98.5" y="-558"/>
<text text-anchor="middle" x="149" y="-442.4" font-family="Sans-Serif" font-size="12.00" fill="#333333">DynamicForkOperator</text>
</g>
<!-- ec10e96732ae47ca949e3f1484b0852c&#45;&gt;343233677c09467e9542a791c47703bd -->
<g id="edge16" class="edge">
<title>ec10e96732ae47ca949e3f1484b0852c&#45;&gt;343233677c09467e9542a791c47703bd</title>
<path fill="none" stroke="#666666" d="M210.5,-629.91C210.5,-574.96 210.5,-507 210.5,-507 210.5,-507 232.16,-507 232.16,-507"/>
<polygon fill="#666666" stroke="#666666" points="232.16,-510.5 242.16,-507 232.16,-503.5 232.16,-510.5"/>
</g>
<!-- ec10e96732ae47ca949e3f1484b0852c&#45;&gt;49a71b36fc6b4bb5a5726875e0c7c87b -->
<g id="edge17" class="edge">
<title>ec10e96732ae47ca949e3f1484b0852c&#45;&gt;49a71b36fc6b4bb5a5726875e0c7c87b</title>
<path fill="none" stroke="#666666" d="M160,-629.81C160,-629.81 160,-586.22 160,-586.22"/>
<polygon fill="#666666" stroke="#666666" points="163.5,-586.22 160,-576.22 156.5,-586.22 163.5,-586.22"/>
</g>
<!-- 6ceb7c98242a4e0799502472c70194d4 -->
<g id="node23" class="node">
<title>6ceb7c98242a4e0799502472c70194d4</title>
<image xlink:href="/usr/local/lib/python3.10/dist-packages/resources/programming/language/java.png" width="101px" height="101px" preserveAspectRatio="xMinYMin meet" x="408.5" y="-749"/>
<text text-anchor="middle" x="459" y="-633.4" font-family="Sans-Serif" font-size="12.00" fill="#333333">ExecutionQueuingInterceptor</text>
</g>
<!-- ad543d6354a54ea582fa7740f566c949 -->
<g id="node24" class="node">
<title>ad543d6354a54ea582fa7740f566c949</title>
<image xlink:href="/usr/local/lib/python3.10/dist-packages/resources/programming/language/java.png" width="101px" height="101px" preserveAspectRatio="xMinYMin meet" x="264.5" y="-749"/>
<text text-anchor="middle" x="315" y="-633.4" font-family="Sans-Serif" font-size="12.00" fill="#333333">WorkflowExecutionSweeper</text>
</g>
<!-- fc0f71acd10c482ebb3ca2c81424653b -->
<g id="node32" class="node">
<title>fc0f71acd10c482ebb3ca2c81424653b</title>
<image xlink:href="/usr/local/lib/python3.10/dist-packages/resources/onprem/database/postgresql.png" width="101px" height="101px" preserveAspectRatio="xMinYMin meet" x="1588.5" y="-558"/>
<text text-anchor="middle" x="1639" y="-442.4" font-family="Sans-Serif" font-size="12.00" fill="#333333">PostgreSQL Database</text>
</g>
<!-- 5ca207e79bff471998650352f7a5855b&#45;&gt;fc0f71acd10c482ebb3ca2c81424653b -->
<g id="edge30" class="edge">
<title>5ca207e79bff471998650352f7a5855b&#45;&gt;fc0f71acd10c482ebb3ca2c81424653b</title>
<path fill="none" stroke="#666666" d="M793,-629.98C793,-558.27 793,-456 793,-456 793,-456 1578.3,-456 1578.3,-456"/>
<polygon fill="#666666" stroke="#666666" points="1578.3,-459.5 1588.3,-456 1578.3,-452.5 1578.3,-459.5"/>
</g>
<!-- 3aee59f2393a4ab48ed59471c3d32825&#45;&gt;fc0f71acd10c482ebb3ca2c81424653b -->
<g id="edge31" class="edge">
<title>3aee59f2393a4ab48ed59471c3d32825&#45;&gt;fc0f71acd10c482ebb3ca2c81424653b</title>
<path fill="none" stroke="#666666" d="M937,-629.92C937,-563.58 937,-473 937,-473 937,-473 1578.23,-473 1578.23,-473"/>
<polygon fill="#666666" stroke="#666666" points="1578.23,-476.5 1588.23,-473 1578.23,-469.5 1578.23,-476.5"/>
</g>
<!-- 714053a994fb489fbb76183d630f8e38&#45;&gt;fc0f71acd10c482ebb3ca2c81424653b -->
<g id="edge32" class="edge">
<title>714053a994fb489fbb76183d630f8e38&#45;&gt;fc0f71acd10c482ebb3ca2c81424653b</title>
<path fill="none" stroke="#666666" d="M1225,-629.91C1225,-574.96 1225,-507 1225,-507 1225,-507 1578.24,-507 1578.24,-507"/>
<polygon fill="#666666" stroke="#666666" points="1578.24,-510.5 1588.24,-507 1578.24,-503.5 1578.24,-510.5"/>
</g>
<!-- d1eb19a25da945b19854f16dfbf08ee7&#45;&gt;fc0f71acd10c482ebb3ca2c81424653b -->
<g id="edge33" class="edge">
<title>d1eb19a25da945b19854f16dfbf08ee7&#45;&gt;fc0f71acd10c482ebb3ca2c81424653b</title>
<path fill="none" stroke="#666666" d="M1369,-629.78C1369,-580.95 1369,-524 1369,-524 1369,-524 1578.22,-524 1578.22,-524"/>
<polygon fill="#666666" stroke="#666666" points="1578.22,-527.5 1588.22,-524 1578.22,-520.5 1578.22,-527.5"/>
</g>
<!-- 81b28fb9fd94464298de63589f92bee3&#45;&gt;fc0f71acd10c482ebb3ca2c81424653b -->
<g id="edge34" class="edge">
<title>81b28fb9fd94464298de63589f92bee3&#45;&gt;fc0f71acd10c482ebb3ca2c81424653b</title>
<path fill="none" stroke="#666666" d="M1513,-629.88C1513,-587.43 1513,-541 1513,-541 1513,-541 1578.48,-541 1578.48,-541"/>
<polygon fill="#666666" stroke="#666666" points="1578.48,-544.5 1588.48,-541 1578.48,-537.5 1578.48,-544.5"/>
</g>
<!-- ede543ae9d8a4e60be72076ebef69403&#45;&gt;fc0f71acd10c482ebb3ca2c81424653b -->
<g id="edge35" class="edge">
<title>ede543ae9d8a4e60be72076ebef69403&#45;&gt;fc0f71acd10c482ebb3ca2c81424653b</title>
<path fill="none" stroke="#666666" d="M1081,-629.94C1081,-569.17 1081,-490 1081,-490 1081,-490 1578.5,-490 1578.5,-490"/>
<polygon fill="#666666" stroke="#666666" points="1578.5,-493.5 1588.5,-490 1578.5,-486.5 1578.5,-493.5"/>
</g>
<!-- d59ec7f1ee68462ebb0cefce245f0463 -->
<g id="node33" class="node">
<title>d59ec7f1ee68462ebb0cefce245f0463</title>
<image xlink:href="/usr/local/lib/python3.10/dist-packages/resources/onprem/client/user.png" width="101px" height="101px" preserveAspectRatio="xMinYMin meet" x="886.5" y="-1533"/>
<text text-anchor="middle" x="937" y="-1417.4" font-family="Sans-Serif" font-size="12.00" fill="#333333">End User</text>
</g>
<!-- d59ec7f1ee68462ebb0cefce245f0463&#45;&gt;cd10d7b1a1c7409393fe03d049037ea8 -->
<g id="edge1" class="edge">
<title>d59ec7f1ee68462ebb0cefce245f0463&#45;&gt;cd10d7b1a1c7409393fe03d049037ea8</title>
<path fill="none" stroke="#666666" d="M937,-1413.81C937,-1413.81 937,-1370.22 937,-1370.22"/>
<polygon fill="#666666" stroke="#666666" points="940.5,-1370.22 937,-1360.22 933.5,-1370.22 940.5,-1370.22"/>
</g>
</g>
</svg>
