<?xml version="1.0" encoding="UTF-8" standalone="no"?>
<!DOCTYPE svg PUBLIC "-//W3C//DTD SVG 1.1//EN"
 "http://www.w3.org/Graphics/SVG/1.1/DTD/svg11.dtd">
<!-- Generated by graphviz version 2.43.0 (0)
 -->
<!-- Title: Workflow Engine System Architecture Pages: 1 -->
<svg width="1308pt" height="822pt"
 viewBox="0.00 0.00 1308.00 822.00" xmlns="http://www.w3.org/2000/svg" xmlns:xlink="http://www.w3.org/1999/xlink">
<g id="graph0" class="graph" transform="scale(1 1) rotate(0) translate(36 786)">
<title>Workflow Engine System Architecture</title>
<polygon fill="white" stroke="transparent" points="-36,36 -36,-786 1272,-786 1272,36 -36,36"/>
<text text-anchor="middle" x="618" y="-9.2" font-family="Arial" font-size="16.00" fill="#333333">Workflow Engine System Architecture</text>
<g id="clust1" class="cluster">
<title>cluster_External Systems</title>
<path fill="#e5f5fd" stroke="#aeb6be" d="M20,-462C20,-462 399,-462 399,-462 405,-462 411,-468 411,-474 411,-474 411,-625 411,-625 411,-631 405,-637 399,-637 399,-637 20,-637 20,-637 14,-637 8,-631 8,-625 8,-625 8,-474 8,-474 8,-468 14,-462 20,-462"/>
<text text-anchor="middle" x="67.5" y="-623.4" font-family="Sans-Serif" font-size="12.00" fill="#333333">External Systems</text>
</g>
<g id="clust2" class="cluster">
<title>cluster_Workflow Engine</title>
<path fill="#e5f5fd" stroke="#aeb6be" d="M503,-167C503,-167 1034,-167 1034,-167 1040,-167 1046,-173 1046,-179 1046,-179 1046,-730 1046,-730 1046,-736 1040,-742 1034,-742 1034,-742 503,-742 503,-742 497,-742 491,-736 491,-730 491,-730 491,-179 491,-179 491,-173 497,-167 503,-167"/>
<text text-anchor="middle" x="549" y="-728.4" font-family="Sans-Serif" font-size="12.00" fill="#333333">Workflow Engine</text>
</g>
<g id="clust3" class="cluster">
<title>cluster_Core Engine</title>
<path fill="#e6f2ff" stroke="#aeb6be" d="M718,-358C718,-358 1026,-358 1026,-358 1032,-358 1038,-364 1038,-370 1038,-370 1038,-701 1038,-701 1038,-707 1032,-713 1026,-713 1026,-713 718,-713 718,-713 712,-713 706,-707 706,-701 706,-701 706,-370 706,-370 706,-364 712,-358 718,-358"/>
<text text-anchor="middle" x="750.5" y="-699.4" font-family="Sans-Serif" font-size="12.00" fill="#333333">Core Engine</text>
</g>
<g id="clust4" class="cluster">
<title>cluster_API Layer</title>
<path fill="#e6ffe6" stroke="#aeb6be" d="M511,-358C511,-358 604,-358 604,-358 610,-358 616,-364 616,-370 616,-370 616,-701 616,-701 616,-707 610,-713 604,-713 604,-713 511,-713 511,-713 505,-713 499,-707 499,-701 499,-701 499,-370 499,-370 499,-364 505,-358 511,-358"/>
<text text-anchor="middle" x="536" y="-699.4" font-family="Sans-Serif" font-size="12.00" fill="#333333">API Layer</text>
</g>
<g id="clust5" class="cluster">
<title>cluster_Execution</title>
<path fill="#f2e6ff" stroke="#aeb6be" d="M718,-175C718,-175 1026,-175 1026,-175 1032,-175 1038,-181 1038,-187 1038,-187 1038,-338 1038,-338 1038,-344 1032,-350 1026,-350 1026,-350 718,-350 718,-350 712,-350 706,-344 706,-338 706,-338 706,-187 706,-187 706,-181 712,-175 718,-175"/>
<text text-anchor="middle" x="743.5" y="-336.4" font-family="Sans-Serif" font-size="12.00" fill="#333333">Execution</text>
</g>
<!-- 8e8d59a4edfa4fa0a5b1e81487093f3b -->
<g id="node1" class="node">
<title>8e8d59a4edfa4fa0a5b1e81487093f3b</title>
<polygon fill="#e6f2ff" stroke="transparent" points="403,-607.5 302,-607.5 302,-470.5 403,-470.5 403,-607.5"/>
<image xlink:href="/usr/local/lib/python3.10/dist-packages/resources/programming/framework/spring.png" width="101px" height="101px" preserveAspectRatio="xMinYMin meet" x="302" y="-589.5"/>
<text text-anchor="middle" x="352.5" y="-474.3" font-family="Arial" font-size="14.00" fill="#333333">Host Application</text>
</g>
<!-- 1a2a8ccc83fa4b30a7d53017f9d9968f -->
<g id="node6" class="node">
<title>1a2a8ccc83fa4b30a7d53017f9d9968f</title>
<polygon fill="#e6f2ff" stroke="transparent" points="608,-683.5 507,-683.5 507,-546.5 608,-546.5 608,-683.5"/>
<image xlink:href="/usr/local/lib/python3.10/dist-packages/resources/programming/language/java.png" width="101px" height="101px" preserveAspectRatio="xMinYMin meet" x="507" y="-665.5"/>
<text text-anchor="middle" x="557.5" y="-550.3" font-family="Arial" font-size="14.00" fill="#333333">Workflow Instance API</text>
</g>
<!-- 8e8d59a4edfa4fa0a5b1e81487093f3b&#45;&gt;1a2a8ccc83fa4b30a7d53017f9d9968f -->
<g id="edge1" class="edge">
<title>8e8d59a4edfa4fa0a5b1e81487093f3b&#45;&gt;1a2a8ccc83fa4b30a7d53017f9d9968f</title>
<path fill="none" stroke="#666666" d="M403.17,-577C403.17,-577 496.7,-577 496.7,-577"/>
<polygon fill="#666666" stroke="#666666" points="496.7,-580.5 506.7,-577 496.7,-573.5 496.7,-580.5"/>
<text text-anchor="middle" x="455" y="-588.6" font-family="Sans-Serif" font-size="13.00" fill="#2d3436">Invokes</text>
</g>
<!-- c67a632d81a141b08195def97497e102 -->
<g id="node7" class="node">
<title>c67a632d81a141b08195def97497e102</title>
<polygon fill="#e6f2ff" stroke="transparent" points="608,-503.5 507,-503.5 507,-366.5 608,-366.5 608,-503.5"/>
<image xlink:href="/usr/local/lib/python3.10/dist-packages/resources/programming/language/java.png" width="101px" height="101px" preserveAspectRatio="xMinYMin meet" x="507" y="-485.5"/>
<text text-anchor="middle" x="557.5" y="-370.3" font-family="Arial" font-size="14.00" fill="#333333">Task Management API</text>
</g>
<!-- 8e8d59a4edfa4fa0a5b1e81487093f3b&#45;&gt;c67a632d81a141b08195def97497e102 -->
<g id="edge2" class="edge">
<title>8e8d59a4edfa4fa0a5b1e81487093f3b&#45;&gt;c67a632d81a141b08195def97497e102</title>
<path fill="none" stroke="#666666" d="M403.17,-487C403.17,-487 496.7,-487 496.7,-487"/>
<polygon fill="#666666" stroke="#666666" points="496.7,-490.5 506.7,-487 496.7,-483.5 496.7,-490.5"/>
<text text-anchor="middle" x="455" y="-497.6" font-family="Sans-Serif" font-size="13.00" fill="#2d3436">Invokes</text>
</g>
<!-- 7d0fece4134a415e8d189beed6db6aef -->
<g id="node2" class="node">
<title>7d0fece4134a415e8d189beed6db6aef</title>
<polygon fill="#e6f2ff" stroke="transparent" points="117,-607.5 16,-607.5 16,-470.5 117,-470.5 117,-607.5"/>
<image xlink:href="/usr/local/lib/python3.10/dist-packages/resources/aws/general/client.png" width="101px" height="101px" preserveAspectRatio="xMinYMin meet" x="16" y="-589.5"/>
<text text-anchor="middle" x="66.5" y="-474.3" font-family="Arial" font-size="14.00" fill="#333333">External Definition Management</text>
</g>
<!-- 7d0fece4134a415e8d189beed6db6aef&#45;&gt;8e8d59a4edfa4fa0a5b1e81487093f3b -->
<g id="edge14" class="edge">
<title>7d0fece4134a415e8d189beed6db6aef&#45;&gt;8e8d59a4edfa4fa0a5b1e81487093f3b</title>
<path fill="none" stroke="#666666" d="M117.3,-539C117.3,-539 291.69,-539 291.69,-539"/>
<polygon fill="#666666" stroke="#666666" points="291.69,-542.5 301.69,-539 291.69,-535.5 291.69,-542.5"/>
<text text-anchor="middle" x="209.5" y="-542.6" font-family="Sans-Serif" font-size="13.00" fill="#2d3436">Provides Definitions</text>
</g>
<!-- 694a8a4ad695476589f7e1f89738b75d -->
<g id="node3" class="node">
<title>694a8a4ad695476589f7e1f89738b75d</title>
<polygon fill="#e6f2ff" stroke="transparent" points="815,-683.5 714,-683.5 714,-546.5 815,-546.5 815,-683.5"/>
<image xlink:href="/usr/local/lib/python3.10/dist-packages/resources/programming/language/java.png" width="101px" height="101px" preserveAspectRatio="xMinYMin meet" x="714" y="-665.5"/>
<text text-anchor="middle" x="764.5" y="-550.3" font-family="Arial" font-size="14.00" fill="#333333">Workflow State Manager</text>
</g>
<!-- 7e06dd0beae54e889f300e1da0d8011a -->
<g id="node4" class="node">
<title>7e06dd0beae54e889f300e1da0d8011a</title>
<polygon fill="#e6f2ff" stroke="transparent" points="1030,-683.5 929,-683.5 929,-546.5 1030,-546.5 1030,-683.5"/>
<image xlink:href="/usr/local/lib/python3.10/dist-packages/resources/programming/language/java.png" width="101px" height="101px" preserveAspectRatio="xMinYMin meet" x="929" y="-665.5"/>
<text text-anchor="middle" x="979.5" y="-550.3" font-family="Arial" font-size="14.00" fill="#333333">Operator Manager</text>
</g>
<!-- 694a8a4ad695476589f7e1f89738b75d&#45;&gt;7e06dd0beae54e889f300e1da0d8011a -->
<g id="edge5" class="edge">
<title>694a8a4ad695476589f7e1f89738b75d&#45;&gt;7e06dd0beae54e889f300e1da0d8011a</title>
<path fill="none" stroke="#666666" d="M815.18,-615C815.18,-615 918.79,-615 918.79,-615"/>
<polygon fill="#666666" stroke="#666666" points="918.79,-618.5 928.79,-615 918.79,-611.5 918.79,-618.5"/>
<text text-anchor="middle" x="872" y="-618.6" font-family="Sans-Serif" font-size="13.00" fill="#2d3436">Manages</text>
</g>
<!-- 39afd422bc4a45e3a3b104467373c5e4 -->
<g id="node8" class="node">
<title>39afd422bc4a45e3a3b104467373c5e4</title>
<polygon fill="#e6f2ff" stroke="transparent" points="1030,-320.5 929,-320.5 929,-183.5 1030,-183.5 1030,-320.5"/>
<image xlink:href="/usr/local/lib/python3.10/dist-packages/resources/programming/language/java.png" width="101px" height="101px" preserveAspectRatio="xMinYMin meet" x="929" y="-302.5"/>
<text text-anchor="middle" x="979.5" y="-187.3" font-family="Arial" font-size="14.00" fill="#333333">Execution Queue</text>
</g>
<!-- 694a8a4ad695476589f7e1f89738b75d&#45;&gt;39afd422bc4a45e3a3b104467373c5e4 -->
<g id="edge6" class="edge">
<title>694a8a4ad695476589f7e1f89738b75d&#45;&gt;39afd422bc4a45e3a3b104467373c5e4</title>
<path fill="none" stroke="#666666" d="M748,-536.46C748,-536.46 748,-517.83 748,-517.83 748,-517.83 997,-517.83 997,-517.83 997,-517.83 997,-399.57 997,-320.8"/>
<polygon fill="#666666" stroke="#666666" points="744.5,-536.46 748,-546.46 751.5,-536.46 744.5,-536.46"/>
<text text-anchor="middle" x="872" y="-497.6" font-family="Sans-Serif" font-size="13.00" fill="#2d3436">Notifies</text>
</g>
<!-- fe1033f2a6aa4beda6ccf8022808a513 -->
<g id="node10" class="node">
<title>fe1033f2a6aa4beda6ccf8022808a513</title>
<polygon fill="#e6f2ff" stroke="transparent" points="1236,-194.5 1135,-194.5 1135,-57.5 1236,-57.5 1236,-194.5"/>
<image xlink:href="/usr/local/lib/python3.10/dist-packages/resources/onprem/database/postgresql.png" width="101px" height="101px" preserveAspectRatio="xMinYMin meet" x="1135" y="-176.5"/>
<text text-anchor="middle" x="1185.5" y="-61.3" font-family="Arial" font-size="14.00" fill="#333333">PostgreSQL</text>
</g>
<!-- 694a8a4ad695476589f7e1f89738b75d&#45;&gt;fe1033f2a6aa4beda6ccf8022808a513 -->
<g id="edge10" class="edge">
<title>694a8a4ad695476589f7e1f89738b75d&#45;&gt;fe1033f2a6aa4beda6ccf8022808a513</title>
<path fill="none" stroke="#666666" d="M782,-546.22C782,-537.84 782,-532.17 782,-532.17 782,-532.17 1203,-532.17 1203,-532.17 1203,-532.17 1203,-204.9 1203,-204.9"/>
<polygon fill="#666666" stroke="#666666" points="1206.5,-204.9 1203,-194.9 1199.5,-204.9 1206.5,-204.9"/>
<text text-anchor="middle" x="979.5" y="-129.6" font-family="Sans-Serif" font-size="13.00" fill="#2d3436">Persists</text>
</g>
<!-- c1f4e2aba05b453a9b21c30cbd87e157 -->
<g id="node5" class="node">
<title>c1f4e2aba05b453a9b21c30cbd87e157</title>
<polygon fill="#e6f2ff" stroke="transparent" points="815,-503.5 714,-503.5 714,-366.5 815,-366.5 815,-503.5"/>
<image xlink:href="/usr/local/lib/python3.10/dist-packages/resources/programming/language/java.png" width="101px" height="101px" preserveAspectRatio="xMinYMin meet" x="714" y="-485.5"/>
<text text-anchor="middle" x="764.5" y="-370.3" font-family="Arial" font-size="14.00" fill="#333333">Task Handler</text>
</g>
<!-- c1f4e2aba05b453a9b21c30cbd87e157&#45;&gt;39afd422bc4a45e3a3b104467373c5e4 -->
<g id="edge7" class="edge">
<title>c1f4e2aba05b453a9b21c30cbd87e157&#45;&gt;39afd422bc4a45e3a3b104467373c5e4</title>
<path fill="none" stroke="#666666" d="M815.1,-412.17C873.91,-412.17 963,-412.17 963,-412.17 963,-412.17 963,-330.85 963,-330.85"/>
<polygon fill="#666666" stroke="#666666" points="966.5,-330.85 963,-320.85 959.5,-330.85 966.5,-330.85"/>
<text text-anchor="middle" x="872" y="-377.6" font-family="Sans-Serif" font-size="13.00" fill="#2d3436">Queues</text>
</g>
<!-- c1f4e2aba05b453a9b21c30cbd87e157&#45;&gt;fe1033f2a6aa4beda6ccf8022808a513 -->
<g id="edge11" class="edge">
<title>c1f4e2aba05b453a9b21c30cbd87e157&#45;&gt;fe1033f2a6aa4beda6ccf8022808a513</title>
<path fill="none" stroke="#666666" d="M815.32,-457.83C923.96,-457.83 1169,-457.83 1169,-457.83 1169,-457.83 1169,-204.76 1169,-204.76"/>
<polygon fill="#666666" stroke="#666666" points="1172.5,-204.76 1169,-194.76 1165.5,-204.76 1172.5,-204.76"/>
<text text-anchor="middle" x="979.5" y="-29.6" font-family="Sans-Serif" font-size="13.00" fill="#2d3436">Persists</text>
</g>
<!-- 1a2a8ccc83fa4b30a7d53017f9d9968f&#45;&gt;694a8a4ad695476589f7e1f89738b75d -->
<g id="edge3" class="edge">
<title>1a2a8ccc83fa4b30a7d53017f9d9968f&#45;&gt;694a8a4ad695476589f7e1f89738b75d</title>
<path fill="none" stroke="#666666" d="M608.14,-637.83C608.14,-637.83 703.67,-637.83 703.67,-637.83"/>
<polygon fill="#666666" stroke="#666666" points="703.67,-641.33 713.67,-637.83 703.67,-634.33 703.67,-641.33"/>
<text text-anchor="middle" x="661" y="-618.6" font-family="Sans-Serif" font-size="13.00" fill="#2d3436">Uses</text>
</g>
<!-- c67a632d81a141b08195def97497e102&#45;&gt;c1f4e2aba05b453a9b21c30cbd87e157 -->
<g id="edge4" class="edge">
<title>c67a632d81a141b08195def97497e102&#45;&gt;c1f4e2aba05b453a9b21c30cbd87e157</title>
<path fill="none" stroke="#666666" d="M608.14,-435C608.14,-435 703.67,-435 703.67,-435"/>
<polygon fill="#666666" stroke="#666666" points="703.67,-438.5 713.67,-435 703.67,-431.5 703.67,-438.5"/>
<text text-anchor="middle" x="661" y="-438.6" font-family="Sans-Serif" font-size="13.00" fill="#2d3436">Uses</text>
</g>
<!-- 39afd422bc4a45e3a3b104467373c5e4&#45;&gt;fe1033f2a6aa4beda6ccf8022808a513 -->
<g id="edge12" class="edge">
<title>39afd422bc4a45e3a3b104467373c5e4&#45;&gt;fe1033f2a6aa4beda6ccf8022808a513</title>
<path fill="none" stroke="#666666" d="M1030.16,-189C1030.16,-189 1124.68,-189 1124.68,-189"/>
<polygon fill="#666666" stroke="#666666" points="1124.68,-192.5 1134.68,-189 1124.68,-185.5 1124.68,-192.5"/>
<text text-anchor="middle" x="1082.5" y="-227.6" font-family="Sans-Serif" font-size="13.00" fill="#2d3436">Persists</text>
</g>
<!-- a5db607e03bc484cbdc4abdede61ebe0 -->
<g id="node9" class="node">
<title>a5db607e03bc484cbdc4abdede61ebe0</title>
<polygon fill="#e6f2ff" stroke="transparent" points="815,-320.5 714,-320.5 714,-183.5 815,-183.5 815,-320.5"/>
<image xlink:href="/usr/local/lib/python3.10/dist-packages/resources/programming/language/java.png" width="101px" height="101px" preserveAspectRatio="xMinYMin meet" x="714" y="-302.5"/>
<text text-anchor="middle" x="764.5" y="-187.3" font-family="Arial" font-size="14.00" fill="#333333">Workflow Execution Sweeper</text>
</g>
<!-- a5db607e03bc484cbdc4abdede61ebe0&#45;&gt;694a8a4ad695476589f7e1f89738b75d -->
<g id="edge9" class="edge">
<title>a5db607e03bc484cbdc4abdede61ebe0&#45;&gt;694a8a4ad695476589f7e1f89738b75d</title>
<path fill="none" stroke="#666666" d="M713.96,-305.5C687.69,-305.5 661,-305.5 661,-305.5 661,-305.5 661,-592.17 661,-592.17 661,-592.17 703.96,-592.17 703.96,-592.17"/>
<polygon fill="#666666" stroke="#666666" points="703.96,-595.67 713.96,-592.17 703.96,-588.67 703.96,-595.67"/>
<text text-anchor="middle" x="661" y="-371.6" font-family="Sans-Serif" font-size="13.00" fill="#2d3436">Triggers</text>
</g>
<!-- a5db607e03bc484cbdc4abdede61ebe0&#45;&gt;39afd422bc4a45e3a3b104467373c5e4 -->
<g id="edge8" class="edge">
<title>a5db607e03bc484cbdc4abdede61ebe0&#45;&gt;39afd422bc4a45e3a3b104467373c5e4</title>
<path fill="none" stroke="#666666" d="M815.18,-252C815.18,-252 918.79,-252 918.79,-252"/>
<polygon fill="#666666" stroke="#666666" points="918.79,-255.5 928.79,-252 918.79,-248.5 918.79,-255.5"/>
<text text-anchor="middle" x="872" y="-255.6" font-family="Sans-Serif" font-size="13.00" fill="#2d3436">Polls</text>
</g>
<!-- 0ea4c961c9df4af1842ed7e1a5866890 -->
<g id="node11" class="node">
<title>0ea4c961c9df4af1842ed7e1a5866890</title>
<polygon fill="#e6f2ff" stroke="transparent" points="117,-427.5 16,-427.5 16,-290.5 117,-290.5 117,-427.5"/>
<image xlink:href="/usr/local/lib/python3.10/dist-packages/resources/onprem/client/user.png" width="101px" height="101px" preserveAspectRatio="xMinYMin meet" x="16" y="-409.5"/>
<text text-anchor="middle" x="66.5" y="-294.3" font-family="Arial" font-size="14.00" fill="#333333">End User</text>
</g>
<!-- 0ea4c961c9df4af1842ed7e1a5866890&#45;&gt;8e8d59a4edfa4fa0a5b1e81487093f3b -->
<g id="edge13" class="edge">
<title>0ea4c961c9df4af1842ed7e1a5866890&#45;&gt;8e8d59a4edfa4fa0a5b1e81487093f3b</title>
<path fill="none" stroke="#666666" d="M117.06,-397C199.31,-397 353,-397 353,-397 353,-397 353,-460.5 353,-460.5"/>
<polygon fill="#666666" stroke="#666666" points="349.5,-460.5 353,-470.5 356.5,-460.5 349.5,-460.5"/>
<text text-anchor="middle" x="209.5" y="-362.6" font-family="Sans-Serif" font-size="13.00" fill="#2d3436">Interacts</text>
</g>
</g>
</svg>
